<svg xmlns="http://www.w3.org/2000/svg" xmlns:xlink="http://www.w3.org/1999/xlink" width="548" height="247" viewBox="0 0 548 247">
    <defs>
        <linearGradient id="uzcx658oyb" x1="59.928%" x2="40.648%" y1="45.355%" y2="54.452%">
            <stop offset="0%" stop-color="#08293B"/>
            <stop offset="49.734%" stop-color="#05202E"/>
            <stop offset="100%" stop-color="#08293B"/>
        </linearGradient>
        <rect id="4hoc4chvza" width="546" height="247" x=".453" y="0" rx="20"/>
    </defs>
    <g fill="none" fill-rule="evenodd">
        <g>
            <g>
                <g>
                    <g transform="translate(-181 -448) translate(147 370) translate(0 24) translate(34.547 54)">
                        <mask id="n19vndi7kc" fill="#fff">
                            <use xlink:href="#4hoc4chvza"/>
                        </mask>
                        <use fill="#05202E" xlink:href="#4hoc4chvza"/>
                        <path fill="url(#uzcx658oyb)" fill-rule="nonzero" d="M650.639 5l6.817 4.186L513.27 244.003l-6.817-4.186L650.639 5zm-480.002-.002l6.818 4.186L33.268 244.002l-6.817-4.186L170.637 4.998zm-29.547 0l6.817 4.186L3.721 244.002l-6.817-4.186L141.09 4.998zm-30 0l6.817 4.186-144.186 234.818-6.817-4.186L111.09 4.998zm-30 0l6.817 4.186-144.186 234.818-6.817-4.186L81.09 4.998zm-30 0l6.817 4.186-144.186 234.818-6.817-4.186L51.09 4.998zm150 0l6.817 4.186L63.721 244.002l-6.817-4.186L201.09 4.998zm90 0l6.817 4.186-144.186 234.818-6.817-4.186L291.09 4.998zm90 0l6.817 4.186-144.186 234.818-6.817-4.186L381.09 4.998zm30 0l6.817 4.186-144.186 234.818-6.817-4.186L411.09 4.998zm30 0l6.817 4.186-144.186 234.818-6.817-4.186L441.09 4.998zm30 0l6.817 4.186-144.186 234.818-6.817-4.186L471.09 4.998zm30 0l6.817 4.186-144.186 234.818-6.817-4.186L501.09 4.998zm30 0l6.817 4.186-144.186 234.818-6.817-4.186L531.09 4.998zm30 0l6.817 4.186-144.186 234.818-6.817-4.186L561.09 4.998zm30 0l6.817 4.186-144.186 234.818-6.817-4.186L591.09 4.998zm30 0l6.817 4.186-144.186 234.818-6.817-4.186L621.09 4.998zm-300 0l6.817 4.186-144.186 234.818-6.817-4.186L321.09 4.998zm30 0l6.817 4.186-144.186 234.818-6.817-4.186L351.09 4.998zm-120 0l6.817 4.186L93.721 244.002l-6.817-4.186L231.09 4.998zm30 0l6.817 4.186-144.186 234.818-6.817-4.186L261.09 4.998z" mask="url(#n19vndi7kc)"/>
                    </g>
                </g>
            </g>
        </g>
    </g>
</svg>
