<svg xmlns="http://www.w3.org/2000/svg" width="52" height="50" viewBox="0 0 52 50">
    <defs>
        <linearGradient id="tm1noa5gra" x1="0%" x2="100%" y1="96.228%" y2="3.772%">
            <stop offset="0%" stop-color="#FFB400"/>
            <stop offset="100%" stop-color="#FF0"/>
        </linearGradient>
    </defs>
    <g fill="none" fill-rule="evenodd">
        <g fill="url(#tm1noa5gra)" transform="translate(-750 -942)">
            <g>
                <g>
                    <g>
                        <path d="M36.565 18.463c2.736-.041 5.538.28 7.273 1.974.89.868 1.425 2.033 1.6 3.476h1.145c.598 0 1.084.487 1.084 1.087v23.913c0 .6-.486 1.087-1.084 1.087H5.417c-.598 0-1.084-.487-1.084-1.087V25c0-.6.486-1.087 1.084-1.087h1.146c.174-1.443.71-2.61 1.599-3.476 1.735-1.694 4.545-2.02 7.273-1.974 1.775-5.222 7.885-5.412 10.307-5.42h.516c2.422.008 8.532.198 10.307 5.42zm8.935 7.624h-39v21.74h39v-21.74zm-24.917 2.174c.598 0 1.084.487 1.084 1.087v5.435h8.666v-5.435c0-.6.486-1.087 1.084-1.087H42.25c.598 0 1.083.487 1.083 1.087v15.217c0 .6-.485 1.087-1.083 1.087H9.75c-.598 0-1.083-.487-1.083-1.087V29.348c0-.6.485-1.087 1.083-1.087h10.833zM19.5 30.435h-8.667v13.043h30.334V30.435H32.5v5.435c0 .6-.485 1.087-1.083 1.087H20.583c-.598 0-1.083-.487-1.083-1.087v-5.435zM26 28.26c.598 0 1.083.487 1.083 1.087v2.174c0 .6-.485 1.087-1.083 1.087s-1.083-.487-1.083-1.087v-2.174c0-.6.485-1.087 1.083-1.087zm0-13.044c-5.297 0-7.98 1.416-8.695 4.587-.113.507-.587.826-1.085.848-2.342-.067-5.202.026-6.548 1.344-.482.468-.787 1.1-.923 1.917h34.502c-.136-.816-.44-1.45-.923-1.917-1.35-1.316-4.199-1.411-6.548-1.344-.47-.017-.975-.341-1.085-.848-.715-3.171-3.398-4.587-8.695-4.587zM3.25 19.565c.598 0 1.083.487 1.083 1.087S3.848 21.74 3.25 21.74H1.083C.485 21.74 0 21.252 0 20.652s.485-1.087 1.083-1.087H3.25zm47.667 0c.598 0 1.083.487 1.083 1.087s-.485 1.087-1.083 1.087H48.75c-.598 0-1.083-.487-1.083-1.087s.485-1.087 1.083-1.087h2.167zm-40.4-15.987l2.167 2.174c.422.426.422 1.113 0 1.54-.213.21-.49.317-.767.317-.278 0-.555-.107-.767-.318L8.983 5.117c-.423-.426-.423-1.113 0-1.539.425-.424 1.11-.424 1.534 0zm32.5 0c.422.426.422 1.113 0 1.54L40.85 7.29c-.212.211-.49.318-.767.318s-.554-.107-.767-.318c-.422-.426-.422-1.113 0-1.539l2.167-2.174c.425-.424 1.11-.424 1.534 0zM24.917 0C25.515 0 26 .487 26 1.087v3.26c0 .6-.485 1.088-1.083 1.088s-1.084-.487-1.084-1.087V1.087c0-.6.486-1.087 1.084-1.087z" transform="translate(361 664) translate(290 278) translate(99)"/>
                    </g>
                </g>
            </g>
        </g>
    </g>
</svg>
