<svg xmlns="http://www.w3.org/2000/svg" width="50" height="50" viewBox="0 0 50 50">
    <defs>
        <linearGradient id="cp6b0ei3la" x1="0%" x2="100%" y1="100%" y2="0%">
            <stop offset="0%" stop-color="#FFB400"/>
            <stop offset="100%" stop-color="#FF0"/>
        </linearGradient>
    </defs>
    <g fill="none" fill-rule="evenodd">
        <g fill="url(#cp6b0ei3la)" transform="translate(-1041 -942)">
            <g>
                <g>
                    <g>
                        <path d="M25 0C26.873 0 28.55 1 29.467 2.54c1.433-1.07 3.364-1.354 5.1-.637 1.733.718 2.898 2.285 3.156 4.054 1.74-.438 3.63.04 4.954 1.362 1.327 1.327 1.802 3.221 1.367 4.956 1.769.259 3.335 1.423 4.054 3.157.717 1.731.433 3.664-.637 5.1 1.537.916 2.54 2.591 2.54 4.466s-1.003 3.552-2.538 4.47c1.07 1.435 1.354 3.368.635 5.1-.719 1.73-2.285 2.895-4.056 3.153.437 1.736-.038 3.63-1.365 4.957C41.348 44 39.46 44.48 37.723 44.04c-.26 1.77-1.423 3.338-3.154 4.056-1.738.717-3.667.43-5.102-.637C28.55 48.997 26.873 50 25 50c-1.875 0-3.55-1.003-4.469-2.54-1.435 1.073-3.368 1.354-5.097.637-1.732-.718-2.898-2.285-3.159-4.056-1.737.44-3.625-.037-4.952-1.36-1.325-1.33-1.802-3.223-1.364-4.959-1.77-.258-3.338-1.423-4.057-3.154-.716-1.731-.433-3.664.638-5.102C1 28.549 0 26.874 0 24.999c0-1.875 1.002-3.55 2.54-4.468-1.069-1.436-1.354-3.367-.636-5.098.72-1.734 2.286-2.898 4.055-3.157-.44-1.735.037-3.629 1.364-4.954 1.325-1.325 3.215-1.802 4.952-1.364.259-1.771 1.425-3.338 3.156-4.054 1.738-.715 3.67-.432 5.1.637.917-1.54 2.592-2.542 4.47-2.542zm0 2.083c-1.502 0-2.791 1.073-3.066 2.552-.078.419-.403.748-.82.831-.42.09-.847-.098-1.076-.454-.819-1.258-2.423-1.756-3.809-1.183-1.385.572-2.166 2.056-1.856 3.527.088.416-.087.845-.442 1.083-.354.235-.812.233-1.166-.008-1.24-.852-2.906-.696-3.969.366-1.062 1.06-1.215 2.73-.365 3.969.242.352.244.815.009 1.169-.24.354-.665.531-1.084.44-1.472-.317-2.954.47-3.527 1.856-.575 1.385-.077 2.987 1.182 3.806.356.233.535.66.452 1.077-.084.419-.413.744-.83.82-1.477.276-2.55 1.565-2.55 3.065 0 1.502 1.073 2.79 2.55 3.065.42.08.746.402.83.82.083.42-.096.845-.454 1.078-1.259.819-1.757 2.42-1.182 3.808.573 1.386 2.054 2.169 3.53 1.856.416-.09.843.088 1.083.44.235.354.233.817-.009 1.169-.847 1.24-.695 2.908.365 3.97 1.06 1.061 2.731 1.211 3.969.363.354-.24.812-.244 1.166-.006.355.235.53.664.442 1.081-.31 1.471.471 2.954 1.858 3.53 1.384.572 2.986.076 3.807-1.184.193-.3.525-.475.873-.475.066 0 .133.006.204.02.416.082.741.413.819.832.277 1.477 1.564 2.55 3.066 2.55 1.502 0 2.79-1.073 3.067-2.55.077-.419.402-.75.819-.831.423-.092.843.096 1.077.454.816 1.258 2.42 1.758 3.808 1.183 1.385-.575 2.167-2.058 1.854-3.529-.087-.419.088-.846.442-1.083.354-.238.819-.234 1.169.008 1.235.852 2.906.7 3.968-.362 1.063-1.063 1.215-2.732.365-3.971-.242-.352-.244-.813-.008-1.169.235-.352.662-.527 1.083-.44 1.475.313 2.956-.47 3.53-1.856.574-1.387.078-2.987-1.182-3.808-.358-.233-.538-.658-.454-1.077.083-.419.412-.744.831-.821 1.475-.273 2.548-1.563 2.548-3.065 0-1.5-1.073-2.79-2.55-3.064-.419-.077-.746-.402-.83-.821-.083-.419.097-.844.455-1.077 1.258-.819 1.754-2.421 1.181-3.808-.575-1.388-2.052-2.167-3.529-1.855-.423.092-.848-.087-1.083-.44-.236-.355-.234-.818.008-1.168.85-1.237.698-2.908-.365-3.973-1.062-1.058-2.73-1.212-3.968-.362-.355.241-.813.241-1.171.006-.354-.238-.527-.665-.44-1.081.315-1.47-.469-2.952-1.856-3.527-1.392-.578-2.988-.073-3.806 1.183-.232.356-.644.542-1.077.454-.417-.083-.742-.412-.82-.831-.276-1.48-1.564-2.552-3.066-2.552zm6.25 25c2.298 0 4.167 1.87 4.167 4.167 0 2.298-1.87 4.167-4.167 4.167-2.298 0-4.167-1.87-4.167-4.167 0-2.298 1.87-4.167 4.167-4.167zm2.82-11.154c.407.408.407 1.067 0 1.475L17.405 34.071c-.204.202-.47.304-.737.304s-.534-.102-.738-.304c-.406-.408-.406-1.067 0-1.475l16.667-16.667c.408-.406 1.067-.406 1.475 0zm-2.82 13.238c-1.15 0-2.083.935-2.083 2.083 0 1.148.933 2.083 2.083 2.083 1.15 0 2.083-.935 2.083-2.083 0-1.148-.933-2.083-2.083-2.083zm-12.5-14.584c2.298 0 4.167 1.87 4.167 4.167 0 2.298-1.87 4.167-4.167 4.167-2.298 0-4.167-1.87-4.167-4.167 0-2.298 1.87-4.167 4.167-4.167zm0 2.084c-1.15 0-2.083.935-2.083 2.083 0 1.148.933 2.083 2.083 2.083 1.15 0 2.083-.935 2.083-2.083 0-1.148-.933-2.083-2.083-2.083z" transform="translate(361 664) translate(580 278) translate(100)"/>
                    </g>
                </g>
            </g>
        </g>
    </g>
</svg>
