<svg xmlns="http://www.w3.org/2000/svg" width="44" height="50" viewBox="0 0 44 50">
    <defs>
        <linearGradient id="z0z394ay7a" x1="11.719%" x2="75.176%" y1="86.391%" y2="0%">
            <stop offset="0%" stop-color="#FFB400"/>
            <stop offset="100%" stop-color="#FF0"/>
        </linearGradient>
    </defs>
    <g fill="none" fill-rule="evenodd">
        <g fill="url(#z0z394ay7a)" transform="translate(-1044 -788)">
            <g>
                <g>
                    <g>
                        <path d="M16.667 0c7.994 0 16.59 1.614 16.666 5.16v.048l.001 18.072C39.3 24.695 43.75 30.067 43.75 36.458 43.75 43.925 37.675 50 30.21 50c-5.6 0-10.417-3.418-12.476-8.276l-.024-.058h-1.042C8.637 41.666 0 40.037 0 36.458V5.208C0 1.628 8.638 0 16.667 0zm22.344 29.13L22.88 45.26c1.988 1.658 4.544 2.656 7.328 2.656 6.316 0 11.458-5.14 11.458-11.458 0-2.784-.999-5.34-2.656-7.327zM30.209 25C23.892 25 18.75 30.14 18.75 36.458c0 2.785 1 5.34 2.657 7.329l16.13-16.13C35.55 26 32.994 25 30.21 25zM2.083 32.91v3.547c0 .935 4.963 3.125 14.584 3.125h.364c-.238-1.003-.364-2.05-.364-3.125 0-.35.013-.698.04-1.042h-.04c-5.62 0-11.538-.798-14.584-2.505zm0-6.25v3.547c0 .935 4.963 3.125 14.584 3.125h.364c.36-1.516.975-2.935 1.797-4.207-.721.028-1.444.04-2.161.04-5.62 0-11.538-.798-14.584-2.504zm0-6.25v3.559l.004.035c.16.96 5.117 3.078 14.58 3.078 1.402 0 2.705-.046 3.908-.129 2.454-2.491 5.867-4.038 9.634-4.038.35 0 .698.014 1.042.04V20.41c-3.045 1.707-8.964 2.505-14.584 2.505-5.62 0-11.54-.798-14.585-2.505zm14.584-3.745c-5.62 0-11.538-.798-14.584-2.505v3.547c0 .74 3.107 2.267 9.17 2.87 1.602.161 3.406.255 5.414.255 9.62 0 14.583-2.19 14.583-3.125v-3.546c-3.046 1.706-8.963 2.504-14.583 2.504zm0-6.25c-5.62 0-11.538-.798-14.584-2.505v3.547c0 .935 4.963 3.125 14.584 3.125 9.62 0 14.583-2.19 14.583-3.125V7.912c-3.046 1.706-8.963 2.504-14.583 2.504zm0-8.333c-9.62 0-14.583 2.192-14.583 3.125 0 .935 4.962 3.125 14.583 3.125 9.62 0 14.583-2.19 14.583-3.125 0-.933-4.962-3.125-14.583-3.125z" transform="translate(361 664) translate(580 124) translate(103)"/>
                    </g>
                </g>
            </g>
        </g>
    </g>
</svg>
