<svg xmlns="http://www.w3.org/2000/svg" width="50" height="50" viewBox="0 0 50 50">
    <defs>
        <linearGradient id="44u72n8qqa" x1="13.502%" x2="83.045%" y1="84.044%" y2="0%">
            <stop offset="0%" stop-color="#FFB400"/>
            <stop offset="100%" stop-color="#FF0"/>
        </linearGradient>
    </defs>
    <g fill="none" fill-rule="evenodd">
        <g fill="url(#44u72n8qqa)" transform="translate(-751 -788)">
            <g>
                <g>
                    <g>
                        <path d="M49.315 13.476c.41.15.685.542.685.98V31.25c0 .275-.11.542-.304.738-1.475 1.477-6.7 6.65-8.03 7.967v1.711l1.042.001c.575 0 1.042.467 1.042 1.042v6.25c0 .575-.467 1.041-1.042 1.041h-12.5c-.575 0-1.041-.466-1.041-1.041v-6.25c0-.575.466-1.042 1.041-1.042h1.042v-8.35c0-.1.015-.2.044-.296.075-.254 1.873-6.283 3.31-8.518 1.073-1.663 2.665-1.934 3.765-1.463 1.198.51 2.169 2.015 1.641 4.22l-.62 2.711 3.32-3.32c.048-6.755 1.248-11 3.567-12.628 1.51-1.056 2.886-.602 3.038-.548zm-45.592.548c2.319 1.627 3.519 5.873 3.567 12.627l3.32 3.321-.622-2.718c-.525-2.198.445-3.703 1.643-4.213 1.102-.47 2.694-.2 3.765 1.463 1.437 2.235 3.235 8.264 3.31 8.518.03.096.044.196.044.296v8.35h1.042c.575 0 1.041.467 1.041 1.042v6.25c0 .575-.466 1.041-1.041 1.041h-12.5c-.575 0-1.042-.466-1.042-1.041v-6.25c0-.575.467-1.042 1.042-1.042h1.041v-1.731c-1.245-1.3-6.191-6.446-7.948-7.877C.14 31.862 0 31.564 0 31.25V14.456c0-.438.275-.83.685-.98.155-.054 1.53-.508 3.038.548zm37.944 29.727H31.25v4.167h10.417v-4.167zm-22.917 0H8.333v4.167H18.75v-4.167zM2.083 15.497V30.77c2.38 2.077 7.804 7.777 8.046 8.034.186.193.288.45.288.716l-.001 2.147h6.25V33.47c-.533-1.773-1.991-6.235-3.024-7.84-.363-.564-.838-.826-1.192-.672-.381.16-.68.8-.433 1.82l1.433 6.259c.104.454-.104.92-.51 1.146-.402.225-.913.154-1.242-.175l-6.186-6.186c-.193-.196-.304-.46-.304-.737 0-8.134-1.643-10.58-2.625-11.313-.179-.133-.348-.22-.5-.275zm45.834 0c-.152.054-.321.14-.5.275-.982.734-2.625 3.18-2.625 11.313 0 .277-.11.541-.305.737l-6.185 6.186c-.325.329-.835.4-1.242.175-.406-.225-.614-.692-.51-1.146l1.431-6.25c.248-1.03-.05-1.669-.431-1.83-.348-.153-.83.109-1.192.674-1.033 1.606-2.491 6.068-3.025 7.84v8.196h6.25V39.52c0-.277.113-.544.309-.74l.055-.054.096-.095c.88-.871 5.387-5.334 7.487-7.428l.387-.385v-15.32zM32.385.005L32.291 0c.043 0 .087.003.13.009l.043.007c.065.01.127.027.188.05l-.108-.033c.155.038.293.11.41.205l.01.01c.024.02.047.04.07.063l.038.042.034.04.02.026 6.25 8.333c.027.037.049.07.068.105l-.068-.104c.032.043.06.088.086.134l.038.08.012.031c.01.027.02.054.028.082.005.014.008.029.012.043.006.024.012.05.016.075.002.014.005.028.006.043.004.022.006.045.007.068l.002.056v.011c0 .12-.02.233-.056.34l-.013.034c-.01.025-.02.05-.032.074l-.02.04c-.014.026-.028.051-.044.076l-.016.024c-.018.025-.036.05-.055.073l-.019.022-13.267 15.308-.03.077c-.174.37-.548.601-.946.601H25c-.127 0-.25-.023-.366-.066l-.036-.015c-.025-.01-.05-.021-.073-.033l-.04-.022c-.023-.013-.046-.027-.069-.043l-.028-.02c-.024-.017-.048-.035-.07-.055l-.033-.029-.045-.045-.028-.031L10.67 10.059l-.034-.044c-.009-.01-.018-.022-.026-.034l.06.078c-.038-.044-.072-.091-.102-.14l-.026-.047c-.01-.016-.018-.032-.025-.047l-.032-.076-.012-.033c-.025-.073-.042-.15-.05-.228-.004-.023-.005-.047-.006-.07v-.042l-.001-.009c0-.019 0-.038.002-.057l-.001.066c0-.046.003-.09.008-.135l.007-.044c.004-.025.01-.05.016-.074l.012-.046.022-.064c.006-.018.014-.036.022-.054l.03-.064.02-.037c.023-.039.047-.075.074-.11L16.874.419l.014-.018c.017-.022.035-.043.053-.063l-.067.081c.028-.036.057-.07.089-.103.022-.024.047-.047.073-.069l.013-.01c.023-.02.047-.038.073-.055l.023-.015c.019-.013.038-.024.057-.035l.04-.02c.062-.031.118-.053.176-.07.073-.021.148-.035.225-.04l.047-.001h14.628c.022 0 .045.002.067.004zm-3.617 10.412h-7.594l3.853 11.411 3.741-11.41zm-9.79 0h-5.24l8.581 9.903-3.341-9.903zm17.284 0H30.96l-3.22 9.832 8.522-9.832zM17.216 3.433l-3.675 4.901h4.864l-1.189-4.9zm13.742-1.35H19.032l1.514 6.251h8.849l1.563-6.25zm1.813 1.334l-1.229 4.917h4.917l-3.688-4.917z" transform="translate(361 664) translate(290 124) translate(100)"/>
                    </g>
                </g>
            </g>
        </g>
    </g>
</svg>
