<svg xmlns="http://www.w3.org/2000/svg" width="50" height="50" viewBox="0 0 50 50">
    <defs>
        <linearGradient id="zfizd3jzka" x1="0%" x2="100%" y1="99.222%" y2=".778%">
            <stop offset="0%" stop-color="#FFB400"/>
            <stop offset="100%" stop-color="#FF0"/>
        </linearGradient>
    </defs>
    <g fill="none" fill-rule="evenodd">
        <g fill="url(#zfizd3jzka)" transform="translate(-461 -942)">
            <g>
                <g>
                    <g>
                        <path d="M45.833 0C48.131 0 50 1.869 50 4.167s-1.869 4.166-4.167 4.166c-.676 0-1.316-.162-1.881-.449l-7.064 8.969c.547.705.872 1.589.872 2.548 0 2.298-1.868 4.167-4.166 4.167s-4.167-1.869-4.167-4.167l.002-.087-8.2-2.65c-.74 1.165-2.042 1.94-3.52 1.94-1.13 0-2.156-.452-2.907-1.184L2.083 25.133V41.78l10.01-6.587c-.117-.383-.179-.789-.179-1.209 0-2.298 1.869-4.166 4.167-4.166 1.938 0 3.57 1.33 4.034 3.124h7.36c.464-1.795 2.097-3.124 4.035-3.124 1.163 0 2.215.478 2.972 1.248l7.341-4.282c-.102-.36-.156-.74-.156-1.133 0-2.298 1.868-4.167 4.166-4.167S50 23.354 50 25.651c0 2.298-1.869 4.167-4.167 4.167-1.155 0-2.202-.473-2.957-1.234l-7.35 4.285c.098.355.151.73.151 1.115 0 2.298-1.869 4.167-4.167 4.167-1.938 0-3.57-1.33-4.034-3.124h-7.36c-.464 1.795-2.097 3.124-4.035 3.124-1.129 0-2.154-.45-2.905-1.181L2.083 44.268v3.258h45.834c.575 0 1.041.467 1.041 1.042s-.466 1.041-1.041 1.041H1.042C.467 49.61 0 49.143 0 48.568V1.693C0 1.118.467.65 1.042.65s1.041.467 1.041 1.042v20.999l11.634-7.056c-.114-.38-.175-.782-.175-1.2 0-2.297 1.868-4.166 4.166-4.166s4.167 1.869 4.167 4.167c0 .083-.002.166-.007.248l8.125 2.621c.723-1.238 2.066-2.072 3.6-2.072.587 0 1.145.122 1.651.341l7.142-9.07c-.454-.667-.72-1.472-.72-2.338 0-2.298 1.87-4.167 4.167-4.167zM16.081 31.901c-1.15 0-2.084.935-2.084 2.083 0 .372.098.72.269 1.023h.002l.045.079c.368.589 1.022.982 1.768.982 1.15 0 2.083-.936 2.083-2.084 0-1.148-.933-2.083-2.083-2.083zm15.43 0c-1.15 0-2.084.935-2.084 2.083 0 1.148.933 2.084 2.083 2.084 1.15 0 2.084-.936 2.084-2.084 0-.369-.097-.716-.266-1.017-.005-.005-.008-.01-.012-.016l-.01-.023c-.363-.614-1.032-1.027-1.796-1.027zm14.322-8.333c-1.15 0-2.083.935-2.083 2.083 0 1.148.933 2.083 2.083 2.083 1.15 0 2.084-.935 2.084-2.083 0-1.148-.934-2.083-2.084-2.083zm-12.24-6.25c-1.15 0-2.083.935-2.083 2.083 0 1.148.934 2.083 2.084 2.083s2.083-.935 2.083-2.083c0-.657-.306-1.245-.784-1.627-.013-.006-.025-.015-.037-.024l-.025-.024c-.346-.257-.774-.408-1.237-.408zm-15.885-4.964c-1.15 0-2.083.935-2.083 2.083 0 .385.105.747.288 1.057.007.006.011.014.016.021l.015.029c.369.586 1.021.976 1.764.976 1.15 0 2.084-.935 2.084-2.083 0-1.148-.934-2.083-2.084-2.083zm28.125-10.27c-1.15 0-2.083.935-2.083 2.083 0 .549.213 1.05.562 1.422l.067.067c.037.03.072.06.104.093.362.313.835.501 1.35.501 1.15 0 2.084-.935 2.084-2.083 0-1.148-.934-2.084-2.084-2.084z" transform="translate(361 664) translate(0 278) translate(100)"/>
                    </g>
                </g>
            </g>
        </g>
    </g>
</svg>
