<svg xmlns="http://www.w3.org/2000/svg" width="55" height="50" viewBox="0 0 55 50">
    <defs>
        <linearGradient id="zhrcc2wjpa" x1="20.41%" x2="86.983%" y1="71.801%" y2="18.595%">
            <stop offset="0%" stop-color="#FFB400"/>
            <stop offset="100%" stop-color="#FF0"/>
        </linearGradient>
    </defs>
    <g fill="none" fill-rule="evenodd">
        <g fill="url(#zhrcc2wjpa)" transform="translate(-459 -788)">
            <g>
                <g>
                    <g>
                        <path d="M47.727 25c3.76 0 6.818 3.06 6.818 6.818v4.546c0 3.759-3.059 6.818-6.818 6.818h-2.272v5.682c0 .459-.278.875-.703 1.05-.14.056-.288.086-.434.086-.295 0-.586-.116-.804-.332l-6.484-6.486h-5.212c-3.759 0-6.818-3.06-6.818-6.818 0-.628.51-1.137 1.136-1.137.628 0 1.137.51 1.137 1.137 0 2.506 2.038 4.545 4.545 4.545H37.5c.302 0 .59.12.805.332l4.877 4.88v-4.076c0-.627.509-1.136 1.136-1.136h3.41c2.506 0 4.545-2.039 4.545-4.545v-4.546c0-2.507-2.039-4.545-4.546-4.545-.627 0-1.136-.51-1.136-1.137S47.1 25 47.727 25zM32.955 0c5.638 0 10.227 4.589 10.227 10.227v9.091c0 5.639-4.589 10.227-10.227 10.227h-9.757l-8.757 8.76c-.218.215-.51.331-.805.331-.145 0-.293-.03-.434-.086-.425-.175-.702-.59-.702-1.05v-7.955h-2.273C4.59 29.545 0 24.957 0 19.318v-9.09C0 4.587 4.589 0 10.227 0h22.728zm0 2.273H10.227c-4.386 0-7.954 3.568-7.954 7.954v9.091c0 4.387 3.568 7.955 7.954 7.955h3.41c.627 0 1.136.509 1.136 1.136v6.348l7.15-7.152c.213-.212.502-.332.804-.332h10.228c4.386 0 7.954-3.568 7.954-7.955v-9.09c0-4.387-3.568-7.955-7.954-7.955z" transform="translate(361 664) translate(0 124) translate(98)"/>
                    </g>
                </g>
            </g>
        </g>
    </g>
</svg>
