<svg xmlns="http://www.w3.org/2000/svg" width="142" height="30" viewBox="0 0 142 30">
    <g fill="none" fill-rule="evenodd">
        <g fill-rule="nonzero">
            <g>
                <path fill="#FFF" d="M71.337 20.096v-4.633c0-1.776-1.096-2.934-2.976-2.934-.94 0-1.958.31-2.663 1.313-.548-.85-1.331-1.313-2.506-1.313-.783 0-1.566.232-2.193 1.081v-.926h-1.645v7.412H61v-4.092c0-1.313.705-1.93 1.802-1.93 1.096 0 1.644.694 1.644 1.93v4.092h1.645v-4.092c0-1.313.783-1.93 1.801-1.93 1.097 0 1.645.694 1.645 1.93v4.092h1.801zm24.358-7.412h-2.663v-2.24h-1.645v2.24H89.9v1.467h1.488v3.397c0 1.698.705 2.702 2.585 2.702.705 0 1.488-.232 2.036-.54l-.47-1.39c-.47.309-1.018.386-1.41.386-.783 0-1.096-.463-1.096-1.235v-3.32h2.663v-1.467zm13.94-.155c-.94 0-1.566.464-1.957 1.081v-.926h-1.645v7.412h1.645v-4.17c0-1.235.548-1.93 1.566-1.93.313 0 .705.078 1.018.155l.47-1.544c-.313-.078-.783-.078-1.096-.078zm-21.067.772c-.783-.54-1.88-.772-3.055-.772-1.88 0-3.133.927-3.133 2.394 0 1.235.94 1.93 2.585 2.162l.783.077c.862.154 1.332.386 1.332.772 0 .54-.627.926-1.723.926-1.097 0-1.958-.386-2.507-.772l-.783 1.236c.862.617 2.037.926 3.211.926 2.193 0 3.446-1.004 3.446-2.393 0-1.313-1.018-2.008-2.584-2.24l-.783-.077c-.705-.077-1.253-.231-1.253-.694 0-.54.548-.85 1.41-.85.94 0 1.879.386 2.349.618l.705-1.313zm43.702-.772c-.94 0-1.566.464-1.958 1.081v-.926h-1.645v7.412h1.645v-4.17c0-1.235.548-1.93 1.567-1.93.313 0 .704.078 1.018.155l.47-1.544c-.314-.078-.784-.078-1.097-.078zm-20.99 3.86c0 2.24 1.567 3.861 3.995 3.861 1.096 0 1.88-.232 2.663-.85l-.784-1.312c-.626.463-1.253.695-1.958.695-1.331 0-2.27-.926-2.27-2.393 0-1.39.939-2.316 2.27-2.394.705 0 1.332.232 1.958.695l.784-1.312c-.784-.618-1.567-.85-2.663-.85-2.428 0-3.995 1.622-3.995 3.86zm15.194 0v-3.705h-1.644v.926c-.548-.695-1.332-1.08-2.35-1.08-2.114 0-3.76 1.62-3.76 3.86 0 2.239 1.646 3.86 3.76 3.86 1.097 0 1.88-.386 2.35-1.08v.926h1.644V16.39zm-6.03 0c0-1.312.861-2.393 2.271-2.393 1.332 0 2.271 1.004 2.271 2.394 0 1.312-.94 2.393-2.27 2.393-1.41-.077-2.272-1.08-2.272-2.393zm-19.658-3.86c-2.193 0-3.76 1.545-3.76 3.86 0 2.317 1.567 3.861 3.838 3.861 1.096 0 2.193-.309 3.054-1.004l-.783-1.158c-.626.463-1.41.772-2.193.772-1.018 0-2.036-.463-2.271-1.775h5.56v-.618c.079-2.393-1.33-3.938-3.445-3.938zm0 1.39c1.018 0 1.723.618 1.88 1.776h-3.917c.157-1.004.862-1.776 2.037-1.776zm40.804 2.47V9.75h-1.645v3.86c-.548-.695-1.331-1.08-2.35-1.08-2.114 0-3.758 1.62-3.758 3.86 0 2.239 1.644 3.86 3.759 3.86 1.096 0 1.88-.386 2.35-1.08v.926h1.644V16.39zm-6.03 0c0-1.312.861-2.393 2.27-2.393 1.332 0 2.272 1.004 2.272 2.394 0 1.312-.94 2.393-2.271 2.393-1.41-.077-2.271-1.08-2.271-2.393zm-54.98 0v-3.705h-1.646v.926c-.548-.695-1.331-1.08-2.35-1.08-2.114 0-3.759 1.62-3.759 3.86 0 2.239 1.645 3.86 3.76 3.86 1.096 0 1.88-.386 2.35-1.08v.926h1.644V16.39zm-6.11 0c0-1.312.862-2.393 2.271-2.393 1.332 0 2.272 1.004 2.272 2.394 0 1.312-.94 2.393-2.272 2.393-1.41-.077-2.27-1.08-2.27-2.393z" transform="translate(-131) translate(131)"/>
                <g>
                    <path fill="#C1C1C1" d="M17.531 3H30.554V26.5H17.531z" transform="translate(-131) translate(131)"/>
                    <path fill="#949494" d="M18.383 15c0-4.792 2.23-9.042 5.66-11.792-2.52-2-5.701-3.208-9.171-3.208C6.65 0 0 6.708 0 15s6.65 15 14.872 15c3.47 0 6.65-1.208 9.17-3.208-3.428-2.709-5.66-7-5.66-11.792z" transform="translate(-131) translate(131)"/>
                    <path fill="#FFF" d="M48.085 15c0 8.292-6.651 15-14.872 15-3.47 0-6.65-1.208-9.17-3.208 3.47-2.75 5.659-7 5.659-11.792s-2.231-9.042-5.66-11.792c2.52-2 5.701-3.208 9.171-3.208 8.22 0 14.872 6.75 14.872 15z" transform="translate(-131) translate(131)"/>
                </g>
            </g>
        </g>
    </g>
</svg>
