<svg xmlns="http://www.w3.org/2000/svg" width="132" height="60" viewBox="0 0 132 60">
    <g fill="none" fill-rule="evenodd">
        <g fill="#4B4B5F" fill-rule="nonzero">
            <g>
                <g>
                    <path d="M113.142 22.873c-6.346.41-3.497 8.991 3.519 8.538 6.862-.443 3.242-8.974-3.52-8.538z" transform="translate(-91 -4756) translate(91 4233) translate(0 523)"/>
                    <path d="M109.972 18.153c-11.657 0-21.106 9.367-21.106 20.923 0 11.556 9.45 20.924 21.106 20.924 11.656 0 21.105-9.368 21.105-20.924s-9.449-20.923-21.105-20.923zm0 39.654c-7.64.001-14.529-4.56-17.454-11.557-2.924-6.998-1.309-15.053 4.093-20.409 5.402-5.356 13.526-6.959 20.585-4.06 7.059 2.898 11.661 9.726 11.661 17.3 0 10.341-8.455 18.724-18.885 18.726zm-.637-54.262c-5.01 3.755-4.14 9.513-4.14 9.513S102.047 4.954 97.957 0c-.551 6.378 1.465 14.828 1.465 14.828s-2.561-5.24-8.837-5.533c5.205 2.966 7.225 8.309 7.687 9.742 3.101-1.898 6.649-2.962 10.291-3.087-.41-1.335-1.87-6.958.773-12.405z" transform="translate(-91 -4756) translate(91 4233) translate(0 523)"/>
                    <path d="M1.977 41.254v4.348H.151V34.4h3.845c1.304 0 2.284.307 2.94.92.656.615.987 1.455.991 2.523 0 1.059-.336 1.892-1.01 2.5-.672.607-1.644.91-2.915.91H1.977zm4.085-3.411c0-.635-.179-1.119-.537-1.453-.357-.333-.931-.5-1.72-.499H1.976v3.887h1.827c1.504 0 2.257-.645 2.258-1.935zm9.405 7.759l-2.82-4.474H11.35v4.474H9.523V34.4h3.99c1.292 0 2.272.311 2.94.935.669.624 1.002 1.45 1.001 2.477 0 .872-.248 1.592-.745 2.158-.496.566-1.212.925-2.147 1.078l2.973 4.554h-2.068zm-4.118-5.76h2.016c1.475 0 2.212-.645 2.211-1.935 0-.613-.179-1.092-.537-1.436-.358-.344-.915-.516-1.674-.516h-2.016v3.887zm14.501 3.332h-4.775l-.866 2.428h-1.954l4.166-11.027h2.1l4.149 11.027h-1.956l-.864-2.428zm-.514-1.395l-1.874-5.235-1.875 5.235h3.75zm12.562-6.491c.897.656 1.528 1.607 1.779 2.683h-1.923c-.24-.596-.663-1.102-1.21-1.445-.597-.37-1.29-.557-1.994-.54-.667-.01-1.323.16-1.9.491-.563.33-1.02.815-1.313 1.395-.326.664-.486 1.396-.464 2.134-.021.763.144 1.52.48 2.206.3.592.771 1.08 1.354 1.404.62.334 1.32.503 2.026.49.888.016 1.75-.297 2.417-.876.671-.576 1.077-1.367 1.217-2.372h-4.154v-1.333H39.9v1.729c-.12.806-.424 1.574-.889 2.246-.471.678-1.104 1.231-1.841 1.611-.81.412-1.71.619-2.62.602-1.021.02-2.029-.231-2.917-.73-.833-.475-1.512-1.177-1.954-2.023-.919-1.868-.919-4.05 0-5.919.44-.842 1.116-1.541 1.946-2.015.887-.493 1.891-.742 2.908-.721 1.347 0 2.469.327 3.365.983zm14.9-.713v11.027h-1.843v-8.266l-3.22 8.266h-1.601l-3.238-8.266v8.266h-1.825V34.575h2.21l3.685 8.805 3.62-8.805h2.212zm8.94 8.6H56.97l-.866 2.427h-1.96l4.165-11.027h2.098l4.15 11.027h-1.955l-.865-2.428zm-.512-1.396l-1.875-5.235-1.875 5.235h3.75zm11.15-7.38v1.46H69.22v9.743h-1.843v-9.743h-3.139v-1.46h8.139zm2.804 0v11.203h-1.826V34.4h1.826zm10.334.936c.927.711 1.583 1.713 1.859 2.842h-1.94c-.247-.654-.692-1.217-1.273-1.612-.634-.411-1.381-.62-2.139-.595-.636-.01-1.26.16-1.802.49-.541.344-.974.83-1.25 1.404-.608 1.354-.608 2.9 0 4.254.275.575.709 1.062 1.25 1.405.541.33 1.166.5 1.802.49.758.025 1.505-.182 2.14-.593.577-.392 1.021-.948 1.273-1.595h1.939c-.275 1.126-.93 2.125-1.859 2.831-.918.694-2.071 1.04-3.46 1.04-.994.02-1.974-.23-2.836-.722-.818-.476-1.48-1.176-1.906-2.016-.899-1.872-.899-4.046 0-5.918.428-.84 1.089-1.543 1.906-2.024.86-.496 1.841-.748 2.836-.73 1.388.002 2.541.351 3.46 1.05zm10.476 5.919v4.348h-1.825V34.4h3.845c1.302 0 2.282.307 2.94.92.659.615.989 1.455.991 2.523 0 1.059-.336 1.892-1.01 2.5-.672.607-1.644.91-2.914.91H95.99zm4.091-3.411c0-.635-.179-1.119-.537-1.453-.357-.333-.932-.5-1.722-.499H95.99v3.887h1.827c1.51 0 2.264-.645 2.264-1.935zm4.993 6.347h3.91v1.412h-5.736V34.4h1.826v9.79zm12.273-1.016h-4.774l-.865 2.428h-1.956l4.168-11.027h2.097l4.151 11.027h-1.956l-.865-2.428zm-.512-1.395l-1.875-5.235-1.875 5.235h3.75zm10.665-7.38l-3.764 7.125v4.078h-1.839v-4.078l-3.78-7.124h2.116l2.596 5.188 2.595-5.188h2.076z" transform="translate(-91 -4756) translate(91 4233) translate(0 523)"/>
                </g>
            </g>
        </g>
    </g>
</svg>
