<?xml version="1.0" standalone="yes"?>
<svg xmlns="http://www.w3.org/2000/svg" width="550" height="616">
<path style="fill:#180a11; stroke:none;" d="M0 0L0 59L39 40.2469L118 1L82 0L0 0z"/>
<path style="fill:#37afc0; stroke:none;" d="M118 0L119 1L118 0z"/>
<path style="fill:#f7cf3e; stroke:none;" d="M70 438C60.1733 439.906 46.7421 441.284 39.044 448.214C32.9571 453.693 30.5009 465.334 37.3935 471.392C44.0788 477.268 62.5282 476 71 476C99.8461 476 128.27 474.299 157 473.039C237.543 469.507 317.828 457.749 398 449.166C439.932 444.677 488.178 445.848 528 431L527 433C536.953 425.755 535.282 412.117 524.996 405.878C518.139 401.719 507.76 402 500 402C502.463 393.666 501.495 383.676 502.09 375C503.185 359.007 503.994 342.996 505.09 327C509.054 269.108 510.672 210.766 516.17 153C518.195 131.715 518.629 110.324 520.089 89C520.588 81.7195 524.506 67.9868 521.397 61.2786C518.688 55.435 499.893 53.684 494 52C470.1 45.1707 446.055 38.6339 422 32.3712C415.934 30.7919 402.342 24.2237 396.39 26.6436C392.127 28.3766 388.858 37.1616 386.769 41C380.264 52.9557 372.8 64.3348 365.8 76L308 172C299.119 186.771 290.738 207.325 278 219L282.089 259L286 309L285 309C281.826 285.541 269.851 260.426 262.169 238C259.393 229.897 253.678 218.491 254 210L252 210L253 208L249 194L247 194L246 186L248 180L273 211C262.587 192.297 247.865 175.405 235.421 158C210.295 122.856 184.713 88.0245 159.424 53C150.041 40.0039 140.621 27.0344 131.29 14C128.781 10.4951 124.513 1.75781 119.907 0.993774C115.261 0.223206 108.027 5.73956 104 7.75311L64 27.5857C48.3583 35.3724 32.6316 42.9373 17 50.7531C12.5554 52.9754 2.34731 55.8844 0.773148 61.1049C-1.64347 69.1194 4.32376 83.8061 5.75 92C10.2821 118.038 15.1907 144.049 20.1968 170C37.4051 259.208 52.7025 348.805 70 438z"/>
<path style="fill:#180a11; stroke:none;" d="M121 0L154.576 47L227.576 148L263.116 197L280 219C306.538 171.154 336.597 124.669 365.189 78C372.488 66.0861 379.965 54.2514 386.694 42C389.022 37.7622 391.935 29.4879 396.379 27.118C401.865 24.1927 416.209 31.1591 422 32.6258C446.093 38.728 470.092 45.4968 494 52.2901C500.334 54.0898 518.601 55.5136 521.397 62.1335C524.334 69.0892 520.602 82.5224 520.089 90C518.629 111.326 517.55 132.677 516.089 154C512.164 211.317 509.014 268.686 505.09 326C503.412 350.502 505.689 378.104 500 402C508.128 402 517.946 401.871 524.999 406.482C541.027 416.96 531.325 433.433 517 439L519 457C532.502 461.312 535.486 476.14 529.543 488C526.305 494.462 519.779 499.487 523.603 507.721C525.179 511.115 531.032 511.842 534 513.764C541.461 518.595 546.643 524.387 549 533L550 533L550 0L121 0z"/>
<path style="fill:#37afc0; stroke:none;" d="M114 2L115 3L114 2M112 3L113 4L112 3z"/>
<path style="fill:#960edd; stroke:none;" d="M110 4L111 5L110 4z"/>
<path style="fill:#37afc0; stroke:none;" d="M108 5L109 6L108 5M125 6L126 7L125 6M102 8L103 9L102 8M100 9L101 10L100 9z"/>
<path style="fill:#960edd; stroke:none;" d="M96 11L97 12L96 11z"/>
<path style="fill:#37afc0; stroke:none;" d="M94 12L95 13L94 12z"/>
<path style="fill:#960edd; stroke:none;" d="M92 13L93 14L92 13z"/>
<path style="fill:#37afc0; stroke:none;" d="M90 14L91 15L90 14M133 17L134 18L133 17M82 18L83 19L82 18M80 19L81 20L80 19M74 22L75 23L74 22M70 24L71 25L70 24M138 24L139 25L138 24M68 25L69 26L68 25M64 27L65 28L64 27M403 27L404 28L403 27M62 28L63 29L62 28z"/>
<path style="fill:#960edd; stroke:none;" d="M58 30L59 31L58 30z"/>
<path style="fill:#37afc0; stroke:none;" d="M392 31L393 32L392 31M52 33L53 34L52 33M50 34L51 35L50 34M429 34L430 35L429 34M146 35L147 36L146 35M389 36L390 37L389 36M40 39L41 40L40 39M38 40L39 41L38 40M151 42L152 43L151 42M462 43L463 44L462 43M384 45L385 46L384 45M154 46L155 47L154 46M484 49L485 50L484 49M380 52L381 53L380 52M159 53L160 54L159 53M506 55L507 56L506 55M0 59L1 60L0 59z"/>
<path style="fill:#9b6c09; stroke:none;" d="M68 62C71.5059 90.709 85.5464 120.208 93.588 148C111.734 210.712 130.554 273.165 148.139 336C154.468 358.615 168.191 375.244 179.995 395C182.788 399.674 187.616 413.353 193 414L194 425L195 425C192.727 372.065 174.179 319.883 170 267L257.91 362L298 404L298 398C307.219 398.904 317.539 378.765 322.424 372C337.314 351.381 353.111 331.35 368.373 311C375.182 301.922 384.575 292.468 389 282L390 282L390 300L391 300C391.017 278.281 404.048 252.399 411.308 232C422.341 201.001 431.261 169.217 441.667 138C447.761 119.716 457.185 100.06 460 81L459 81C445.829 102.339 428.917 121.942 413.873 142C386.405 178.625 359.096 215.373 331.627 252L303.127 290C294.217 301.88 286.691 309.02 287 324L286 324L277 318L276 318L275 320L275 315L274 315L273 318L267 319L266 313L265 313L256 308L256 312L255 312L253 308L250 311L249 306L248 306L245 307L247 304L245 305L246 302L245 302L241 304L243 301L240 300L241 302L239 299C230.323 298.818 200.639 291.883 200 282L197 283L196 274L194 271L183 263L184 260C181.307 259.64 181.62 258.559 182 256L179 257L164.061 231L138.092 187L89.8603 102L68 62z"/>
<path style="fill:#180a11; stroke:none;" d="M0 63L0 616L141 616L141 615C115.971 615 86.8713 614.192 63 605.921C52.0758 602.135 40.7832 593.808 38.1327 582C34.4212 565.465 48.664 559.481 57.3966 549.367C60.2127 546.105 59.0297 538.607 56 536L56 535L65 537L66 530L65 530C62.238 533.12 60.0864 533.751 56 533C50.5905 533.518 47.5954 526.341 45.9506 522C42.0319 511.658 43.8668 501.727 55 497C54.431 492.498 55.4257 483.206 52.142 479.854C46.8977 474.501 38.5617 475.151 34.804 466.985C25.1805 446.072 57.1051 441.336 70 438L48.8032 324L22.8032 184L8.25 105L0 63z"/>
<path style="fill:#960edd; stroke:none;" d="M167 64L168 65L167 64z"/>
<path style="fill:#37afc0; stroke:none;" d="M169 67L170 68L169 67M521 70L522 71L521 70M172 71L173 72L172 71M177 78L178 79L177 78M3 79L4 80L3 79z"/>
<path style="fill:#960edd; stroke:none;" d="M180 82L181 83L180 82z"/>
<path style="fill:#37afc0; stroke:none;" d="M361 83L362 84L361 83M520.333 85.6667L520.667 86.3333L520.333 85.6667M358 88L359 89L358 88M185 89L186 90L185 89M355 93L356 94L355 93M352 98L353 99L352 98z"/>
<path style="fill:#960edd; stroke:none;" d="M193 100L194 101L193 100z"/>
<path style="fill:#37afc0; stroke:none;" d="M349 103L350 104L349 103M8 106L9 107L8 106M198 107L199 108L198 107M343 113L344 114L343 113M203 114L204 115L203 114M10 117L11 118L10 117M206 118L207 119L206 118M340 118L341 119L340 118M211 125L212 126L211 125M334 128L335 129L334 128M214 129L215 130L214 129M331 133L332 134L331 133M219 136L220 137L219 136M328 138L329 139L328 138M325 143L326 144L325 143M227 147L228 148L227 147M516 150L517 151L516 150M235 158L236 159L235 158M316 158L317 159L316 158M314 161L315 162L314 161M313 163L314 164L313 163M311 166L312 167L311 166z"/>
<path style="fill:#960edd; stroke:none;" d="M515 166L516 167L515 166z"/>
<path style="fill:#37afc0; stroke:none;" d="M20 171L21 172L20 171M245 172L246 173L245 172M248 176L249 177L248 176z"/>
<path style="fill:#9b6c09; stroke:none;" d="M248 180L246 186L247 194L249 194L252 210L254 210C253.163 219.688 260.254 233.774 263.586 243C271.234 264.171 280.399 286.991 285 309L286 309C286 288.728 283.097 268.169 281.17 248C280.327 239.178 281.635 228.314 278.312 220C273.282 207.417 258.85 187.987 248 180z"/>
<path style="fill:#37afc0; stroke:none;" d="M302 181L303 182L302 181M514 181L515 182L514 181M253 183L254 184L253 183M299 186L300 187L299 186M23 187L24 188L23 187M256 187L257 188L256 187M296 191L297 192L296 191M24 192L25 193L24 192M293 196L294 197L293 196M513 196L514 197L513 196M264 198L265 199L264 198M269 205L270 206L269 205M273 211L274 212L273 211M512 211L512 214L513 214L512 211z"/>
<path style="fill:#f7cf3e; stroke:none;" d="M273 212L274 213L273 212M274 213L275 214L274 213M275.333 214.667L275.667 215.333L275.333 214.667M276 216L277 217L276 216M277 217L278 218L277 217z"/>
<path style="fill:#37afc0; stroke:none;" d="M278 218L279 219L278 218M511 227L512 228L511 227M510 243L511 244L510 243M35 252L36 253L35 252M36 257L37 258L36 257M509 258L510 259L509 258M37 262L38 263L37 262z"/>
<path style="fill:#960edd; stroke:none;" d="M170 267L180.586 336L198 441C260.666 441 323.579 429.926 386 425L390 283C376.166 293.612 365.705 313.836 355.579 328C345.444 342.175 336.014 357.166 325.475 371C316.882 382.28 306.084 392.686 299 405L298 405C277.004 375.193 246.64 350.044 222.17 323C210.602 310.215 198.808 297.647 187.089 285C181.471 278.938 176.799 271.803 170 267z"/>
<path style="fill:#37afc0; stroke:none;" d="M508 275L509 276L508 275z"/>
<path style="fill:#180a11; stroke:none;" d="M389 282L390 283L389 282z"/>
<path style="fill:#f7cf3e; stroke:none;" d="M199 287L200 288L199 287z"/>
<path style="fill:#37afc0; stroke:none;" d="M507 290L508 291L507 290z"/>
<path style="fill:#f7cf3e; stroke:none;" d="M233 301L234 302L233 301M236.333 302.667L236.667 303.333L236.333 302.667z"/>
<path style="fill:#180a11; stroke:none;" d="M374 302L375 303L374 302z"/>
<path style="fill:#f7cf3e; stroke:none;" d="M238 303L239 304L238 303z"/>
<path style="fill:#9b6c09; stroke:none;" d="M254 304L252 305L252 306L254 304z"/>
<path style="fill:#180a11; stroke:none;" d="M371 306L372 307L371 306z"/>
<path style="fill:#9b6c09; stroke:none;" d="M389 306L389 320L390 320L389 306z"/>
<path style="fill:#37afc0; stroke:none;" d="M506.333 306.667L506.667 307.333L506.333 306.667z"/>
<path style="fill:#180a11; stroke:none;" d="M368 310L369 311L368 310z"/>
<path style="fill:#f7cf3e; stroke:none;" d="M252 311L253 312L252 311M257 312L259 314L257 312z"/>
<path style="fill:#9b6c09; stroke:none;" d="M269 313L273 315L273 314L269 313M267 314L268 315L267 314z"/>
<path style="fill:#180a11; stroke:none;" d="M365 314L366 315L365 314z"/>
<path style="fill:#f7cf3e; stroke:none;" d="M262 315L261 317L262 315M265.333 316.667L265.667 317.333L265.333 316.667z"/>
<path style="fill:#9b6c09; stroke:none;" d="M282 317L283 320L284 320L285 317L282 317z"/>
<path style="fill:#180a11; stroke:none;" d="M363 317L364 318L363 317z"/>
<path style="fill:#f7cf3e; stroke:none;" d="M271.333 318.667L271.667 319.333L271.333 318.667z"/>
<path style="fill:#180a11; stroke:none;" d="M362 318L363 319L362 318z"/>
<path style="fill:#f7cf3e; stroke:none;" d="M279 321L279 323L281 323L281 321L279 321z"/>
<path style="fill:#180a11; stroke:none;" d="M360 321L361 322L360 321z"/>
<path style="fill:#9b6c09; stroke:none;" d="M48 322L49 323L48 322z"/>
<path style="fill:#180a11; stroke:none;" d="M359 322L360 323L359 322z"/>
<path style="fill:#f7cf3e; stroke:none;" d="M281 325L282 326L281 325z"/>
<path style="fill:#180a11; stroke:none;" d="M357 325L358 326L357 325z"/>
<path style="fill:#f7cf3e; stroke:none;" d="M287.333 326.667L287.667 327.333L287.333 326.667z"/>
<path style="fill:#180a11; stroke:none;" d="M356 326L357 327L356 326z"/>
<path style="fill:#37afc0; stroke:none;" d="M49 327L50 328L49 327z"/>
<path style="fill:#180a11; stroke:none;" d="M355 328L356 329L355 328M354 329L355 330L354 329M353 330L354 331L353 330M352 332L353 333L352 332M351 333L352 334L351 333z"/>
<path style="fill:#9b6c09; stroke:none;" d="M388 333L388 347L389 347L388 333z"/>
<path style="fill:#180a11; stroke:none;" d="M350.333 334.667L350.667 335.333L350.333 334.667M349 336L350 337L349 336M348 337L349 338L348 337M347.333 338.667L347.667 339.333L347.333 338.667z"/>
<path style="fill:#37afc0; stroke:none;" d="M504 338L505 339L504 338z"/>
<path style="fill:#180a11; stroke:none;" d="M346 340L347 341L346 340M345 341L346 342L345 341M344.333 342.667L344.667 343.333L344.333 342.667M343 344L344 345L343 344M342 345L341 348L342 345M340 348L338 352L340 348M337 352C328.08 363.066 320.022 374.749 311.349 386C307.785 390.623 304.201 397.34 298 398L298 405C309.854 395.412 321.32 378.885 329.424 366C331.961 361.968 337.406 356.89 337 352z"/>
<path style="fill:#37afc0; stroke:none;" d="M503 354L504 355L503 354M503 356L504 357L503 356z"/>
<path style="fill:#9b6c09; stroke:none;" d="M387 362L387 374L388 374L387 362z"/>
<path style="fill:#37afc0; stroke:none;" d="M502 371L503 372L502 371M501 386L502 387L501 386z"/>
<path style="fill:#9b6c09; stroke:none;" d="M386 392L386 407L387 407L386 392z"/>
<path style="fill:#37afc0; stroke:none;" d="M511 402L512 403L511 402M517 403L518 404L517 403z"/>
<path style="fill:#9b6c09; stroke:none;" d="M497 409L497 410L516 405C508.964 402.048 502.324 404.297 497 409z"/>
<path style="fill:#37afc0; stroke:none;" d="M529 409L530 410L529 409M531 411L532 412L531 411z"/>
<path style="fill:#960edd; stroke:none;" d="M67 424L68 425L67 424z"/>
<path style="fill:#9b6c09; stroke:none;" d="M381 425L381 426L385 426L381 425M195 426L195 432L196 432L195 426M371 426L371 427L376 427L371 426M362 427L362 428L366 428L362 427M352 428L352 429L356 429L352 428M341 429L341 430L347 430L341 429M332 430L332 431L336 431L332 430M321 431L321 432L326 432L321 431M41 473C43.8593 477.548 48.9829 477.896 54 478C55.9938 487.561 72.3102 485 80 485C107.067 485 134.132 483.456 161 480.285C191.598 476.675 226.245 475.243 257 478.17C281.738 480.524 310.305 486.11 335 482.572C375.839 476.721 412.896 457.584 454 451.87C466.596 450.119 480.399 447.661 493 450L498 458L500 466L503 466L502 469C504.972 470.783 503.579 475.789 504 480C504.441 484.405 505.751 498.619 505 502C504.117 505.973 502.909 508.382 506 509C503.286 514.574 503.638 522.744 500.062 527.607C496.075 533.028 483.293 535.074 477 536L477 537C491.09 535.879 506.453 531.089 520 527.087C524.15 525.861 531.813 523.139 532.338 518.003C532.852 512.967 526.143 512.419 523.603 509.502C520.813 506.298 521.51 500.007 521 496C507.017 499.99 504.204 464.482 519 464L520 458L520 457C516.306 454.605 514.543 443.093 517.607 439.499C520.795 435.761 525.387 435.702 528 431C468.009 447.037 403.55 447.9 342 455.285C284.777 462.151 227.445 468.156 170 472.09C126.946 475.038 84.0046 478.464 41 473M196 432L196 438L197 438L196 432M310 432L310 433L315 433L310 432M298 433L298 434L303 434L298 433z"/>
<path style="fill:#37afc0; stroke:none;" d="M527 433L528 434L527 433z"/>
<path style="fill:#9b6c09; stroke:none;" d="M287 434L287 435L292 435L287 434z"/>
<path style="fill:#f7cf3e; stroke:none;" d="M526 434L527 435L526 434z"/>
<path style="fill:#9b6c09; stroke:none;" d="M275 435L275 436L280 436L275 435z"/>
<path style="fill:#f7cf3e; stroke:none;" d="M525 435L526 436L525 435z"/>
<path style="fill:#9b6c09; stroke:none;" d="M264 436L264 437L268 437L264 436z"/>
<path style="fill:#f7cf3e; stroke:none;" d="M522 436L523 437L522 436z"/>
<path style="fill:#37afc0; stroke:none;" d="M523 436L524 437L523 436z"/>
<path style="fill:#9b6c09; stroke:none;" d="M252 437L252 438L257 438L252 437z"/>
<path style="fill:#f7cf3e; stroke:none;" d="M520 437L521 438L520 437z"/>
<path style="fill:#9b6c09; stroke:none;" d="M197 438L197 441L198 441L197 438M239 438L239 439L244 439L239 438z"/>
<path style="fill:#f7cf3e; stroke:none;" d="M517 438L518 439L517 438z"/>
<path style="fill:#37afc0; stroke:none;" d="M518 438L519 439L518 438z"/>
<path style="fill:#9b6c09; stroke:none;" d="M227 439L227 440L230 440L227 439z"/>
<path style="fill:#f7cf3e; stroke:none;" d="M516 439L519 457L516 439z"/>
<path style="fill:#37afc0; stroke:none;" d="M58 440L59 441L58 440z"/>
<path style="fill:#9b6c09; stroke:none;" d="M212 440L212 441L217 441L212 440z"/>
<path style="fill:#37afc0; stroke:none;" d="M54 441L55 442L54 441z"/>
<path style="fill:#9b6c09; stroke:none;" d="M198 441L198 442L204 442L198 441z"/>
<path style="fill:#37afc0; stroke:none;" d="M517 441L518 442L517 441z"/>
<path style="fill:#9b6c09; stroke:none;" d="M57 446L57 447L72 448L73 447C69.9348 439.799 62.6662 443.491 57 446z"/>
<path style="fill:#f7cf3e; stroke:none;" d="M55 481L54 481L56 503C70.6682 502.948 68.0375 529.418 65 539L58 536C58.1547 539.602 59.8546 544.481 57.9684 547.79C55.2276 552.598 47.9509 555.711 44.1852 560.001C35.8576 569.488 34.8838 586.773 45.1049 595.506C52.6625 601.963 67.4218 603.792 77 605.13C100.659 608.436 124.13 609 148 609C243.741 609 339.532 596.11 434 580.754C461.926 576.214 490.911 574.302 518 565.656C526.977 562.79 540.828 559.346 546.273 550.995C553.89 539.312 548.398 523.522 538 515.927C534.146 513.112 527.696 511.984 524.603 508.49C522.076 505.635 522.676 499.64 522 496L521 496C521.216 499.969 520.657 506.128 523.024 509.502C525.202 512.607 532.419 513.105 531.824 518.003C531.255 522.69 523.81 525.547 520 526.783C506.496 531.166 491.082 535.181 477 537L477 536C483.138 535.465 495.963 533.375 500.062 528.351C503.672 523.927 504.019 514.503 506 509C499.574 500.259 511.205 476.87 502 469L503 466L500 466L498 458L493 450C480.516 447.028 465.556 450.124 453 451.87C413.157 457.409 377.339 474.947 338 481.916C312.153 486.495 283.012 479.872 257 478.09C225.856 475.955 194.113 478.677 163 480.039C136.555 481.197 110.56 485 84 485C75.8104 485 61.1171 487.247 55 481z"/>
<path style="fill:#960edd; stroke:none;" d="M34 453L35 454L34 453z"/>
<path style="fill:#37afc0; stroke:none;" d="M518 453L519 454L518 453z"/>
<path style="fill:#f7cf3e; stroke:none;" d="M520 457L521 458L520 457z"/>
<path style="fill:#37afc0; stroke:none;" d="M521 457L522 458L521 457M33 458L34 459L33 458z"/>
<path style="fill:#960edd; stroke:none;" d="M518 458L519 464L515 464L523 492L526 491L524 494C535.077 484.503 534.472 460.983 518 458z"/>
<path style="fill:#9b6c09; stroke:none;" d="M521 458L521 459L524 460L521 458z"/>
<path style="fill:#f7cf3e; stroke:none;" d="M523 458L524 459L523 458M524 459L525 460L524 459z"/>
<path style="fill:#9b6c09; stroke:none;" d="M525 460L528 463L525 460z"/>
<path style="fill:#37afc0; stroke:none;" d="M526 460L527 461L526 460M527 461L528 462L527 461z"/>
<path style="fill:#f7cf3e; stroke:none;" d="M528.333 462.667L528.667 463.333L528.333 462.667M501 464L502 465L501 464z"/>
<path style="fill:#180a11; stroke:none;" d="M526 491L523 492C520.187 482.254 513.435 475.803 516 465C505.992 463.475 506.341 505.846 521.941 495.171C523.674 493.984 524.737 492.632 526 491z"/>
<path style="fill:#f7cf3e; stroke:none;" d="M529 464L530 465L529 464z"/>
<path style="fill:#9b6c09; stroke:none;" d="M529 465L530 466L529 465z"/>
<path style="fill:#37afc0; stroke:none;" d="M530 465L531 466L530 465z"/>
<path style="fill:#f7cf3e; stroke:none;" d="M530 466L531 467L530 466z"/>
<path style="fill:#9b6c09; stroke:none;" d="M530 467L531 468L530 467z"/>
<path style="fill:#37afc0; stroke:none;" d="M531 467L532 468L531 467z"/>
<path style="fill:#f7cf3e; stroke:none;" d="M531.333 468.667L531.667 469.333L531.333 468.667z"/>
<path style="fill:#37afc0; stroke:none;" d="M35 469L36 470L35 469z"/>
<path style="fill:#9b6c09; stroke:none;" d="M531.333 470.667L531.667 471.333L531.333 470.667z"/>
<path style="fill:#37afc0; stroke:none;" d="M532 471L533 472L532 471z"/>
<path style="fill:#9b6c09; stroke:none;" d="M480 472L480 473L485 473L480 472z"/>
<path style="fill:#f7cf3e; stroke:none;" d="M532.333 472.667L532.667 473.333L532.333 472.667z"/>
<path style="fill:#9b6c09; stroke:none;" d="M478 473L477 475L478 473z"/>
<path style="fill:#960edd; stroke:none;" d="M479 473L480 474L479 473z"/>
<path style="fill:#180a11; stroke:none;" d="M472 486L473 486L484 474C476.602 471.439 472.891 480.076 472 486z"/>
<path style="fill:#960edd; stroke:none;" d="M471 494L478 498.667L493 502L491 505C498.229 499.628 500.918 490.214 496.558 482.004C494.306 477.764 488.488 472.224 483.174 473.988C479.288 475.277 475.773 480.783 473.558 484C471.356 487.198 471.042 490.233 471 494z"/>
<path style="fill:#9b6c09; stroke:none;" d="M486.667 473.333L487.333 473.667L486.667 473.333M489 474L490 475L489 474z"/>
<path style="fill:#37afc0; stroke:none;" d="M532 474L533 475L532 474z"/>
<path style="fill:#f7cf3e; stroke:none;" d="M42 475L43 476L42 475z"/>
<path style="fill:#9b6c09; stroke:none;" d="M490.667 475.333L491.333 475.667L490.667 475.333M531.333 475.667L531.667 476.333L531.333 475.667z"/>
<path style="fill:#f7cf3e; stroke:none;" d="M532 475L533 476L532 475z"/>
<path style="fill:#37afc0; stroke:none;" d="M43 476L44 477L43 476z"/>
<path style="fill:#9b6c09; stroke:none;" d="M475 476L476 477L475 476M492 476L493 477L492 476z"/>
<path style="fill:#37afc0; stroke:none;" d="M532 476L533 477L532 476z"/>
<path style="fill:#f7cf3e; stroke:none;" d="M46.6667 477.333L47.3333 477.667L46.6667 477.333z"/>
<path style="fill:#9b6c09; stroke:none;" d="M474 477L475 478L474 477M493 477L494 478L493 477z"/>
<path style="fill:#f7cf3e; stroke:none;" d="M531 477L531 480L532 480L531 477z"/>
<path style="fill:#37afc0; stroke:none;" d="M50.6667 478.333L51.3333 478.667L50.6667 478.333z"/>
<path style="fill:#f7cf3e; stroke:none;" d="M52 478L54 480L54 478L52 478z"/>
<path style="fill:#9b6c09; stroke:none;" d="M473.333 478.667L473.667 479.333L473.333 478.667M494 478L495 479L494 478z"/>
<path style="fill:#180a11; stroke:none;" d="M58 479L58 480L62 480L58 479z"/>
<path style="fill:#9b6c09; stroke:none;" d="M495 479L496 480L495 479M530 479L530 484L531 484L530 479z"/>
<path style="fill:#37afc0; stroke:none;" d="M53.3333 480.667L53.6667 481.333L53.3333 480.667z"/>
<path style="fill:#180a11; stroke:none;" d="M64 480L64 481L85 481L64 480M87 482L90 481L87 482M91 480L94 482L91 480M96.3333 480.667L96.6667 481.333L96.3333 480.667z"/>
<path style="fill:#9b6c09; stroke:none;" d="M472.333 480.667L472.667 481.333L472.333 480.667M496.333 480.667L496.667 481.333L496.333 480.667M418 482L418 483L422 483L418 482z"/>
<path style="fill:#960edd; stroke:none;" d="M472 482L473 483L472 482z"/>
<path style="fill:#9b6c09; stroke:none;" d="M497.333 482.667L497.667 483.333L497.333 482.667M415 483L416 484L415 483z"/>
<path style="fill:#960edd; stroke:none;" d="M430 516C453.493 504.254 420.562 464.875 407 492C405.643 494.714 405 496.656 405 500C405 503.478 404.765 507.036 406 510C410.98 521.952 417.143 513.964 425 512C429.004 510.999 430.326 514.698 430 516z"/>
<path style="fill:#9b6c09; stroke:none;" d="M425 483L426 484L425 483M471 483L471 487L472 487L471 483M413 484L414 485L413 484M427 484L428 485L427 484z"/>
<path style="fill:#f7cf3e; stroke:none;" d="M530 484L529 489L530 489L530 484z"/>
<path style="fill:#9b6c09; stroke:none;" d="M429 485L430 486L429 485M498 485L498 488L499 488L498 485M410 486L411 487L410 486M430 486L431 487L430 486M529 486L530 487L529 486M409 487L410 488L409 487M431 487L432 488L431 487M432 488L433 489L432 488M470 488C470.09 498.898 472.498 508.887 485 509L485 508C473.144 506.68 473.824 496.516 470 488M528 488L527 491L528 488M408 489L409 490L408 489M433 489L434 490L433 489M407 490L408 491L407 490M434 490L435 491L434 490z"/>
<path style="fill:#f7cf3e; stroke:none;" d="M528 490L529 491L528 490z"/>
<path style="fill:#9b6c09; stroke:none;" d="M406.333 491.667L406.667 492.333L406.333 491.667M499 491L500 492L499 491z"/>
<path style="fill:#f7cf3e; stroke:none;" d="M527 491L528 492L527 491z"/>
<path style="fill:#37afc0; stroke:none;" d="M54.3333 492.667L54.6667 493.333L54.3333 492.667z"/>
<path style="fill:#9b6c09; stroke:none;" d="M332 492L332 493L341 493L332 492M435 492L436 493L435 492z"/>
<path style="fill:#f7cf3e; stroke:none;" d="M526 492L527 493L526 492z"/>
<path style="fill:#9b6c09; stroke:none;" d="M329.667 493.333L330.333 493.667L329.667 493.333z"/>
<path style="fill:#960edd; stroke:none;" d="M331 493.533C316.683 497.013 312.475 517.996 324.926 526.316C330.607 530.113 334.539 524.378 340 523.701C342.789 523.356 345.206 525.577 347.907 525.098C354.646 523.902 355.513 512.058 354.316 507C351.821 496.457 341.261 491.039 331 493.533z"/>
<path style="fill:#9b6c09; stroke:none;" d="M342.667 493.333L343.333 493.667L342.667 493.333M405 493C390.744 509.78 402.309 521 421 521L421 520C404.119 515.953 408.74 505.158 405 493M411.143 494.086C406.557 496.386 408.686 504.506 413.857 501.914C418.443 499.614 416.314 491.494 411.143 494.086z"/>
<path style="fill:#180a11; stroke:none;" d="M472 493C472.565 505.327 484.102 513.329 493 502L472 493z"/>
<path style="fill:#9b6c09; stroke:none;" d="M498 493L498 497L499 497L498 493z"/>
<path style="fill:#f7cf3e; stroke:none;" d="M525 493L526 494L525 493z"/>
<path style="fill:#9b6c09; stroke:none;" d="M327 494L328 495L327 494M344.667 494.333L345.333 494.667L344.667 494.333M436 494L437 495L436 494M522 496L525 495L522 496M325 495L326 496L325 495M346 495L349 497L346 495z"/>
<path style="fill:#f7cf3e; stroke:none;" d="M415 495C405.46 496.522 414.241 504.742 415 495z"/>
<path style="fill:#9b6c09; stroke:none;" d="M429 495L429 498L431 498L431 495L429 495z"/>
<path style="fill:#960edd; stroke:none;" d="M521 495L522 496L521 495z"/>
<path style="fill:#f7cf3e; stroke:none;" d="M523 495L524 496L523 495z"/>
<path style="fill:#9b6c09; stroke:none;" d="M349 497C351.47 501.459 354.549 505.702 354.736 511C355.687 537.948 312.681 533.882 318.083 508C319.069 503.278 322.369 499.864 325 496C312.595 499.65 291.275 521.495 308.04 532.437C317.269 538.46 325.347 533.605 335 533.65C343.817 533.692 350.794 537.557 360 535.323C385.064 529.241 363.911 501.388 349 497z"/>
<path style="fill:#37afc0; stroke:none;" d="M522 496L523 497L522 496M52 497L53 498L52 497z"/>
<path style="fill:#f7cf3e; stroke:none;" d="M53 497C48.3552 500.571 45.0659 504.115 44 510L45 510L54 498L53 497z"/>
<path style="fill:#9b6c09; stroke:none;" d="M47 504L54 498L55 498L55 500L56 500L55 497L47 504M437.333 497.667L437.667 498.333L437.333 497.667M497.333 497.667L497.667 498.333L497.333 497.667z"/>
<path style="fill:#960edd; stroke:none;" d="M54 498C50.9347 503.881 44.7495 505.086 44.7292 513C44.7091 520.804 54.0451 542.476 64.3472 531.566C70.8545 524.675 66.9897 502.072 56 504L54 498z"/>
<path style="fill:#37afc0; stroke:none;" d="M522 498L523 499L522 498z"/>
<path style="fill:#9b6c09; stroke:none;" d="M496 499L497 500L496 499z"/>
<path style="fill:#37afc0; stroke:none;" d="M48 500L49 501L48 500z"/>
<path style="fill:#9b6c09; stroke:none;" d="M242.667 500.333L243.333 500.667L242.667 500.333z"/>
<path style="fill:#37afc0; stroke:none;" d="M47 501L48 502L47 501z"/>
<path style="fill:#960edd; stroke:none;" d="M50 501L51 502L50 501z"/>
<path style="fill:#9b6c09; stroke:none;" d="M238 501L239 502L238 501z"/>
<path style="fill:#960edd; stroke:none;" d="M239 501.533C225.3 504.858 220.299 526.436 233.04 534.204C238.581 537.581 242.699 532.462 248 531.686C250.697 531.291 253.322 532.879 255.981 532.129C262.896 530.178 263.836 519.599 261.891 514C258.663 504.707 248.593 499.205 239 501.533z"/>
<path style="fill:#9b6c09; stroke:none;" d="M248 501L249 502L248 501M495 501L496 502L495 501M60.6667 502.333L61.3333 502.667L60.6667 502.333M235 502L236 503L235 502M251 502L252 503L251 502M328.996 503.006C323.188 503.09 321.639 512.704 328.039 512.704C334.078 512.704 335.595 502.911 328.996 503.006M494 502L495 503L494 502M56 503L56 504L59 504L56 503M253 503L254 504L253 503M493 503L494 504L493 503z"/>
<path style="fill:#37afc0; stroke:none;" d="M45 504L46 505L45 504z"/>
<path style="fill:#9b6c09; stroke:none;" d="M63 504L64 505L63 504M232 504L233 505L232 504M255 504L256 505L255 504z"/>
<path style="fill:#f7cf3e; stroke:none;" d="M327.303 505.175C323.975 506.815 326.319 511.976 329.682 509.914C332.535 508.165 330.395 503.652 327.303 505.175z"/>
<path style="fill:#9b6c09; stroke:none;" d="M437.333 504.667L437.667 505.333L437.333 504.667M492 504L493 505L492 504M46 505L47 506L46 505M50 509L54 505L50 509M94 505L94 506L97 506L94 505M155.667 505.333L156.333 505.667L155.667 505.333z"/>
<path style="fill:#960edd; stroke:none;" d="M171 511C166.163 509.664 163.639 505.492 158 505.59C132.833 506.03 142.236 553.564 163.91 532.826C166.534 530.316 169.478 527.202 171.233 524C173.476 519.908 171.127 515.339 171 511z"/>
<path style="fill:#9b6c09; stroke:none;" d="M159 505L159 506L162 506L159 505M231 505L232 506L231 505M256 505L257 506L256 505M490.667 505.333L491.333 505.667L490.667 505.333z"/>
<path style="fill:#f7cf3e; stroke:none;" d="M505 505L506 506L505 505z"/>
<path style="fill:#9b6c09; stroke:none;" d="M91 506L92 507L91 506z"/>
<path style="fill:#960edd; stroke:none;" d="M107 522C106.277 518.545 105.453 515.089 103.633 512.015C94.5215 496.622 77.1344 515.285 80.7894 528C83.4696 537.325 92.2954 542.073 99.331 533.906C102.485 530.245 103.981 525.618 107 522z"/>
<path style="fill:#9b6c09; stroke:none;" d="M98.6667 506.333L99.3333 506.667L98.6667 506.333M164 506L165 507L164 506M230 506L231 507L230 506M257 506L258 507L257 506M345 506L346 508L347 508L348 506L345 506M488.667 506.333L489.333 506.667L488.667 506.333M45 507L46 508L45 507M64.3333 507.667L64.6667 508.333L64.3333 507.667M89 507L90 508L89 507M100 507L101 508L100 507M166 507L169 510L166 507M229 507L230 508L229 507M258 507L259 508L258 507M486.667 507.333L487.333 507.667L486.667 507.333M87 508L88 509L87 508M101 508L102 509L101 508M149 508L150 509L149 508z"/>
<path style="fill:#180a11; stroke:none;" d="M166 508L167 509L166 508z"/>
<path style="fill:#9b6c09; stroke:none;" d="M259 508L260 509L259 508M436 508L437 509L436 508M86 509L87 510L86 509M102 509L103 510L102 509M148 509L149 510L148 509z"/>
<path style="fill:#180a11; stroke:none;" d="M167 509L168 510L167 509z"/>
<path style="fill:#9b6c09; stroke:none;" d="M260 509C264.225 524.486 259.358 537.947 241 538L241 539C248.242 539.149 256.312 540.781 262.995 536.911C274.424 530.291 268.27 515.387 260 509z"/>
<path style="fill:#37afc0; stroke:none;" d="M43.3333 510.667L43.6667 511.333L43.3333 510.667z"/>
<path style="fill:#9b6c09; stroke:none;" d="M44.3333 510.667L44.6667 511.333L44.3333 510.667M85 510L86 511L85 510M147 510L148 511L147 510z"/>
<path style="fill:#180a11; stroke:none;" d="M168 510L170 512L170 510L168 510z"/>
<path style="fill:#9b6c09; stroke:none;" d="M227 510L228 511L227 510M236.039 510.89C230.427 512.276 230.473 521.628 236.975 520.458C243.15 519.346 242.402 509.319 236.039 510.89M435 510L436 511L435 510M54.4306 512.047C49.9655 514.928 53.9269 522.872 58.6821 519.214C62.6082 516.193 58.9174 509.152 54.4306 512.047M65.3333 511.667L65.6667 512.333L65.3333 511.667M84 511L85 512L84 511M103 511L104 512L103 511M146 511L147 512L146 511M434 511L435 512L434 511z"/>
<path style="fill:#37afc0; stroke:none;" d="M530 511L531 512L530 511z"/>
<path style="fill:#f7cf3e; stroke:none;" d="M43 512L43 515L44 515L43 512z"/>
<path style="fill:#9b6c09; stroke:none;" d="M83 512L84 513L83 512M104.333 512.667L104.667 513.333L104.333 512.667z"/>
<path style="fill:#180a11; stroke:none;" d="M170 512C173.198 523.991 164.872 536.438 152 539L152 540C169.285 545.479 185.101 525.19 170 512z"/>
<path style="fill:#9b6c09; stroke:none;" d="M171 512L172 513L171 512z"/>
<path style="fill:#f7cf3e; stroke:none;" d="M235.303 513.175C231.975 514.815 234.319 519.976 237.682 517.914C240.536 516.165 238.395 511.652 235.303 513.175z"/>
<path style="fill:#180a11; stroke:none;" d="M413 517L413 518C420.148 520.261 424.849 519.341 431 515C425.53 509.256 419.08 515.215 413 517z"/>
<path style="fill:#37afc0; stroke:none;" d="M532 512L533 513L532 512z"/>
<path style="fill:#9b6c09; stroke:none;" d="M44 513L44 516L45 516L44 513z"/>
<path style="fill:#f7cf3e; stroke:none;" d="M59 513C50.856 514.359 58.2819 522.222 59 513z"/>
<path style="fill:#9b6c09; stroke:none;" d="M172 513L173 514L172 513z"/>
<path style="fill:#180a11; stroke:none;" d="M431 513L432 514L431 513z"/>
<path style="fill:#9b6c09; stroke:none;" d="M433 513L434 514L433 513M82 514L83 515L82 514M144 514L145 515L144 514M254.333 514.667L254.667 515.333L254.333 514.667M432 514L433 515L432 514z"/>
<path style="fill:#37afc0; stroke:none;" d="M43 515L44 516L43 515z"/>
<path style="fill:#9b6c09; stroke:none;" d="M66 515L66 519L67 519L66 515M81.3333 515.667L81.6667 516.333L81.3333 515.667M87.4336 516.032C83.0235 519.001 86.9821 526.998 91.686 523.353C95.9366 520.058 92.4732 512.64 87.4336 516.032M105 515L106 516L105 515M150.317 516.032C145.692 519.03 149.286 527.246 154.567 523.806C159.238 520.762 155.688 512.552 150.317 516.032M173 515L174 516L173 515M431 515L432 516L431 515z"/>
<path style="fill:#f7cf3e; stroke:none;" d="M44 516L44 519L45 519L44 516M89.2631 517.345C86.4384 518.422 87.7553 523.446 90.7215 521.825C93.0235 520.567 92.0581 516.279 89.2631 517.345z"/>
<path style="fill:#9b6c09; stroke:none;" d="M143 516L144 517L143 516z"/>
<path style="fill:#f7cf3e; stroke:none;" d="M152.086 517.06C148.579 517.678 149.184 523.333 152.826 522.248C155.813 521.359 155.525 516.455 152.086 517.06z"/>
<path style="fill:#9b6c09; stroke:none;" d="M429 516L430 517L429 516M106 517L106 520L107 520L106 517M174.333 517.667L174.667 518.333L174.333 517.667M225 517L225 522L226 522L225 517z"/>
<path style="fill:#960edd; stroke:none;" d="M427 517L428 518L427 517z"/>
<path style="fill:#9b6c09; stroke:none;" d="M428 517L429 518L428 517M80.3333 518.667L80.6667 519.333L80.3333 518.667z"/>
<path style="fill:#960edd; stroke:none;" d="M425 518L426 519L425 518z"/>
<path style="fill:#9b6c09; stroke:none;" d="M426 518L427 519L426 518M45 519L46 520L45 519M142.333 519.667L142.667 520.333L142.333 519.667M422 519L422 520L425 520L422 519z"/>
<path style="fill:#f7cf3e; stroke:none;" d="M45 520L46 521L45 520z"/>
<path style="fill:#9b6c09; stroke:none;" d="M175 520L175 531L176 531L175 520M46 521L47 525L48 525L46 521z"/>
<path style="fill:#f7cf3e; stroke:none;" d="M46.3333 522.667L46.6667 523.333L46.3333 522.667z"/>
<path style="fill:#180a11; stroke:none;" d="M105 522C103.574 529.371 97.9977 536.281 91 539L91 540C105.016 543.195 107 534.228 107 522L105 522z"/>
<path style="fill:#9b6c09; stroke:none;" d="M107 522L107 532L108 532L107 522z"/>
<path style="fill:#180a11; stroke:none;" d="M328 528L328 529C335.872 531.496 340.552 530.055 348 527C340.919 520.1 335.733 526.188 328 528z"/>
<path style="fill:#f7cf3e; stroke:none;" d="M47 525L48 526L47 525z"/>
<path style="fill:#37afc0; stroke:none;" d="M47 526L48 527L47 526z"/>
<path style="fill:#9b6c09; stroke:none;" d="M142.333 526.667L142.667 527.333L142.333 526.667z"/>
<path style="fill:#f7cf3e; stroke:none;" d="M48 527L50 530L48 527z"/>
<path style="fill:#9b6c09; stroke:none;" d="M80.3333 527.667L80.6667 528.333L80.3333 527.667z"/>
<path style="fill:#180a11; stroke:none;" d="M327 527L328 528L327 527z"/>
<path style="fill:#9b6c09; stroke:none;" d="M49 528L50 529L49 528M66 528L66 535L67 535L66 528M228 529L229 530L228 529M50 530L51 531L50 530M81 530L82 531L81 530M143 530L144 531L143 530z"/>
<path style="fill:#37afc0; stroke:none;" d="M548 530L549 531L548 530z"/>
<path style="fill:#9b6c09; stroke:none;" d="M51 531L52 532L51 531M174 531L174 534L175 534L174 531z"/>
<path style="fill:#180a11; stroke:none;" d="M236 535L236 536C243.724 539.259 252.33 538.614 258 532L247 531.576L236 535M258 531L259 532L258 531z"/>
<path style="fill:#9b6c09; stroke:none;" d="M52 532L53 533L52 532M82 532L83 533L82 532M230 532L231 533L230 532z"/>
<path style="fill:#f7cf3e; stroke:none;" d="M53 533L54 534L53 533z"/>
<path style="fill:#9b6c09; stroke:none;" d="M106 533L106 536L107 536L106 533z"/>
<path style="fill:#37afc0; stroke:none;" d="M549 533L550 534L549 533z"/>
<path style="fill:#f7cf3e; stroke:none;" d="M54 534L55 535L54 534z"/>
<path style="fill:#9b6c09; stroke:none;" d="M55 534L56 535L55 534M83 534L84 535L83 534M145 534L146 535L145 534M173 534C169.166 538.799 165.177 541.444 159 542L159 543C164.431 542.884 173.971 541.26 173 534M56.6667 535.333L57.3333 535.667L56.6667 535.333z"/>
<path style="fill:#960edd; stroke:none;" d="M58 535L59 536L58 535z"/>
<path style="fill:#9b6c09; stroke:none;" d="M84 535L85 536L84 535M146 535L147 536L146 535M234 535L235 536L234 535M60 536L60 537L65 539L66 536L60 536M85 536L86 537L85 536M105.333 536.667L105.667 537.333L105.333 536.667M147 536L148 537L147 536M236 536L237 537L236 536M86 537L87 538L86 537M148 537L149 538L148 537M238.667 537.333L239.333 537.667L238.667 537.333M88 538L91 540L91 539L88 538z"/>
<path style="fill:#180a11; stroke:none;" d="M89 538L90 539L89 538z"/>
<path style="fill:#9b6c09; stroke:none;" d="M104 538L94 541L94 542C97.8496 543.313 104.863 544.003 104 538M149 538L150 539L149 538M151 539L152 540L151 539z"/>
<path style="fill:#180a11; stroke:none;" d="M549 539C547.639 570.232 495.956 579.255 472 584.576C387.068 603.439 297.99 615 211 615L211 616L550 616L550 563L549 539z"/>
<path style="fill:#9b6c09; stroke:none;" d="M91.6667 540.333L92.3333 540.667L91.6667 540.333z"/>
<path style="fill:#960edd; stroke:none;" d="M93 540L94 541L93 540z"/>
<path style="fill:#9b6c09; stroke:none;" d="M153 540L154 541L153 540z"/>
<path style="fill:#37afc0; stroke:none;" d="M58 541L59 542L58 541z"/>
<path style="fill:#9b6c09; stroke:none;" d="M155.667 541.333L156.333 541.667L155.667 541.333z"/>
<path style="fill:#960edd; stroke:none;" d="M52 552L53 553L52 552z"/>
<path style="fill:#37afc0; stroke:none;" d="M47 556L48 557L47 556z"/>
<path style="fill:#9b6c09; stroke:none;" d="M539 556C522.67 566.761 501.029 570.473 482 573.424C456.341 577.404 430.698 581.568 405 585.271C340.487 594.567 275.959 602.641 211 607.089C156.49 610.822 103.156 610.597 50 598C56.0187 605.259 66.2571 606.592 75 608.615C98.339 614.015 123.214 614.159 146.999 615.036C240.594 618.489 337.915 610.823 430 593C458.754 587.435 487.269 581.285 515 571.656C521.395 569.435 539.176 564.238 539 556z"/>
<path style="fill:#37afc0; stroke:none;" d="M541 556L542 557L541 556M540 557L541 558L540 557z"/>
<path style="fill:#f7cf3e; stroke:none;" d="M539 558L540 559L539 558M538 559L539 560L538 559z"/>
<path style="fill:#37afc0; stroke:none;" d="M537 560L538 561L537 560M536 561L537 562L536 561z"/>
<path style="fill:#f7cf3e; stroke:none;" d="M534 562L535 563L534 562z"/>
<path style="fill:#37afc0; stroke:none;" d="M535 562L536 563L535 562M41 563L42 564L41 563z"/>
<path style="fill:#f7cf3e; stroke:none;" d="M533 563L534 564L533 563M531 564L532 565L531 564M529 565L530 566L529 565M527 566L528 567L527 566z"/>
<path style="fill:#37afc0; stroke:none;" d="M528 566L529 567L528 566z"/>
<path style="fill:#f7cf3e; stroke:none;" d="M525 567L526 568L525 567z"/>
<path style="fill:#37afc0; stroke:none;" d="M526 567L527 568L526 567z"/>
<path style="fill:#f7cf3e; stroke:none;" d="M523 568L524 569L523 568M520.667 569.333L521.333 569.667L520.667 569.333M518 570L519 571L518 570M515.667 571.333L516.333 571.667L515.667 571.333z"/>
<path style="fill:#960edd; stroke:none;" d="M38 572L39 573L38 572z"/>
<path style="fill:#f7cf3e; stroke:none;" d="M512.667 572.333L513.333 572.667L512.667 572.333M509.667 573.333L510.333 573.667L509.667 573.333M506.667 574.333L507.333 574.667L506.667 574.333M503.667 575.333L504.333 575.667L503.667 575.333M499.667 576.333L500.333 576.667L499.667 576.333z"/>
<path style="fill:#37afc0; stroke:none;" d="M501 576L502 577L501 576z"/>
<path style="fill:#f7cf3e; stroke:none;" d="M496.667 577.333L497.333 577.667L496.667 577.333M492.667 578.333L493.333 578.667L492.667 578.333z"/>
<path style="fill:#37afc0; stroke:none;" d="M494 578L495 579L494 578z"/>
<path style="fill:#f7cf3e; stroke:none;" d="M489.667 579.333L490.333 579.667L489.667 579.333z"/>
<path style="fill:#37afc0; stroke:none;" d="M491 579L492 580L491 579z"/>
<path style="fill:#f7cf3e; stroke:none;" d="M486 580L487 581L486 580z"/>
<path style="fill:#37afc0; stroke:none;" d="M487 580L488 581L487 580z"/>
<path style="fill:#f7cf3e; stroke:none;" d="M482.667 581.333L483.333 581.667L482.667 581.333z"/>
<path style="fill:#37afc0; stroke:none;" d="M484 581L485 582L484 581z"/>
<path style="fill:#f7cf3e; stroke:none;" d="M478 582L478 583L481 583L478 582M474.667 583.333L475.333 583.667L474.667 583.333z"/>
<path style="fill:#37afc0; stroke:none;" d="M476 583L477 584L476 583z"/>
<path style="fill:#f7cf3e; stroke:none;" d="M470.667 584.333L471.333 584.667L470.667 584.333z"/>
<path style="fill:#37afc0; stroke:none;" d="M472 584L473 585L472 584z"/>
<path style="fill:#f7cf3e; stroke:none;" d="M467 585L468 586L467 585z"/>
<path style="fill:#37afc0; stroke:none;" d="M39 586L40 587L39 586z"/>
<path style="fill:#f7cf3e; stroke:none;" d="M463 586L464 587L463 586M457.667 587.333L458.333 587.667L457.667 587.333z"/>
<path style="fill:#960edd; stroke:none;" d="M459 587L460 588L459 587z"/>
<path style="fill:#f7cf3e; stroke:none;" d="M453 588L454 589L453 588z"/>
<path style="fill:#37afc0; stroke:none;" d="M454 588L455 589L454 588z"/>
<path style="fill:#f7cf3e; stroke:none;" d="M448 589L449 590L448 589z"/>
<path style="fill:#37afc0; stroke:none;" d="M449 589L450 590L449 589z"/>
<path style="fill:#f7cf3e; stroke:none;" d="M443.667 590.333L444.333 590.667L443.667 590.333M438.667 591.333L439.333 591.667L438.667 591.333z"/>
<path style="fill:#37afc0; stroke:none;" d="M440 591L441 592L440 591z"/>
<path style="fill:#f7cf3e; stroke:none;" d="M432 592L432 593L435 593L432 592M427 593L427 594L430 594L427 593M421 594L421 595L424 595L421 594M415 595L416 596L415 595M417 595L418 596L417 595z"/>
<path style="fill:#37afc0; stroke:none;" d="M418 595L419 596L418 595z"/>
<path style="fill:#f7cf3e; stroke:none;" d="M409 596L409 597L412 597L409 596z"/>
<path style="fill:#9b6c09; stroke:none;" d="M49 597L50 598L49 597z"/>
<path style="fill:#f7cf3e; stroke:none;" d="M402 597L403 598L402 597M404 597L405 598L404 597z"/>
<path style="fill:#37afc0; stroke:none;" d="M405 597L406 598L405 597z"/>
<path style="fill:#f7cf3e; stroke:none;" d="M398 598L399 599L398 598z"/>
<path style="fill:#37afc0; stroke:none;" d="M399 598L400 599L399 598M50 599L51 600L50 599z"/>
<path style="fill:#f7cf3e; stroke:none;" d="M390.667 599.333L391.333 599.667L390.667 599.333z"/>
<path style="fill:#37afc0; stroke:none;" d="M392 599L393 600L392 599z"/>
<path style="fill:#f7cf3e; stroke:none;" d="M383.667 600.333L384.333 600.667L383.667 600.333z"/>
<path style="fill:#960edd; stroke:none;" d="M385 600L386 601L385 600z"/>
<path style="fill:#f7cf3e; stroke:none;" d="M53 601L54 602L53 601M375 601L375 602L378 602L375 601M368.667 602.333L369.333 602.667L368.667 602.333M56 603L57 604L56 603M360.667 603.333L361.333 603.667L360.667 603.333z"/>
<path style="fill:#37afc0; stroke:none;" d="M362 603L363 604L362 603z"/>
<path style="fill:#f7cf3e; stroke:none;" d="M59 604L60 605L59 604M351 604L351 605L354 605L351 604z"/>
<path style="fill:#37afc0; stroke:none;" d="M354 604L355 605L354 604M61 605L62 606L61 605z"/>
<path style="fill:#f7cf3e; stroke:none;" d="M62 605L63 606L62 605M343 605L343 606L347 606L343 605M64.6667 606.333L65.3333 606.667L64.6667 606.333M332 606L332 607L335 607L332 606M337 606L338 607L337 606z"/>
<path style="fill:#37afc0; stroke:none;" d="M338 606L339 607L338 606z"/>
<path style="fill:#f7cf3e; stroke:none;" d="M68 607L68 608L71 608L68 607M323 607L323 608L328 608L323 607z"/>
<path style="fill:#37afc0; stroke:none;" d="M72 608L73 609L72 608z"/>
<path style="fill:#f7cf3e; stroke:none;" d="M73.6667 608.333L74.3333 608.667L73.6667 608.333M313.667 608.333L314.333 608.667L313.667 608.333M317 608L318 609L317 608z"/>
<path style="fill:#37afc0; stroke:none;" d="M318 608L319 609L318 608M77 609L78 610L77 609z"/>
<path style="fill:#f7cf3e; stroke:none;" d="M78 609L79 610L78 609M80.6667 609.333L81.3333 609.667L80.6667 609.333M301 609L302 610L301 609M305.667 609.333L306.333 609.667L305.667 609.333z"/>
<path style="fill:#37afc0; stroke:none;" d="M307 609L308 610L307 609M84 610L85 611L84 610z"/>
<path style="fill:#f7cf3e; stroke:none;" d="M85 610L85 611L89 611L85 610M289 610L290 611L289 610M293.667 610.333L294.333 610.667L293.667 610.333z"/>
<path style="fill:#37afc0; stroke:none;" d="M295 610L296 611L295 610M90 611L91 612L90 611z"/>
<path style="fill:#f7cf3e; stroke:none;" d="M91 611L91 612L96 612L91 611M277.667 611.333L278.333 611.667L277.667 611.333M280 611L280 612L283 612L280 611z"/>
<path style="fill:#37afc0; stroke:none;" d="M283 611L284 612L283 611M100 612L101 613L100 612z"/>
<path style="fill:#f7cf3e; stroke:none;" d="M101 612L102 613L101 612M104 612L105 613L104 612M265 612L265 613L268 613L265 612z"/>
<path style="fill:#37afc0; stroke:none;" d="M268.667 612.333L269.333 612.667L268.667 612.333M110 613L111 614L110 613z"/>
<path style="fill:#f7cf3e; stroke:none;" d="M111 613L111 614L114 614L111 613M248 613L248 614L252 614L248 613z"/>
<path style="fill:#37afc0; stroke:none;" d="M252 613L252 614L256 614L252 613z"/>
<path style="fill:#f7cf3e; stroke:none;" d="M123 614L123 615L129 615L123 614M228 614L228 615L233 615L228 614z"/>
<path style="fill:#37afc0; stroke:none;" d="M233 614L234 615L233 614z"/>
<path style="fill:#f7cf3e; stroke:none;" d="M234 614L235 615L234 614z"/>
<path style="fill:#37afc0; stroke:none;" d="M235 614L236 615L235 614M141 615L141 616L145 616L141 615z"/>
<path style="fill:#f7cf3e; stroke:none;" d="M145 615L145 616L152 616L145 615M153 615L154 616L153 615M157 615L158 616L157 615M161 615L162 616L161 615M165 615L166 616L165 615M191 615L191 616L207 616L191 615z"/>
<path style="fill:#37afc0; stroke:none;" d="M207 615L207 616L211 616L207 615z"/>
</svg>
