<svg xmlns="http://www.w3.org/2000/svg" width="55" height="48" viewBox="0 0 55 48">
    <defs>
        <linearGradient id="xtnl33tx3a" x1="0%" x2="100%" y1="87.945%" y2="12.055%">
            <stop offset="0%" stop-color="#FFB400"/>
            <stop offset="100%" stop-color="#FF0"/>
        </linearGradient>
    </defs>
    <g fill="none" fill-rule="evenodd">
        <g fill="url(#xtnl33tx3a)" fill-rule="nonzero" transform="translate(-509 -304)">
            <g>
                <g>
                    <path d="M29.588.043c1.531 0 2.904 1.245 3.05 2.765l.597 6.262h18.98c1.531 0 2.785 1.25 2.785 2.778V45.18c0 1.528-1.254 2.778-2.785 2.778H2.785C1.253 47.957 0 46.707 0 45.179v-33.33C0 10.32 1.253 9.07 2.785 9.07h18.98l.598-6.262c.144-1.52 1.516-2.765 3.048-2.765zm-8.023 11.11H2.785c-.378 0-.696.319-.696.695V45.18c0 .376.318.694.696.694h49.43c.377 0 .697-.318.697-.694v-33.33c0-.377-.32-.695-.697-.695H33.434l.068.707c.144 1.52-.99 2.765-2.52 2.765h-6.963c-1.532 0-2.666-1.245-2.52-2.765l.066-.707zm-3.849 8.16c3.129 0 5.665 2.53 5.665 5.65 0 1.729-.78 3.273-2.005 4.31 3.352 1.421 5.701 4.733 5.703 8.596 0 .274-.111.543-.306.736-.195.194-.464.305-.739.305H9.4c-.276 0-.545-.11-.74-.305-.194-.194-.305-.462-.305-.736 0-3.863 2.35-7.175 5.702-8.596-1.226-1.037-2.006-2.581-2.006-4.31.001-3.12 2.536-5.65 5.666-5.65zm0 11.3c-2.013.001-3.823.81-5.143 2.125-1.084 1.084-1.819 2.503-2.047 4.089h14.38c-.23-1.586-.962-3.005-2.047-4.089-1.32-1.314-3.131-2.124-5.143-2.125zM42.28 34.07c.578 0 1.045.466 1.045 1.041s-.468 1.042-1.045 1.042H31.677c-.576 0-1.044-.467-1.044-1.042s.468-1.041 1.044-1.041zm1.929-6.25c.576 0 1.044.467 1.044 1.042s-.468 1.041-1.044 1.041H31.677c-.576 0-1.044-.466-1.044-1.041s.468-1.042 1.044-1.042zm-26.493-6.423c-.991 0-1.879.397-2.529 1.045-.65.65-1.047 1.534-1.048 2.522 0 .989.398 1.874 1.048 2.523.65.646 1.538 1.043 2.53 1.045.99 0 1.877-.398 2.528-1.045.65-.65 1.048-1.534 1.048-2.523 0-.988-.399-1.873-1.048-2.522-.651-.648-1.537-1.044-2.529-1.045zm26.493.174c.576 0 1.044.466 1.044 1.041s-.468 1.042-1.044 1.042H31.677c-.576 0-1.044-.467-1.044-1.042s.468-1.041 1.044-1.041zM29.589 2.127H25.41c-.455 0-.926.427-.97.879l-.864 9.051c-.013.146.02.269.098.355.077.086.197.13.344.13h6.962c.147 0 .265-.044.344-.13.078-.086.112-.208.098-.355l-.865-9.05c-.044-.453-.514-.88-.97-.88z" transform="translate(380 254) translate(129 50)"/>
                </g>
            </g>
        </g>
    </g>
</svg>
