<svg xmlns="http://www.w3.org/2000/svg" width="50" height="49" viewBox="0 0 50 49">
    <defs>
        <linearGradient id="8ggmc3akoa" x1=".002%" x2="99.998%" y1="100%" y2="0%">
            <stop offset="0%" stop-color="#FFB400"/>
            <stop offset="100%" stop-color="#FF0"/>
        </linearGradient>
        <linearGradient id="e2jexxpafb" x1="0%" x2="100%" y1="97.938%" y2="2.062%">
            <stop offset="0%" stop-color="#FFB400"/>
            <stop offset="100%" stop-color="#FF0"/>
        </linearGradient>
    </defs>
    <g fill="none" fill-rule="evenodd">
        <g fill-rule="nonzero" stroke="#181B21" stroke-width=".8">
            <g>
                <g>
                    <path fill="url(#8ggmc3akoa)" d="M38.062 27.281h-5.625c-.776 0-1.406.63-1.406 1.407v5.625c0 .776.63 1.406 1.406 1.406h5.625c.777 0 1.406-.63 1.406-1.407v-5.624c0-.777-.63-1.407-1.406-1.407zm-1.406 5.625h-2.813v-2.812h2.813v2.812zM15.563 27.281H9.938c-.777 0-1.406.63-1.406 1.407v5.625c0 .776.63 1.406 1.406 1.406h5.625c.776 0 1.406-.63 1.406-1.407v-5.624c0-.777-.63-1.407-1.406-1.407zm-1.406 5.625h-2.813v-2.812h2.813v2.812z" transform="translate(-845 -303) translate(713 254) translate(133 50)"/>
                    <path fill="url(#e2jexxpafb)" d="M44.156 45.5V25.406h2.437c.938 0 1.612-.902 1.35-1.8L43.009 6.73c-.175-.6-.725-1.011-1.35-1.011h-3.527V2.812c.777 0 1.407-.63 1.407-1.406C39.538.63 38.908 0 38.132 0h-8.437c-.777 0-1.406.63-1.406 1.406 0 .777.63 1.407 1.406 1.407v2.906H6.341c-.625 0-1.175.412-1.35 1.011L.057 23.605c-.263.9.414 1.801 1.35 1.801h2.437V45.5c0 .828.672 1.5 1.5 1.5h37.312c.828 0 1.5-.672 1.5-1.5zM32.507 2.812h2.813V5.72h-2.813V2.812zM3.283 22.595L7.395 8.53h33.21l4.112 14.063h-5.354l-2.896-5.016c-.54-.937-1.895-.935-2.435 0l-2.896 5.016H16.864l-2.896-5.016c-.54-.937-1.895-.935-2.435 0l-2.896 5.016H3.283zM24 31.28c-2.843 0-5.156 2.313-5.156 5.157v7.968H6.657v-19h2.792c.502 0 .966-.268 1.217-.703l2.084-3.61 2.084 3.61c.252.435.716.703 1.218.703h15.896c.502 0 .966-.268 1.218-.703l2.084-3.61 2.084 3.61c.25.435.715.703 1.217.703h2.792v19H29.156v-7.968c0-2.844-2.313-5.157-5.156-5.157zm2.344 5.157v7.968h-4.688v-7.968c0-1.293 1.052-2.344 2.344-2.344 1.292 0 2.344 1.051 2.344 2.343z" transform="translate(-845 -303) translate(713 254) translate(133 50)"/>
                </g>
            </g>
        </g>
    </g>
</svg>
