<svg xmlns="http://www.w3.org/2000/svg" width="42" height="50" viewBox="0 0 42 50">
    <defs>
        <linearGradient id="doj3zyfrfa" x1="14.176%" x2="85.824%" y1="100%" y2="0%">
            <stop offset="0%" stop-color="#FFB400"/>
            <stop offset="100%" stop-color="#FF0"/>
        </linearGradient>
    </defs>
    <g fill="none" fill-rule="evenodd">
        <g fill="url(#doj3zyfrfa)" fill-rule="nonzero" stroke="url(#doj3zyfrfa)" stroke-width=".2" transform="translate(-1181 -303)">
            <g>
                <g>
                    <path d="M21.27 47.055c0 .52-.425.945-.947.945-.52 0-.944-.424-.944-.945 0-.52.424-.945.944-.945.522 0 .946.424.946.945zm-20.798 0V45.86c0-6.3 4.273-9.735 6.144-10.857 2.54-1.522 5.27-2.673 8.124-3.43v-1.52c-.476-.42-.91-.898-1.295-1.43-1.132-1.568-2.056-3.267-2.752-5.062-.637-.087-1.22-.492-1.519-1.126-.286-.605-2.267-4.27-2.57-4.923-.77-1.653.236-3.287 1.51-3.813.213-.087.431-.152.653-.19-.206-.844-.31-1.712-.31-2.596C8.457 4.896 13.352 0 19.37 0c1.058 0 2.06.405 2.82 1.139.008.008.021.008.03 0C22.98.405 23.981 0 25.04 0c4.09 0 7.417 3.327 7.417 7.417v1.721c0 1.482-.204 2.94-.605 4.354.227.037.453.096.668.193 1.569.71 2.182 2.466 1.511 3.813-.32.644-2.285 4.318-2.57 4.923-.3.633-.882 1.039-1.519 1.126-.696 1.799-1.621 3.502-2.755 5.073-.385.533-.82 1.012-1.297 1.432v1.522c2.854.756 5.583 1.907 8.124 3.43 1.87 1.12 6.143 4.556 6.143 10.856v1.195c0 .522-.423.945-.944.945H24.577h-.002c-.541 0-.978-.458-.942-1.008.033-.502.472-.882.976-.882h13.659c0-3.99-2.002-7.554-5.226-9.485-2.276-1.364-4.714-2.412-7.26-3.123-.51 2.553-2.767 4.482-5.467 4.482-2.7 0-4.957-1.93-5.467-4.482-2.546.71-4.984 1.759-7.26 3.123-3.224 1.93-5.226 5.386-5.226 9.485h13.71c.543 0 .98.46.942 1.01-.034.502-.473.88-.976.88H1.418c-.523 0-.946-.423-.946-.945h0zm9.878-35.997c.087-.102 1.39-1.704 3.635-1.704 1.12 0 2.194.39 3.046 1.086.784.64 1.782.993 2.812.993 2.435 0 4.386-1.959 4.44-4.459.012-.513.431-.924.945-.924s.933.41.945.924c.027 1.206.677 2.253 1.695 2.73 1.002.47 1.84 1.181 2.455 2.051.162-.859.244-1.733.244-2.617v-1.72c0-3.049-2.48-5.528-5.528-5.528-.565 0-1.1.216-1.507.609-.744.718-1.91.718-2.654 0-.407-.393-.943-.61-1.508-.61-4.976 0-9.068 3.997-9.02 9.17zM24 31.311c-2.237 1.056-4.822 1.178-7.37 0v1.098c0 2.032 1.653 3.685 3.685 3.685S24 34.441 24 32.41v-1.098zm1.654-3.797c1.172-1.623 2.102-3.4 2.76-5.284.115-.33.554-.83 1.298-.537.35-.747 2.325-4.397 2.61-5.002.219-.46-.045-1.06-.54-1.266-.28-.117-.59-.096-.862.043-.586.3-1.312-.054-1.386-.702-.17-1.472-1.124-2.72-2.468-3.35-.68-.32-1.26-.787-1.71-1.359-.285.512-.654.972-1.06 1.409-1.793 1.933-5.542 2.793-8.46.438-1.14-.92-2.833-.864-3.878.196-.569.577-.903 1.355-.903 2.15v.372c.003.694-.734 1.158-1.369.845-.262-.13-.563-.135-.833-.028-.428.17-.794.725-.54 1.266.283.607 2.3 4.311 2.599 4.988.832-.29 1.222.305 1.309.551.659 1.878 1.586 3.652 2.756 5.272 1.258 1.743 3.204 2.742 5.338 2.742s4.08-1 5.34-2.744zM40.63 5.67V.945c0-.522-.423-.945-.945-.945h-4.724c-.522 0-.945.423-.945.945s.423.945.945.945h3.78v3.78c0 .521.422.944.944.944s.945-.423.945-.945zm0 25.796V26.74c0-.522-.423-.945-.945-.945s-.945.423-.945.945v3.78h-3.78c-.521 0-.944.423-.944.945 0 .521.423.944.945.944h4.724c.522 0 .945-.423.945-.944zM1.89 5.669V1.89h3.78c.521 0 .944-.422.944-.944S6.191 0 5.67 0H.945C.423 0 0 .423 0 .945v4.724c0 .522.423.945.945.945s.945-.423.945-.945zm4.724 25.796c0-.522-.423-.945-.945-.945H1.89v-3.78c0-.522-.422-.945-.944-.945S0 26.218 0 26.74v4.725c0 .521.423.944.945.944h4.724c.522 0 .945-.423.945-.944z" transform="translate(1046 254) translate(136 50)"/>
                </g>
            </g>
        </g>
    </g>
</svg>
