<svg xmlns="http://www.w3.org/2000/svg" width="73" height="56">
  <path fill="#fff" d="M12.5 50.27c-.2-.2-.46-.37-.75-.48-.29-.12-.6-.17-.95-.17-.18 0-.38.02-.58.05a2.22 2.22 0 0 0-1.1.49c-.17.14-.32.31-.43.51a1.9 1.9 0 0 0-.81-.77c-.35-.2-.75-.28-1.18-.28-.15 0-.3 0-.47.02-.17.03-.31.09-.46.15-.14.05-.31.14-.46.25-.14.12-.26.26-.37.43v-.71H3.69v5.9h1.27v-3.28a1.58 1.58 0 0 1 .43-1.14c.15-.14.3-.23.47-.28.17-.06.37-.12.58-.12.43 0 .75.14.98.4.23.26.34.66.34 1.14v3.28h1.27v-3.28a1.58 1.58 0 0 1 .43-1.14c.15-.14.3-.23.47-.28.17-.06.37-.12.58-.12.43 0 .75.14.98.4.23.26.34.66.34 1.14v3.28h1.27v-3.7c0-.35-.05-.66-.17-.95a1.4 1.4 0 0 0-.43-.74zM19.2 50.5a2.22 2.22 0 0 0-1.88-.85c-.43 0-.8.08-1.18.22a2.7 2.7 0 0 0-.96.66 3.15 3.15 0 0 0-.86 2.22c0 .46.08.86.23 1.26.14.37.37.7.63.96a2.83 2.83 0 0 0 2.14.89c.43 0 .8-.09 1.1-.23.31-.14.57-.37.78-.63v.72h1.3v-5.9h-1.3v.68zm-.06 2.96c-.09.23-.2.43-.38.6a1.4 1.4 0 0 1-.57.4 2.03 2.03 0 0 1-1.48 0c-.23-.11-.4-.23-.57-.4a2.04 2.04 0 0 1-.35-.6 2.1 2.1 0 0 1-.12-.74 2.04 2.04 0 0 1 .46-1.34c.15-.17.35-.31.58-.4.23-.11.46-.14.75-.14.26 0 .52.06.73.14.23.09.4.23.57.4.15.17.3.37.38.6.08.23.14.49.14.74 0 .26-.06.52-.14.74zM26.47 52.72a3.42 3.42 0 0 0-1.53-.57l-.6-.08c-.15-.03-.27-.06-.38-.06a1.04 1.04 0 0 1-.32-.11 1.25 1.25 0 0 1-.2-.17c-.06-.06-.09-.15-.09-.26 0-.2.09-.37.3-.51.2-.15.45-.2.83-.2.17 0 .37.02.55.05.17.03.34.09.52.12.17.05.31.11.43.17l.34.17.55-1a4.98 4.98 0 0 0-2.42-.63c-.38 0-.72.06-1.04.15-.32.08-.55.2-.78.37a1.72 1.72 0 0 0-.66 1.4c0 .48.17.85.52 1.13.34.29.83.49 1.5.57l.63.09c.35.06.6.14.78.23.17.11.26.25.26.43 0 .22-.11.4-.35.5-.23.15-.57.2-1 .2a4.8 4.8 0 0 1-.67-.05c-.2-.03-.37-.08-.52-.14a1.52 1.52 0 0 1-.43-.2l-.35-.23-.6.97c.2.17.43.28.69.4.23.08.46.17.7.23.22.05.42.08.63.11.2.03.37.03.54.03.44 0 .81-.06 1.16-.14.35-.09.63-.23.86-.4.24-.17.4-.37.52-.6.12-.23.18-.49.18-.77 0-.54-.18-.91-.55-1.2zM38.68 50.47a2.42 2.42 0 0 0-.9-.63 2.97 2.97 0 0 0-1.15-.22c-.43 0-.84.08-1.21.22-.38.15-.67.37-.95.63-.26.29-.47.6-.61.97-.15.37-.23.8-.23 1.25 0 .46.08.89.23 1.29.14.37.35.7.63.97.26.28.61.48.96.62.37.15.78.23 1.24.23.46 0 .9-.06 1.3-.17.4-.11.8-.34 1.15-.66l-.63-.9a2.97 2.97 0 0 1-1.74.62c-.2 0-.4-.03-.6-.09-.2-.05-.38-.14-.52-.25a2.1 2.1 0 0 1-.4-.46c-.12-.2-.2-.43-.24-.68h4.42c0-.09.03-.15.03-.23v-.26a3.47 3.47 0 0 0-.78-2.25zm-3.64 1.74a1.84 1.84 0 0 1 .5-1.05c.14-.15.28-.23.45-.29.18-.06.38-.11.61-.11.4 0 .75.11 1.01.37.26.25.43.6.5 1.08h-3.07zM56 50.5a2.22 2.22 0 0 0-1.88-.85c-.43 0-.8.08-1.18.22a2.7 2.7 0 0 0-.95.66 3.15 3.15 0 0 0-.87 2.22c0 .46.09.86.23 1.26.15.37.38.7.64.96a2.82 2.82 0 0 0 2.13.89c.44 0 .81-.09 1.1-.23.29-.14.58-.37.78-.63v.72h1.3v-5.9H56v.68zm-.06 2.96c-.09.23-.2.43-.37.6a1.4 1.4 0 0 1-.58.4 2.03 2.03 0 0 1-1.47 0 1.9 1.9 0 0 1-.58-.4 2.04 2.04 0 0 1-.35-.6 2.1 2.1 0 0 1-.11-.74c0-.25.03-.51.11-.74.09-.23.2-.43.35-.6.14-.17.35-.31.58-.4.23-.11.46-.14.75-.14.26 0 .52.06.72.14.23.09.4.23.58.4a2.12 2.12 0 0 1 .52 1.34c0 .26-.06.52-.15.74zM32.07 54.49a1.52 1.52 0 0 1-.98.06c-.12-.03-.2-.12-.3-.2a.98.98 0 0 1-.2-.34 1.36 1.36 0 0 1-.08-.52v-2.56h2.08v-1.17H30.5v-1.8h-1.3v1.8H28v1.17h1.18v2.6c0 .76.2 1.36.58 1.73.38.37.9.57 1.59.57.37 0 .72-.06 1-.17l.56-.26-.44-1.08-.4.17zM43.82 49.62c-.38 0-.7.05-.98.2-.3.14-.55.45-.75.74v-.77H40.9v5.9h1.19v-3.25c0-.26.02-.49.11-.69.06-.2.17-.37.29-.48.11-.14.29-.23.46-.31.17-.06.38-.12.58-.12.14 0 .32.03.52.06.08.03.17.03.26.06l.37-1.23-.31-.09-.55-.02zM61.94 49.62c-.37 0-.69.05-.98.2-.29.14-.55.45-.75.74v-.77h-1.18v5.9h1.18v-3.25c0-.26.03-.49.12-.69.06-.2.17-.37.29-.48.11-.14.29-.23.46-.31.17-.06.37-.12.58-.12.14 0 .31.03.52.06.08.03.17.03.26.06l.37-1.23-.32-.09-.55-.02zM68.04 47.4v3.1a2.22 2.22 0 0 0-1.88-.85c-.43 0-.8.08-1.18.22a2.7 2.7 0 0 0-.96.66 3.15 3.15 0 0 0-.86 2.22c0 .46.08.86.23 1.26.14.37.37.7.63.96a2.83 2.83 0 0 0 2.14.89c.43 0 .8-.09 1.1-.23.31-.14.57-.37.78-.63v.72h1.3v-8.3h-1.3v-.03zm-.06 6.06c-.09.23-.2.43-.38.6a1.4 1.4 0 0 1-.58.4 2.03 2.03 0 0 1-1.47 0c-.23-.11-.4-.23-.57-.4a2.04 2.04 0 0 1-.35-.6 2.1 2.1 0 0 1-.12-.74 2.04 2.04 0 0 1 .46-1.34c.15-.17.35-.31.58-.4.23-.11.46-.14.75-.14.26 0 .52.06.72.14.24.09.4.23.58.4.15.17.3.37.38.6.08.23.14.49.14.74 0 .26-.06.52-.14.74zM46.93 51.35c.18-.17.38-.28.61-.4.23-.08.46-.14.75-.14s.58.06.81.15c.23.08.46.2.63.37l.64-1.03a3.14 3.14 0 0 0-2.08-.68 3.08 3.08 0 0 0-2.94 1.85c-.18.37-.23.8-.23 1.22a2.9 2.9 0 0 0 .9 2.2 3.14 3.14 0 0 0 2.28.88 3.26 3.26 0 0 0 2.08-.68l-.65-1.03c-.17.17-.37.29-.63.37-.26.09-.52.15-.8.15a2.2 2.2 0 0 1-.76-.15 1.72 1.72 0 0 1-.6-.4 2.2 2.2 0 0 1-.4-.6 2.15 2.15 0 0 1 0-1.53c.1-.17.25-.37.4-.55zM27.91 22.23c0-7.07 3.35-13.34 8.55-17.41A22.48 22.48 0 0 0 22.5 0C10.07 0 0 9.95 0 22.23 0 34.5 10.07 44.46 22.51 44.46c5.29 0 10.14-1.8 13.98-4.79a22.16 22.16 0 0 1-8.58-17.44z"/>
  <path fill="#fff" d="M36.46 39.64c4.72 0 8.54-7.8 8.54-17.41 0-9.62-3.82-17.41-8.54-17.41-4.72 0-8.55 7.8-8.55 17.4 0 9.63 3.83 17.42 8.55 17.42z"/>
  <path fill="#fff" d="M50.43 0C45.15 0 40.3 1.8 36.46 4.79A22.08 22.08 0 0 1 45 22.2c0 7.07-3.35 13.34-8.54 17.41 3.84 3 8.69 4.8 13.97 4.8 12.44 0 22.51-9.95 22.51-22.24C72.94 9.9 62.84 0 50.43 0z"/>
</svg>
