<svg xmlns="http://www.w3.org/2000/svg" width="141" height="34">
  <g>
    <path fill="#fff" d="M108.6 7.6h-7.8c-.5 0-1 .4-1 1l-3.2 19.7c0 .4.2.7.6.7h4c.4 0 .7-.3.7-.6l1-5.6c0-.5.4-1 1-1h2.4c5.2 0 8-2.4 8.8-7.3.4-2 0-3.8-1-5-1-1.2-3-1.9-5.5-1.9zm.9 7.2c-.4 2.8-2.6 2.8-4.6 2.8h-1.2l.8-5.2c0-.3.3-.5.6-.5h.6c1.4 0 2.7 0 3.4.8.4.5.5 1.1.4 2.1zM53.3 7.6h-7.8c-.5 0-1 .4-1 1l-3.2 19.7c0 .4.2.7.6.7h3.7c.5 0 1-.4 1-.9l1-5.3c0-.5.4-1 1-1H51c5.2 0 8-2.4 8.9-7.3.3-2 0-3.8-1-5-1-1.2-3-1.9-5.6-1.9zm.9 7.2c-.4 2.8-2.6 2.8-4.6 2.8h-1.2l.8-5.2c0-.3.3-.5.7-.5h.5c1.4 0 2.7 0 3.4.8.4.5.5 1.1.4 2.1zM76.4 14.7h-3.7c-.3 0-.6.3-.6.6l-.2 1-.2-.4c-.8-1.1-2.6-1.5-4.4-1.5-4.1 0-7.6 3-8.3 7.4a7 7 0 0 0 1.4 5.7 5.9 5.9 0 0 0 4.6 1.8c3.4 0 5.2-2 5.2-2l-.2 1c0 .3.2.7.6.7H74c.5 0 1-.4 1-1l2-12.6c.1-.3-.1-.7-.6-.7zM71.3 22c-.4 2.1-2 3.5-4.2 3.5-1 0-2-.3-2.5-1-.6-.6-.8-1.5-.6-2.6.4-2 2-3.5 4.1-3.5 1 0 2 .3 2.5 1 .6.7.9 1.6.7 2.6zM131.7 14.7H128c-.3 0-.6.3-.6.6l-.2 1-.2-.4c-.8-1.1-2.6-1.5-4.4-1.5-4.1 0-7.6 3-8.3 7.4a7 7 0 0 0 1.4 5.7 5.9 5.9 0 0 0 4.6 1.8c3.4 0 5.2-2 5.2-2l-.2 1c0 .3.2.7.6.7h3.4c.5 0 1-.4 1-1l2-12.6c.1-.3-.1-.7-.6-.7zm-5.1 7.2c-.4 2.1-2 3.5-4.2 3.5-1 0-2-.3-2.5-1-.6-.6-.8-1.5-.6-2.6.3-2 2-3.5 4.1-3.5 1 0 2 .3 2.5 1 .6.7.9 1.6.7 2.6zM96.2 14.7h-3.7c-.3 0-.7.2-.9.5l-5.2 7.5-2.2-7.2a1 1 0 0 0-1-.8h-3.7c-.4 0-.7.5-.6 1L83 27.5 79.2 33c-.4.4 0 1 .5 1h3.7c.4 0 .7-.2.9-.5l12.4-17.7c.4-.5 0-1-.5-1zM136.1 8.1L133 28.3c-.1.3.2.7.6.7h3.2c.5 0 1-.4 1-1L141 8.4c0-.4-.2-.7-.6-.7h-3.6c-.4 0-.6.2-.7.5zM26.1 8.6c.4-2.6 0-4.4-1.4-6C23.1.8 20.2 0 16.6 0H6c-.8 0-1.4.6-1.5 1.3L0 29.2c-.1.5.3 1 1 1h6.5L7 33.1c0 .4.3.9.8.9h5.5c.7 0 1.3-.5 1.4-1.1v-.3l1-6.6.2-.3c0-.7.6-1.2 1.3-1.2h.8c5.4 0 9.6-2.1 10.8-8.4.5-2.6.2-4.8-1.1-6.3-.5-.5-1-.9-1.6-1.2z"/>
    <path fill="#fff" d="M26.1 8.6c.4-2.6 0-4.4-1.4-6C23.1.8 20.2 0 16.6 0H6c-.8 0-1.4.6-1.5 1.3L0 29.2c-.1.5.3 1 1 1h6.5L9 19.8v.4c0-.8.7-1.3 1.5-1.3h3c6.2 0 11-2.5 12.4-9.7l.1-.6z"/>
    <path fill="#fff" d="M11 8.7c0-.5.3-.8.6-1l.6-.2h8.4c1 0 1.9 0 2.7.2.3 0 .5 0 .7.2l.7.1.3.1 1.1.5c.4-2.6 0-4.4-1.4-6C23.1.8 20.2 0 16.6 0H6c-.8 0-1.4.6-1.5 1.3L0 29.2c-.1.5.3 1 1 1h6.5L9 19.8l1.8-11.1z"/>
  </g>
</svg>
