<svg xmlns="http://www.w3.org/2000/svg" width="110" height="49">
  <path fill="#fff" d="M53.9 27.8h1.7v3.8H57l2.2-3.8H61l-2.7 4.5 2.9 5h-2L56.9 33h-1.2v4.1h-1.8v-9.4zM65 30.3c2 0 3.8 1.5 3.8 3.5 0 2.1-1.7 3.6-3.8 3.6-2 0-3.7-1.5-3.7-3.6 0-2 1.6-3.5 3.7-3.5zm0 5.6a2 2 0 0 0 2-2 2 2 0 0 0-2-2.2c-1.1 0-2 .9-2 2.1 0 1.3.9 2.1 2 2.1zm5.1-5.5h1.7v5.4h2.1v-5.4h1.6v5.4h2.2v-5.4h1.6v6.8h-9.1v-6.8zm14-.1c2 0 3 1.4 3 3.2v.6h-4.7c0 1.2 1 1.8 2 1.8.7 0 1.4-.3 2-.7l.7 1.2c-.7.6-1.8 1-2.8 1-2.3 0-3.7-1.6-3.7-3.5 0-2.2 1.5-3.6 3.5-3.6zm1.4 2.7c0-.9-.6-1.4-1.4-1.4-.9 0-1.5.5-1.7 1.4h3zm2.5 2.8c.8-.1 1.4-.8 1.4-3.2v-2.2h5v6.8h-1.7v-5.4H91v.8c0 3-.8 4.6-3 4.7v-1.5zm11.2-5.5c2 0 3 1.4 3 3.2v.6h-4.7c.1 1.2 1 1.8 2 1.8.8 0 1.5-.3 2-.7l.7 1.2c-.7.6-1.8 1-2.8 1-2.2 0-3.6-1.6-3.6-3.5 0-2.2 1.4-3.6 3.4-3.6zm1.3 2.7c0-.9-.6-1.4-1.3-1.4-.9 0-1.5.5-1.7 1.4h3zm4.9-2.6V33h.8l1.7-2.6h1.8l-2.1 3.3 2.4 3.5h-2l-1.8-2.7h-.9v2.7h-1.7v-6.8h1.8zM77.8 7.2v16c0 .3-.2.5-.5.5H74a.4.4 0 0 1-.4-.5v-16c0-.2.2-.4.4-.4h3.3c.3 0 .5.2.5.4zm25.7-.4h-3.7c-.2 0-.4.1-.4.3l-3 9.5L93.4 7c-.1-.2-.3-.3-.5-.3h-2.5c-.2 0-.4.1-.5.3l-3.2 9.5L83.7 7c0-.2-.2-.3-.4-.3h-3.7c-.2 0-.3 0-.4.2v.3l5.4 16c0 .3.2.4.4.4h3l.3-.3 3.2-9.4 3.2 9.4c0 .2.2.3.4.3h3l.3-.3 5.5-16-.1-.4c0-.2-.2-.2-.3-.2zm5.5 0h-3.3c-.2 0-.4.2-.4.4v16c0 .3.2.5.4.5h3.3c.3 0 .5-.2.5-.5v-16c0-.2-.3-.4-.5-.4zM71.7 23c.2.2 0 .6-.3.6h-4l-.4-.2-.7-.9a8.9 8.9 0 0 1-13.7-7.4c0-4.8 4-8.8 8.9-8.8A8.9 8.9 0 0 1 69 20l2.7 3.1zm-8-3.6l-1.8-2c-.2-.3 0-.6.3-.6h3.7c.2-.6.3-1.1.3-1.7 0-2.6-2-5-4.7-5a4.8 4.8 0 0 0-4.7 5 4.8 4.8 0 0 0 6.9 4.3zM38 31c-.4-.2-.7 0-1 .2-.2.5 0 1.3.5 2 .5.9 1 1.2 1.3 1.2.3 0 .6-.3.4-1.3 0-.6-.4-1.8-1.2-2.1zm-4.8 3.5c-.5 0-.8.2-1 .5-.6.7-.4 2 .5 2.7.4.3 1 .5 1.5.5.6 0 1-.2 1.3-.5.5-.7.3-1.7-.7-2.5-.6-.4-1.1-.7-1.6-.7zM22 43.6C9.8 43.6 0 34 0 21.8 0 9.8 9.8 0 22 0a21.9 21.9 0 0 1 18.9 33h-.3c-.8-5.4-4-8.4-8.8-9.3-.5 0-.5-.3 0-.4a22 22 0 0 1 4.7.1A14.4 14.4 0 0 0 22 7.4c-8 0-14.5 6.4-14.5 14.4S14 36.2 22 36.2h.7c-.3-1.4-.3-2.8-.3-4 0-.8.2-1 .6-.2 2 3.4 4.9 6.5 10.5 7.8 4.6 1 9.2 2.1 14.2 8.4.4.5-.3 1-.8.6-5-4.4-9.6-5.9-13.8-5.9-4.7 0-7.9.7-11.1.7z"/>
</svg>
