<svg xmlns="http://www.w3.org/2000/svg" width="100" height="34">
  <path fill="#fff" d="M79.5 3.3l8.3-1.5v31.8h-8.3V3.3zm12.2 0v30.3h8.3V1.8l-8.3 1.5zm-24 30.3H76V10.4h-8.3v23.2zm-55-20c-1.1 0-3.5-.1-3.5-2.3 0-2.7 3.5-2.7 4.8-2.7a28.6 28.6 0 0 1 9.6 2.2h.1V3.5h-.1a30 30 0 0 0-10.9-1.7C3.3 1.9 0 7.3 0 11.9c0 2.8 1.1 9 11.9 9.8 1 0 3.3.2 3.3 2.5 0 1.8-2 3-5.3 3-3.6 0-7.2-1-9.3-1.9v7.4a44 44 0 0 0 11 1.3C21 34 25 28.9 25 23.7c0-5.8-4.6-9.5-12.3-10zM63 10c-7.7.3-11.6 3.7-11.6 10.5v13.1h8.3V23c0-4 .6-5.8 5.5-6v-6.8C64.4 10 63 10 63 10zm-22.6.4c-.2.4-1.5 4.2-4.8 8V1.8l-8.5 1.8v30h8.6v-9.3c2.4 3.8 3.7 9.3 3.7 9.3h10.2a66 66 0 0 0-5.4-12c4-5 5.7-10.3 6-11.2h-9.8zm31.4-2.2C74.1 8.2 76 6.3 76 4a4.1 4.1 0 0 0-8.2 0c0 2.2 1.9 4 4.1 4z"/>
</svg>
