<svg xmlns="http://www.w3.org/2000/svg" width="100" height="30">
  <g>
    <path fill="#fff" d="M35.2 29.6L40.3.5h8l-5 29h-8zM72.7 1.2C71 .6 68.6 0 65.5 0c-8 0-13.7 4-13.7 9.6 0 4.1 4 6.5 7.1 7.9 3.1 1.4 4.2 2.3 4.2 3.6 0 2-2.5 2.8-4.8 2.8-3.3 0-5-.4-7.6-1.5l-1.2-.5-1.1 6.5a26 26 0 0 0 9 1.6c8.6 0 14-3.9 14.1-10 .1-3.2-2-5.8-6.7-7.8-2.9-1.3-4.6-2.2-4.6-3.6 0-1.3 1.5-2.5 4.6-2.5 2.7 0 4.6.5 6 1l.8.4 1-6.3zM93.5.6h-6.3c-2 0-3.4.5-4.3 2.3L71 29.6h8.5l1.7-4.4h10.4l1 4.4h7.4L93.5.6zm-10 18.7l3.2-8.2 1.1-2.8.6 2.6 1.9 8.4h-6.8zM28.5.5l-8 19.8-.9-4c-1.4-4.6-6-9.7-11.1-12.2l7.2 25.5h8.6L37.1.5h-8.6z"/>
    <path fill="#fff" d="M13.1.5H.1l-.1.6c10.2 2.4 16.9 8.3 19.7 15.2L16.8 3C16.3 1.1 15 .6 13.1.5z"/>
  </g>
</svg>
