<svg xmlns="http://www.w3.org/2000/svg" width="126" height="34">
  <g>
    <path fill="#fff" d="M16.5 0c2.6 0 5 .6 7.2 1.7l1 .5-1.5 1.4-2.3-2.4L17 4.7l-2.3-2.5-7.2 6.7 4.6 5.2-1.8 1.6L15 21l-1.8 1.6 6.4 7.5 3.8-3.7 3.3 4-2.1 1.4a16.3 16.3 0 0 1-8.1 2.3C7.4 34 0 26.4 0 17 0 7.6 7.4 0 16.5 0z"/>
    <path fill="#fff" d="M13.4 16l4-3.7 3.5 4-4 3.7-3.5-4zM16.2 22.9l4-3.6 3.5 4-4 3.7-3.5-4.1zM10.6 9l4-3.6 3.5 4-4 3.7-3.5-4zM17.8 7l3-2.7 2.6 3-3 2.8-2.6-3zM23 19.6l3-2.8 2.6 3-2.9 2.8-2.7-3zM25.6 25.7l3-2.7 2.6 3-3 2.7-2.6-3zM26.8 11.6l2-1.7 1.7 2-2 1.8-1.7-2zM24.3 5.7l2-1.9 1.7 2-2 1.9-1.7-2zM29.3 17.7l2-1.9 1.7 2-2 1.9-1.7-2zM20.6 13.2l2.9-2.7 2.6 3-3 2.7-2.5-3zM78.2 10.5H78c-.7-.7-1.4-.9-2.4-.9-2 0-3.5 1.5-3.5 3.9v11.1h2.1V13.5c0-1.6 1-1.7 1.4-1.7.3 0 .7 0 1 .3.2.3.4.8.4 1.4v11.1h2V13.5c0-1.6 1-1.7 1.5-1.7.2 0 .6 0 .9.3.3.3.4.8.4 1.4v11.1H84V13.5c0-1.3-.4-2.3-1-3-.7-.6-1.5-.9-2.5-.9-.9 0-1.7.3-2.3.9zM93.7 14.7a4.5 4.5 0 0 0-3.5-1.4c-1.5 0-2.6.6-3.3 1.4-1.1 1.3-1.4 3-1.4 4.4 0 1.3.2 3 1.4 4.3.7.8 1.8 1.5 3.3 1.5 1.6 0 2.8-.7 3.5-1.5 1-1.2 1.3-3 1.3-4.3 0-1.4-.2-3.1-1.3-4.4zm-.9 4.8c0 1 0 2.3-.7 3.1-.3.4-1 .7-1.9.7-.9 0-1.5-.3-1.7-.7-.8-.8-.8-2-.8-3v-1c0-1.1 0-2.3.8-3 .3-.4.8-.9 1.7-.9 1 0 1.6.4 1.9.8.7.9.7 2 .7 3v1zM96.7 13.5h1.8v1a5 5 0 0 1 1.5-.9 4 4 0 0 1 1.8-.3c.8 0 1.8.2 2.6 1 .7.9.9 2 .9 2.9v7.3h-2V17c0-1.7-1.1-2.3-2-2.3-1 0-1.9.4-2.7 1.1v8.7h-1.9v-11zM114.9 22.4l-1.3.6-1.7.2c-1 0-1.9-.3-2.4-1-.4-.3-.7-1-.7-2.4v-.3h6.6V19c0-1.8 0-3.2-1.2-4.4a4 4 0 0 0-3-1.3c-1.6 0-2.7.6-3.4 1.4-1 1.3-1.2 3-1.2 4.2 0 1.2.2 3 1.3 4.3.7.9 2 1.6 3.7 1.6a6 6 0 0 0 2.6-.5l1.3-.6-.6-1.3zm-6.1-4.6c0-1.2.3-2 .7-2.3.3-.4.8-.8 1.6-.8.6 0 1 .2 1.5.6.7.7.7 1.5.7 2.3v.4h-4.5v-.2zM126 13.5l-4.2 13c-.1.7-.6 1.6-1 2.1-.6.7-1.3 1-2.1 1-.6 0-1.2-.2-1.7-.5l-1-.8 1-1.1.5.4 1 .3c.6 0 1-.3 1.2-.6l.6-1.4.2-.8-4.5-11.6h2.1l2.7 7 .6 2 .8-2.7 2-6.3h1.8zM43.5 24v-.1c.8.6 1.5.9 2.4.9 2.1 0 3.5-1.6 3.5-3.9V9.8h-2.1v11.1c0 1.6-1 1.7-1.4 1.7-.2 0-.6 0-.8-.3-.4-.3-.5-.8-.5-1.4V9.8h-2.2v11.1c0 1.6-1 1.7-1.4 1.7-.2 0-.6 0-.8-.3-.4-.3-.5-.8-.5-1.4V9.8h-2.2v11.1c0 1.2.4 2.2 1 3 .7.6 1.6.9 2.5.9a3 3 0 0 0 2.5-.9zM59.3 22.4l-1.2.6-1.7.2c-1 0-1.9-.3-2.4-1-.3-.3-.7-1-.7-2.4v-.3h6.5V19c0-1.8 0-3.2-1-4.4a4.1 4.1 0 0 0-3.2-1.3c-1.5 0-2.6.6-3.3 1.4-1.1 1.3-1.2 3-1.2 4.2 0 1.2.1 3 1.3 4.3.7.9 2 1.6 3.7 1.6.9 0 1.7-.1 2.6-.5l1.2-.6-.6-1.3zm-6-4.6c0-1.2.3-2 .7-2.3a2 2 0 0 1 1.6-.8c.5 0 1 .2 1.5.6.7.7.7 1.5.7 2.3v.5h-4.5v-.3zM69 14.4a4.3 4.3 0 0 0-3-1.1l-1.3.1c-.4 0-.7.3-1 .4V9.5h-2v14c1.2.8 2.5 1.2 4 1.2 1.2 0 2.7-.2 3.8-1.7a7 7 0 0 0 1-4.1c0-1 0-3.2-1.5-4.5zm-3.3.3c.7 0 1.6.3 2 .8.7.8.7 2 .7 3v.8c0 1.9-.3 2.7-.6 3-.3.5-1 1-2 1l-1.3-.2-.9-.5v-7.2"/>
  </g>
</svg>
