<?xml version="1.0"?>
<svg xmlns="http://www.w3.org/2000/svg" xmlns:xlink="http://www.w3.org/1999/xlink" version="1.1" id="Capa_1" x="0px" y="0px" viewBox="0 0 54.34 54.34" style="enable-background:new 0 0 54.34 54.34;" xml:space="preserve" width="512px" height="512px" class=""><g><g>
	<g>
		<path d="M18.386,24.478c-1.045,0-2.057,0.879-2.25,1.698h-0.03v-1.488h-1.595v7.702h1.698v-3.667c0-1.697,0.925-2.634,2.087-2.634    c0.237,0,0.49,0.043,0.729,0.073l0.001-1.64C18.877,24.508,18.773,24.478,18.386,24.478z" data-original="#000000" class="active-path" data-old_color="#000000" fill="#FFFFFF"/>
	</g>
</g><g>
	<g>
		<polygon points="9.475,24.688 7.911,30.439 7.881,30.439 6.495,24.688 4.781,24.688 3.336,30.439 3.307,30.439 1.802,24.688     0,24.688 2.384,32.388 4.171,32.388 5.586,26.667 5.616,26.667 7.046,32.388 8.79,32.388 11.204,24.688   " data-original="#000000" class="active-path" data-old_color="#000000" fill="#FFFFFF"/>
	</g>
</g><g>
	<g>
		<rect x="11.885" y="24.724" width="1.691" height="7.663" data-original="#000000" class="active-path" data-old_color="#000000" fill="#FFFFFF"/>
	</g>
</g><g>
	<g>
		<path d="M22.395,24.477c-2.294,0-3.723,1.878-3.723,4.068c0,2.367,1.356,4.052,3.769,4.052c1.682,0,3.113-0.936,3.486-2.622    h-1.608c-0.299,0.845-0.896,1.28-1.878,1.28c-1.415,0-2.07-1.071-2.07-2.276h5.66C26.315,26.667,24.825,24.478,22.395,24.477z     M20.37,27.857c0.044-1.148,0.848-2.041,2.024-2.041c1.149,0,1.878,0.971,1.938,2.041H20.37z" data-original="#000000" class="active-path" data-old_color="#000000" fill="#FFFFFF"/>
	</g>
</g><g>
	<g>
		<rect x="11.885" y="21.742" width="1.691" height="1.693" data-original="#000000" class="active-path" data-old_color="#000000" fill="#FFFFFF"/>
	</g>
</g><g>
	<g>
		<path d="M46.425,24.478c-1.043,0-2.055,0.879-2.251,1.698h-0.027v-1.488h-1.594v7.702h1.698v-3.667    c0-1.697,0.923-2.634,2.085-2.634c0.237,0,0.492,0.043,0.729,0.073v-1.64C46.919,24.508,46.813,24.478,46.425,24.478z" data-original="#000000" class="active-path" data-old_color="#000000" fill="#FFFFFF"/>
	</g>
</g><g>
	<g>
		<path d="M52.644,21.75v3.936h-0.029c-0.521-0.849-1.591-1.208-2.562-1.208c-1.686,0-3.338,1.221-3.338,4.008    c0,2.306,1.176,4.11,3.604,4.11c0.971,0,1.939-0.372,2.383-1.252h0.031v1.043h1.607V21.75H52.644z M50.541,31.257    c-1.475,0-2.131-1.314-2.131-2.637c0-1.385,0.568-2.8,2.16-2.8c1.313,0,2.131,1.013,2.131,2.709    C52.701,29.87,52.063,31.255,50.541,31.257z" data-original="#000000" class="active-path" data-old_color="#000000" fill="#FFFFFF"/>
	</g>
</g><g>
	<g>
		<path d="M30.248,31.255c-1.475,0-2.043-1.357-2.043-2.637c0-2.341,1.238-2.801,2.118-2.8c0.939,0,1.623,0.507,1.758,1.445h1.697    c-0.162-1.891-1.684-2.787-3.469-2.787c-2.533,0-3.802,1.819-3.802,4.142c0,2.265,1.328,3.979,3.741,3.979    c1.98,0,3.216-1.103,3.529-3.1H32.08C31.916,30.603,31.23,31.255,30.248,31.255z" data-original="#000000" class="active-path" data-old_color="#000000" fill="#FFFFFF"/>
	</g>
</g><g>
	<g>
		<path d="M41.569,31.255c-0.312,0-0.4-0.163-0.4-0.576v-3.962c0-1.625-1.58-2.237-3.085-2.237c-1.698,0-3.384,0.583-3.5,2.563    h1.698c0.072-0.835,0.744-1.222,1.697-1.222c0.687,0,1.594,0.163,1.594,1.042c0,0.999-1.088,0.864-2.311,1.085    c-1.429,0.166-2.964,0.477-2.964,2.399c0,1.505,1.252,2.25,2.638,2.25c0.908,0,1.996-0.285,2.668-0.938    c0.133,0.701,0.625,0.938,1.31,0.938c0.284,0,0.817-0.104,1.073-0.192v-1.178C41.807,31.255,41.673,31.255,41.569,31.255z     M39.466,29.796c0,1.07-1.162,1.458-1.903,1.458c-0.595,0-1.564-0.221-1.564-0.981c0-0.893,0.656-1.162,1.385-1.28    c0.746-0.136,1.564-0.12,2.085-0.464L39.466,29.796z" data-original="#000000" class="active-path" data-old_color="#000000" fill="#FFFFFF"/>
	</g>
</g></g> </svg>
