<?xml version="1.0" encoding="UTF-8"?>
<svg width="26px" height="24px" viewBox="0 0 26 24" version="1.1" xmlns="http://www.w3.org/2000/svg" xmlns:xlink="http://www.w3.org/1999/xlink">
    <title>bank</title>
    <g id="Page-1" stroke="none" stroke-width="1" fill="none" fill-rule="evenodd">
        <g id="bank" fill="#FFFFFF">
            <path d="M11,9 L11,24 L5,24 L5,9 L11,9 Z M21,9 L21,24 L15,24 L15,9 L21,9 Z M9,11 L7,11 L7,22 L9,22 L9,11 Z M19,11 L17,11 L17,22 L19,22 L19,11 Z" id="Shape" fill-rule="nonzero"></path>
            <rect id="Rectangle" x="3" y="22" width="20" height="2"></rect>
            <path d="M25.8507811,11 L13,0.719375153 L0.149218941,11 L25.8507811,11 Z M13,3.28 L20.15,9 L5.849,9 L13,3.28 Z" id="Path" fill-rule="nonzero"></path>
        </g>
    </g>
</svg>