<?xml version="1.0" encoding="UTF-8"?>
<svg width="33px" height="30px" viewBox="0 0 33 30" version="1.1" xmlns="http://www.w3.org/2000/svg" xmlns:xlink="http://www.w3.org/1999/xlink">
    <title>bonus-big</title>
    <g id="Page-1" stroke="none" stroke-width="1" fill="none" fill-rule="evenodd">
        <g id="bonus-big" fill="#FD46A5" fill-rule="nonzero">
            <path d="M24.3842686,11.08392 L24.3842686,6.98164 C24.3842686,5.02164 23.044429,3.2547 20.6124347,2.00716 C18.467131,0.90662 15.6431313,0.3 12.6621343,0.3 C9.68016221,0.3 6.8571376,0.90662 4.71183392,2.00716 C2.27983966,3.2547 0.94,5.02164 0.94,6.98164 L0.94,23.01836 C0.94,24.97836 2.27983966,26.7453 4.71183392,27.99284 C6.8571376,29.09436 9.68113735,29.7 12.6621343,29.7 C14.9342059,29.7 17.0990124,29.3521 18.9693271,28.69256 C20.2058022,29.3374 21.603175,29.7 23.0814842,29.7 C28.1092959,29.7 32.2,25.50266 32.2,20.34394 C32.2,15.63994 28.7967683,11.73464 24.3842686,11.08392 Z M3.01605563,16.24 C3.4003041,16.5260606 3.82149954,16.796229 4.27858632,17.0459645 C6.60096718,18.3218857 9.15981095,18.7799631 12.3868647,18.7799631 C12.8956773,18.7799631 13.887965,18.8151531 14.3883325,18.7799631 C14.318661,19.3021373 14.293326,20.0257627 14.293326,20.5706401 C14.293326,21.0757868 14.3260504,21.5729874 14.3883325,22.0599716 C13.8921875,22.0997023 13.3907643,22.119 12.8851187,22.119 C7.23645503,22.119 3.015,19.9499312 3.015,17.75907 L3.015,16.005837 L3.01605563,16.24 Z M14.9591025,16.64 C14.1664283,16.7456431 13.7224438,16.764 12.8970057,16.764 C7.24153912,16.764 3.015,14.4112414 3.015,12.1457837 L3.015,10.686 C3.40076814,10.9806269 3.96934321,11.3646851 4.42698048,11.6240976 C6.75215829,12.9422888 9.66606543,13.3040966 12.8970057,13.3040966 C14.6356046,13.3040966 16.9755404,12.8967706 18.5270681,12.4976745 C17.0943399,13.636 15.5172643,15 14.9591025,16.64 Z M12.665,2.428 C18.1876898,2.428 22.315,4.74639648 22.315,6.819 C22.315,8.89160352 18.1876898,11.21 12.665,11.21 C7.14231016,11.21 3.015,8.89160352 3.015,6.82007333 C3.015,4.74639648 7.14231016,2.42907333 12.665,2.42907333 L12.665,2.428 Z M3.015,23.1888472 L3.015,21.5192871 C3.39945037,21.8090666 3.81971255,22.0595504 4.27578654,22.3146949 C6.59302162,23.6111981 9.64334562,24.3258335 12.8632491,24.3258335 C13.6405761,24.3258335 14.327332,24.1900822 15.0846465,24.1069582 C15.513335,25.1483171 16.378804,26.2208184 17.0623884,27.0566763 C15.8089748,27.3441467 14.2398974,27.5797762 12.8632491,27.5797762 C7.2271014,27.5797762 3.015,25.4170318 3.015,23.1888472 Z M23.35,27.572956 C19.501571,27.572956 16.371,24.3793762 16.371,20.453956 C16.371,16.5400198 19.4848524,13.3547919 23.3176076,13.336 L23.35,13.338088 L23.3823924,13.336 C27.2161925,13.3537479 30.329,16.5400198 30.329,20.453956 C30.329,24.3793762 27.198429,27.574 23.35,27.574 L23.35,27.572956 Z" id="Shape"></path>
        </g>
    </g>
</svg>