<?xml version="1.0" encoding="UTF-8"?>
<svg width="20px" height="20px" viewBox="0 0 20 20" version="1.1" xmlns="http://www.w3.org/2000/svg" xmlns:xlink="http://www.w3.org/1999/xlink">
    <title>card-holder</title>
    <g id="Page-1" stroke="none" stroke-width="1" fill="none" fill-rule="evenodd">
        <g id="card-holder" transform="translate(1.000000, 0.000000)" fill="#696579" fill-rule="nonzero">
            <path d="M11,8.432 L7,8.432 C2.71978644,8.432 -0.75,11.9017864 -0.75,16.182 L-0.75,19.75 L18.75,19.75 L18.75,16.182 C18.75,11.9017864 15.2802136,8.432 11,8.432 Z M11,9.932 L11.2291273,9.93612197 C14.5747697,10.0566878 17.25,12.8069199 17.25,16.182 L17.25,18.25 L0.75,18.25 L0.75,16.182 C0.75,12.7302136 3.54821356,9.932 7,9.932 L11,9.932 Z" id="Shape"></path>
            <polygon id="Path" points="5.659 15.727 5.659 19 4.159 19 4.159 15.727"></polygon>
            <polygon id="Path" points="13.841 15.727 13.841 19 12.341 19 12.341 15.727"></polygon>
            <path d="M9,0.25 C6.32638953,0.25 4.159,2.41738953 4.159,5.091 C4.159,7.76461047 6.32638953,9.932 9,9.932 C11.6736105,9.932 13.841,7.76461047 13.841,5.091 C13.841,2.41738953 11.6736105,0.25 9,0.25 Z M9,1.75 C10.8451833,1.75 12.341,3.24581665 12.341,5.091 C12.341,6.93618335 10.8451833,8.432 9,8.432 C7.15481665,8.432 5.659,6.93618335 5.659,5.091 C5.659,3.24581665 7.15481665,1.75 9,1.75 Z" id="Oval"></path>
        </g>
    </g>
</svg>