<svg xmlns="http://www.w3.org/2000/svg" width="26" height="18" viewBox="0 0 26 18">
    <g fill="none" fill-rule="evenodd">
        <g fill="#696579" fill-rule="nonzero">
            <g>
                <g>
                    <g>
                        <g>
                            <path d="M23.096 0H2.836C1.272 0 0 1.285 0 2.864v12.272C0 16.716 1.272 18 2.836 18h20.26c1.564 0 2.836-1.285 2.836-2.864V2.864C25.932 1.284 24.66 0 23.096 0zM2.836 1.636h20.26c.67 0 1.216.55 1.216 1.228V4.5H1.62V2.864c0-.677.545-1.228 1.215-1.228zm20.26 14.728H2.836c-.67 0-1.215-.55-1.215-1.228v-9h22.69v9c0 .677-.545 1.228-1.215 1.228z" transform="translate(-400 -425) translate(330 80) translate(60 294) translate(0 48) translate(10 3)"/>
                            <path d="M5.673 13.91h-.81c-.448 0-.811-.367-.811-.82v-.817c0-.452.363-.818.81-.818h.81c.448 0 .811.366.811.818v.818c0 .452-.363.818-.81.818z" transform="translate(-400 -425) translate(330 80) translate(60 294) translate(0 48) translate(10 3)"/>
                        </g>
                    </g>
                </g>
            </g>
        </g>
    </g>
</svg>
