<svg xmlns="http://www.w3.org/2000/svg" width="17" height="17" viewBox="0 0 17 17">
    <g fill="none" fill-rule="evenodd" opacity=".6">
        <g fill="#FFF">
            <g>
                <g>
                    <path d="M1.707.293l6.364 6.363L14.435.293c.36-.36.928-.388 1.32-.083l.094.083c.39.39.39 1.024 0 1.414L9.485 8.071l6.364 6.364c.39.39.39 1.024 0 1.414-.39.39-1.023.39-1.414 0L8.071 9.485l-6.364 6.364c-.36.36-.928.388-1.32.083l-.094-.083c-.39-.39-.39-1.023 0-1.414l6.363-6.364L.293 1.707c-.39-.39-.39-1.024 0-1.414.39-.39 1.024-.39 1.414 0z" transform="translate(-1163 -130) translate(220 90) translate(943 40)"/>
                </g>
            </g>
        </g>
    </g>
</svg>
