<svg xmlns="http://www.w3.org/2000/svg" width="26" height="27" viewBox="0 0 26 27">
    <g fill="none" fill-rule="evenodd">
        <g fill="#FFF" fill-rule="nonzero">
            <g>
                <g>
                    <g>
                        <g>
                            <path d="M15.75 0C10.365 0 6 4.365 6 9.75s4.365 9.75 9.75 9.75 9.75-4.365 9.75-9.75S21.135 0 15.75 0zm0 1.5C20.306 1.5 24 5.194 24 9.75S20.306 18 15.75 18 7.5 14.306 7.5 9.75s3.694-8.25 8.25-8.25z" transform="translate(-884 -474) translate(220 90) translate(600) translate(64 100) translate(0 284)"/>
                            <path d="M15.477 15.11c.288 0 .516-.227.516-.515v-.72c1.524-.144 2.556-1.02 2.556-2.34 0-1.284-.78-2.016-2.604-2.472V6.759c.408.096.816.276 1.236.528.12.072.24.108.36.108.372 0 .672-.288.672-.66 0-.288-.168-.468-.36-.576-.552-.348-1.152-.576-1.86-.66v-.264c0-.288-.228-.516-.516-.516-.288 0-.528.228-.528.516v.252c-1.5.12-2.52 1.008-2.52 2.292 0 1.356.816 2.016 2.568 2.472v2.364c-.66-.12-1.212-.396-1.776-.804-.108-.084-.252-.132-.396-.132-.372 0-.66.288-.66.66 0 .252.12.444.324.576.732.516 1.56.84 2.46.936v.744c0 .288.24.516.528.516zm-.48-6.3c-.924-.3-1.152-.611-1.152-1.115 0-.528.384-.936 1.152-1.008V8.81zm.948 3.853v-2.184c.924.288 1.188.612 1.188 1.14 0 .576-.42.96-1.188 1.044z" transform="translate(-884 -474) translate(220 90) translate(600) translate(64 100) translate(0 284) rotate(-45 15.357 9.915)"/>
                            <path d="M6.22 20.22c.293-.293.767-.293 1.06 0 .267.266.29.683.073.976l-.073.084-5 5c-.293.293-.767.293-1.06 0-.267-.266-.29-.683-.073-.976l.073-.084 5-5zM12.22 22.22c.293-.293.767-.293 1.06 0 .267.266.29.683.073.976l-.073.084-3 3c-.293.293-.767.293-1.06 0-.267-.266-.29-.683-.073-.976l.073-.084 3-3zM3.22 15.22c.293-.293.767-.293 1.06 0 .267.266.29.683.073.976l-.073.084-3 3c-.293.293-.767.293-1.06 0-.267-.266-.29-.683-.073-.976l.073-.084 3-3z" transform="translate(-884 -474) translate(220 90) translate(600) translate(64 100) translate(0 284)"/>
                        </g>
                    </g>
                </g>
            </g>
        </g>
    </g>
</svg>
