<svg xmlns="http://www.w3.org/2000/svg" width="22" height="22" viewBox="0 0 22 22">
    <g fill="none" fill-rule="evenodd">
        <g fill="#FFF" fill-rule="nonzero">
            <g>
                <g>
                    <g>
                        <path d="M21.067 0h-5.134C15.418 0 15 .418 15 .933c0 .516.418.934.933.934h2.88l-4.606 4.606c-.365.365-.365.956 0 1.32.182.183.42.274.66.274.238 0 .477-.091.66-.274l4.606-4.607v2.88c0 .516.418.934.934.934.515 0 .933-.418.933-.933V.933C22 .418 21.582 0 21.067 0zM21.067 15c-.516 0-.934.418-.934.933v2.88l-4.607-4.606c-.364-.365-.955-.365-1.32 0-.364.364-.364.955 0 1.32l4.608 4.606h-2.88c-.516 0-.934.418-.934.934 0 .515.418.933.933.933h5.134c.515 0 .933-.418.933-.933v-5.134c0-.515-.418-.933-.933-.933zM3.186 1.867h2.88c.516 0 .934-.418.934-.934C7 .418 6.582 0 6.067 0H.933C.418 0 0 .418 0 .933v5.134C0 6.582.418 7 .933 7c.516 0 .934-.418.934-.933v-2.88l4.607 4.606c.182.183.42.274.66.274.238 0 .477-.091.66-.274.364-.364.364-.955 0-1.32L3.185 1.867zM1.867 18.814v-2.88c0-.516-.418-.934-.934-.934-.515 0-.933.418-.933.933v5.134c0 .515.418.933.933.933h5.134c.515 0 .933-.418.933-.933 0-.516-.418-.934-.933-.934h-2.88l4.606-4.607c.365-.364.365-.955 0-1.32-.364-.364-.955-.364-1.32 0l-4.606 4.608z" transform="translate(-1309 -68) translate(360 60) translate(901) translate(48 8)"/>
                    </g>
                </g>
            </g>
        </g>
    </g>
</svg>
