<svg xmlns="http://www.w3.org/2000/svg" width="20" height="20" viewBox="0 0 20 20">
    <g fill="none" fill-rule="evenodd">
        <g fill="#696579" fill-rule="nonzero">
            <g>
                <g>
                    <g>
                        <g>
                            <path d="M10 20c5.514 0 10-4.486 10-10 0-2.673-1.04-5.185-2.927-7.073C15.185 1.04 12.673 0 10 0 4.486 0 0 4.486 0 10c0 2.673 1.04 5.185 2.927 7.073C4.815 18.96 7.327 20 10 20zm0-1.667c-1.947 0-3.792-.662-5.276-1.879l11.73-11.73c1.217 1.484 1.88 3.329 1.88 5.276 0 4.595-3.74 8.333-8.334 8.333zm0-16.666c1.947 0 3.792.662 5.275 1.879l-11.73 11.73C2.33 13.792 1.668 11.947 1.668 10c0-4.595 3.738-8.333 8.333-8.333z" transform="translate(-400 -496) translate(330 80) translate(60 294) translate(10 120) translate(0 2)"/>
                        </g>
                    </g>
                </g>
            </g>
        </g>
    </g>
</svg>
