<?xml version="1.0" encoding="UTF-8"?>
<svg width="24px" height="24px" viewBox="0 0 24 24" version="1.1" xmlns="http://www.w3.org/2000/svg" xmlns:xlink="http://www.w3.org/1999/xlink">
    <title>Combined Shape</title>
    <g id="Page-1" stroke="none" stroke-width="1" fill="none" fill-rule="evenodd">
        <path d="M19.2,0.25 L19.4141921,0.254952333 C21.82767,0.366792523 23.75,2.35886915 23.75,4.8 L23.75,4.8 L23.75,19.2 L23.7450477,19.4141921 C23.6332075,21.82767 21.6411308,23.75 19.2,23.75 L19.2,23.75 L4.8,23.75 L4.58580788,23.7450477 C2.17233003,23.6332075 0.25,21.6411308 0.25,19.2 L0.25,19.2 L0.25,4.8 L0.254952333,4.58580788 C0.366792523,2.17233003 2.35886915,0.25 4.8,0.25 L4.8,0.25 L19.2,0.25 Z M19.2,2.15 L4.8,2.15 L4.6324614,2.15521562 C3.24738241,2.24171071 2.15,3.39320078 2.15,4.8 L2.15,4.8 L2.15,19.2 L2.15521562,19.3675386 C2.24171071,20.7526176 3.39320078,21.85 4.8,21.85 L4.8,21.85 L12.25,21.85 L12.25,12.95 L10.8,12.95 L10.6891622,12.9436123 C10.2165155,12.8887661 9.85,12.4874339 9.85,12 C9.85,11.4750712 10.2750712,11.05 10.8,11.05 L10.8,11.05 L12.25,11.05 L12.25,9 L12.2551386,8.79669797 C12.3609086,6.70929337 14.0862565,5.05 16.2,5.05 L16.2,5.05 L16.92,5.05 L17.0308378,5.05638767 C17.5034845,5.11123393 17.87,5.5125661 17.87,6 C17.87,6.52492881 17.4449288,6.95 16.92,6.95 L16.92,6.95 L16.2,6.95 L16.0199844,6.95793527 C15.5428924,7.00008059 15.0927658,7.20869388 14.7504854,7.54996161 C14.3660354,7.93555084 14.15,8.45710912 14.15,9 L14.15,9 L14.15,11.05 L16.92,11.05 L17.0308378,11.0563877 C17.5034845,11.1112339 17.87,11.5125661 17.87,12 C17.87,12.5249288 17.4449288,12.95 16.92,12.95 L16.92,12.95 L14.15,12.95 L14.15,21.85 L19.2,21.85 L19.3675386,21.8447844 C20.7526176,21.7582893 21.85,20.6067992 21.85,19.2 L21.85,19.2 L21.85,4.8 L21.8447844,4.6324614 C21.7582893,3.24738241 20.6067992,2.15 19.2,2.15 L19.2,2.15 Z" id="Combined-Shape" fill="#FFFFFF" fill-rule="nonzero"></path>
    </g>
</svg>