<?xml version="1.0" encoding="UTF-8"?>
<svg width="23px" height="23px" viewBox="0 0 23 23" version="1.1" xmlns="http://www.w3.org/2000/svg" xmlns:xlink="http://www.w3.org/1999/xlink">
    <title>Path</title>
    <g id="Page-1" stroke="none" stroke-width="1" fill="none" fill-rule="evenodd">
        <path d="M18.6206078,2.98323622 C19.0563838,3.33635115 19.1238135,3.97395875 18.7717305,4.40864889 C18.4197414,4.84402477 17.7820915,4.91121106 17.3459591,4.55941369 C15.7317832,3.24937129 13.7132715,2.53591331 11.6316293,2.53900027 L11.382,2.53937046 L11.1061262,2.55498576 C6.49339292,2.81855523 2.77426557,6.527555 2.55228189,11.1981314 C2.32092632,16.0452875 5.93728309,20.2201586 10.7672102,20.6818655 C15.5969766,21.1445853 19.9393774,17.7327663 20.6324363,12.9307114 L20.6736717,12.645 L12.895,12.645 C12.3354471,12.645 11.882,12.1913049 11.882,11.632 C11.882,11.0718191 12.3353231,10.618 12.895,10.618 L21.737,10.618 C22.2960529,10.618 22.75,11.0721953 22.75,11.632 C22.75,16.8251545 19.1529183,21.3269585 14.086786,22.4741734 C9.02091729,23.6213286 3.83636899,21.1080951 1.59759406,16.4202627 C-0.639875851,11.7340932 0.666204573,6.1221365 4.74292481,2.90320985 C8.73528456,-0.247393062 14.342363,-0.28112121 18.3661929,2.78360533 L18.6206078,2.98323622 Z" id="Path" fill="#FFFFFF" fill-rule="nonzero"></path>
    </g>
</svg>