<svg xmlns="http://www.w3.org/2000/svg" width="24" height="24" viewBox="0 0 24 24">
    <g fill="none" fill-rule="evenodd">
        <g fill="#FFF" fill-rule="nonzero">
            <g>
                <g>
                    <g>
                        <g>
                            <g>
                                <path d="M18.852 1.359C18.072.483 16.992 0 15.81 0c-1.32 0-2.465.624-3.31 1.805-.063.089-.123.177-.178.265-.056-.088-.115-.176-.178-.265C11.298.625 10.153 0 8.833 0 7.65 0 6.57.483 5.79 1.359c-.74.831-1.148 1.943-1.148 3.13 0 1.29.5 2.48 1.575 3.746.938 1.105 2.283 2.24 3.84 3.554.576.486 1.171.988 1.803 1.536.133.115.297.172.46.172.165 0 .33-.057.461-.172.633-.548 1.228-1.05 1.803-1.536 1-.844 1.864-1.573 2.614-2.28C18.653 8.136 20 6.577 20 4.489c0-1.187-.408-2.299-1.148-3.13zm-2.62 7.127c-.72.68-1.57 1.398-2.555 2.229-.438.37-.887.748-1.356 1.151-.47-.402-.919-.782-1.357-1.151C7.9 8.127 6.048 6.565 6.048 4.489c0-1.758 1.197-3.083 2.785-3.083.848 0 1.57.4 2.144 1.187.472.646.665 1.316.666 1.32.085.305.362.516.678.516.316 0 .593-.211.677-.516.007-.025.719-2.507 2.81-2.507 1.588 0 2.786 1.326 2.786 3.083 0 1.274-.662 2.394-2.361 3.997zM21.888 14.158c-.583 0-1.145.245-1.543.672l-2.066 2.218c-.267-.858-1.069-1.484-2.014-1.484h-3.248c-.454 0-.893-.165-1.234-.465-1.836-1.616-4.595-1.63-6.448-.045-.383-.541-1.012-.896-1.724-.896H.706c-.389 0-.703.315-.703.703v8.436c0 .388.314.703.703.703H3.61c.632 0 1.199-.28 1.585-.72l.417.117c1.424.4 2.896.603 4.375.603h6.277c1.54 0 3.012-.736 3.936-1.968l3.375-4.5c.276-.368.421-.805.421-1.265 0-1.163-.946-2.109-2.109-2.109zM4.314 21.891c0 .388-.315.703-.703.703H1.41v-7.03H3.61c.388 0 .703.316.703.703v5.624zm18.138-5.203l-3.375 4.5c-.66.88-1.712 1.406-2.812 1.406H9.988c-1.35 0-2.695-.185-3.995-.55l-.275-.078.002-.075v-5.306l.49-.431c1.324-1.165 3.32-1.165 4.644 0 .598.526 1.367.816 2.163.816h3.248c.387 0 .703.316.703.703 0 .388-.316.703-.703.703h-4.996c-.389 0-.703.315-.703.703 0 .388.314.703.703.703h5.467c.583 0 1.145-.245 1.543-.671l3.095-3.323c.134-.144.317-.224.514-.224.388 0 .703.316.703.703 0 .154-.048.3-.14.421z" transform="translate(-885 -408) translate(220 90) translate(600) translate(64 100) translate(1 206) translate(0 12)"/>
                            </g>
                        </g>
                    </g>
                </g>
            </g>
        </g>
    </g>
</svg>
