<?xml version="1.0" encoding="UTF-8"?>
<svg width="22px" height="25px" viewBox="0 0 22 25" version="1.1" xmlns="http://www.w3.org/2000/svg" xmlns:xlink="http://www.w3.org/1999/xlink">
    <title>home</title>
    <g id="Page-1" stroke="none" stroke-width="1" fill="none" fill-rule="evenodd">
        <g id="home" fill="#FFD900" fill-rule="nonzero">
            <path d="M22,9.31488836 L11,0.73158836 L0,9.31488836 L0,24.505 L22,24.505 L22,9.31488836 Z M11,3.268 L20,10.291 L20,22.505 L2,22.505 L2,10.291 L11,3.268 Z" id="Shape"></path>
            <path d="M11.196,14.322 C13.9415795,14.322 16.1926801,16.4361628 16.3092577,19.100775 L16.314,19.318 L16.314,22.507745 L14.314,22.5046402 C14.314,21.796498 14.314,20.7342845 14.314,19.318 C14.314,17.6702691 12.9244787,16.322 11.196,16.322 C9.52988567,16.322 8.17865893,17.5760113 8.08426788,19.1426862 L8.079,19.318 L8.079,22.505 L6.079,22.505 C6.079,21.7971871 6.079,20.7348538 6.079,19.318 C6.079,16.5525731 8.37665221,14.322 11.196,14.322 Z" id="Path"></path>
        </g>
    </g>
</svg>