<svg xmlns="http://www.w3.org/2000/svg" width="22" height="22" viewBox="0 0 22 22">
    <g fill="none" fill-rule="evenodd">
        <g fill="#4A4857" fill-rule="nonzero">
            <g>
                <g>
                    <path d="M11 0C4.935 0 0 4.935 0 11s4.935 11 11 11 11-4.935 11-11S17.065 0 11 0zm0 20c-4.963 0-9-4.037-9-9s4.037-9 9-9 9 4.037 9 9-4.037 9-9 9z" transform="translate(-526 -636) translate(380 254) translate(146 382)"/>
                    <path d="M11 4.667c-.735 0-1.333.598-1.333 1.334 0 .734.598 1.332 1.333 1.332s1.333-.598 1.333-1.332c0-.736-.598-1.334-1.333-1.334zM11 9.333c-.552 0-1 .448-1 1v6c0 .553.448 1 1 1s1-.447 1-1v-6c0-.552-.448-1-1-1z" transform="translate(-526 -636) translate(380 254) translate(146 382)"/>
                </g>
            </g>
        </g>
    </g>
</svg>
