<?xml version="1.0" encoding="UTF-8"?>
<svg width="25px" height="25px" viewBox="0 0 25 25" version="1.1" xmlns="http://www.w3.org/2000/svg" xmlns:xlink="http://www.w3.org/1999/xlink">
    <title>Group</title>
    <g id="Page-1" stroke="none" stroke-width="1" fill="none" fill-rule="evenodd">
        <g id="Group" transform="translate(0.250000, 0.250000)" fill="#FFFFFF" fill-rule="nonzero">
            <path d="M18.35,3.1 C19.4820712,3.1 20.4,4.01792881 20.4,5.15 C20.4,6.28207119 19.4820712,7.2 18.35,7.2 C17.2179288,7.2 16.3,6.28207119 16.3,5.15 C16.3,4.01792881 17.2179288,3.1 18.35,3.1 Z M18.35,3.6 C17.4940712,3.6 16.8,4.29407119 16.8,5.15 C16.8,6.00592881 17.4940712,6.7 18.35,6.7 C19.2059288,6.7 19.9,6.00592881 19.9,5.15 C19.9,4.29407119 19.2059288,3.6 18.35,3.6 Z" id="Combined-Shape"></path>
            <path d="M11.75,6 C14.9259288,6 17.5,8.57407119 17.5,11.75 C17.5,14.9259288 14.9259288,17.5 11.75,17.5 C8.57407119,17.5 6,14.9259288 6,11.75 C6,8.57407119 8.57407119,6 11.75,6 Z M11.75,7.9 C9.62392881,7.9 7.9,9.62392881 7.9,11.75 C7.9,13.8760712 9.62392881,15.6 11.75,15.6 C13.8760712,15.6 15.6,13.8760712 15.6,11.75 C15.6,9.62392881 13.8760712,7.9 11.75,7.9 Z" id="Combined-Shape"></path>
            <path d="M18.95,0 L19.1641921,0.00495233262 C21.57767,0.116792523 23.5,2.10886915 23.5,4.55 L23.5,4.55 L23.5,18.95 L23.4950477,19.1641921 C23.3832075,21.57767 21.3911308,23.5 18.95,23.5 L18.95,23.5 L4.55,23.5 L4.33580788,23.4950477 C1.92233003,23.3832075 0,21.3911308 0,18.95 L0,18.95 L0,4.55 L0.00495233262,4.33580788 C0.116792523,1.92233003 2.10886915,0 4.55,0 L4.55,0 L18.95,0 Z M18.95,1.9 L4.55,1.9 L4.3824614,1.90521562 C2.99738241,1.99171071 1.9,3.14320078 1.9,4.55 L1.9,4.55 L1.9,18.95 L1.90521562,19.1175386 C1.99171071,20.5026176 3.14320078,21.6 4.55,21.6 L4.55,21.6 L18.95,21.6 L19.1175386,21.5947844 C20.5026176,21.5082893 21.6,20.3567992 21.6,18.95 L21.6,18.95 L21.6,4.55 L21.5947844,4.3824614 C21.5082893,2.99738241 20.3567992,1.9 18.95,1.9 L18.95,1.9 Z" id="Combined-Shape"></path>
        </g>
    </g>
</svg>