<?xml version="1.0" encoding="UTF-8"?>
<svg width="20px" height="25px" viewBox="0 0 20 25" version="1.1" xmlns="http://www.w3.org/2000/svg" xmlns:xlink="http://www.w3.org/1999/xlink">
    <title>jackpots</title>
    <g id="Page-1" stroke="none" stroke-width="1" fill="none" fill-rule="evenodd">
        <g id="jackpots" transform="translate(1.000000, 1.000000)" fill="#4B4B5F" fill-rule="nonzero">
            <path d="M12.375,-1 L12.375,2.124 L18.33,2.124 L18.33,9.566 L16.9160756,9.56565554 C18.3038354,10.9629167 19,12.6193469 19,14.555 C19,16.4494636 18.3762554,17.6696608 16.7941252,19.2148543 C15.7014941,20.2684325 14.6936378,20.6154613 12.6881022,20.788593 L12.375,20.813 L12.375,24 L5.838,24 L5.838,20.876 L-0.117,20.876 L-0.117,13.349 L1.394,13.349 L1.17728158,13.1461766 C-0.332942429,11.6978686 -1,10.319639 -1,8.415 C-1,6.44084214 -0.46468296,5.35080574 1.12216742,3.85118434 C2.26685318,2.76946923 3.4943032,2.35306122 5.54106647,2.19177643 L5.838,2.17 L5.838,-1 L12.375,-1 Z M10.375,1 L7.838,1 L7.838,4.09144222 L6.56810854,4.13476374 L6.00342518,4.16426075 C4.20936046,4.27921025 3.27404011,4.56941834 2.49584849,5.30480063 C1.28607483,6.44807318 1,7.03059148 1,8.415 C1,9.79864797 1.46868044,10.706176 2.75351388,11.8823374 C3.78624213,12.838844 5.05021673,13.2851985 6.75844842,13.3344011 L7.084,13.339 L10.924,13.339 L10.924,13.349 L12.384,13.349 L12.384,15.349 L1.883,15.349 L1.883,18.876 L7.838,18.876 L7.838,22 L10.375,22 L10.375,18.9337712 L11.9505794,18.838463 L12.4555096,18.8012104 C12.5349507,18.7945582 12.6121112,18.7876573 12.6871055,18.7804672 L13.1119939,18.7335323 C14.2473873,18.5888807 14.8229563,18.3372369 15.401287,17.779598 C16.623532,16.5858656 17,15.849402 17,14.555 C17,13.0514894 16.4429983,11.8297707 15.2559613,10.7438661 C14.3016077,9.8682933 13.3900143,9.59414154 11.5214947,9.56640837 L5.993,9.566 L5.993,7.566 L7.342,7.566 L7.342,7.564 L11.182,7.564 C11.3035684,7.564 11.4225643,7.56484433 11.5391138,7.56659632 L16.329,7.566 L16.329,4.124 L10.375,4.124 L10.375,1 Z" id="Shape"></path>
        </g>
    </g>
</svg>