<?xml version="1.0" encoding="UTF-8"?>
<svg width="25px" height="32px" viewBox="0 0 25 32" version="1.1" xmlns="http://www.w3.org/2000/svg" xmlns:xlink="http://www.w3.org/1999/xlink">
    <title>jackpots-big</title>
    <g id="Page-1" stroke="none" stroke-width="1" fill="none" fill-rule="evenodd">
        <g id="jackpots-big" transform="translate(1.000000, 1.000000)" fill="#76FFCE" fill-rule="nonzero">
            <path d="M15.535,-1 L15.535,3.075 L23.143,3.075 L23.143,12.172 L20.878478,12.1719497 L21.0421571,12.3217286 C23.015487,14.1677468 24,16.3723278 24,18.984 C24,21.3601453 23.240449,22.877119 21.2738885,24.8352868 C19.9084057,26.1808356 18.6410156,26.6092824 16.031845,26.8263862 L15.535,26.863 L15.535,31 L7.737,31 L7.737,26.925 L0.128,26.925 L0.128,17.715 L2.57861428,17.716285 C2.36961912,17.5508647 2.16578374,17.3742933 1.96684287,17.1862714 C-0.105871304,15.2472807 -1,13.480282 -1,10.976 C-1,8.49615702 -0.353926694,7.15322542 1.61673101,5.25228438 C3.06075421,3.85931681 4.62591817,3.34083596 7.30858944,3.14668553 L7.737,3.119 L7.737,-1 L15.535,-1 Z M13.535,1 L9.737,1 L9.737,5.04183775 L8.7707118,5.0744316 C8.54106868,5.08217768 8.32044636,5.09125036 8.10827704,5.10188465 L7.49656021,5.1387074 C5.24450188,5.2996218 4.03525851,5.69814294 3.00526121,6.69172312 C1.40408333,8.23625556 1,9.07618543 1,10.976 C1,12.8787121 1.63837795,14.14029 3.33687712,15.7292264 C4.72594618,17.0420421 6.4226532,17.6436203 8.70519085,17.6979365 L9.052,17.702 L13.958,17.702 L13.957,17.715 L15.824,17.715 L15.824,19.715 L2.128,19.715 L2.128,24.925 L9.737,24.925 L9.737,29 L13.535,29 L13.535,24.9853254 L14.9380169,24.8986801 C15.1473352,24.8860696 15.3468468,24.8729362 15.5372884,24.8590005 L16.0821401,24.8145069 L16.5769929,24.7635222 C18.2266376,24.5717594 19.0387875,24.2299053 19.8664034,23.4143862 C21.4809329,21.8067313 22,20.7700515 22,18.984 C22,16.9337858 21.2504061,15.2552499 19.6760634,13.7824776 C18.3862304,12.5765897 17.1557831,12.2053345 14.6725601,12.1724561 L7.658,12.172 L7.658,10.172 L9.38,10.172 L14.287,10.17 C14.4203045,10.17 14.5510972,10.1708139 14.6794859,10.1724952 L21.143,10.172 L21.143,5.075 L13.535,5.075 L13.535,1 Z" id="Shape"></path>
        </g>
    </g>
</svg>