<?xml version="1.0" encoding="UTF-8"?>
<svg width="30px" height="30px" viewBox="0 0 30 30" version="1.1" xmlns="http://www.w3.org/2000/svg" xmlns:xlink="http://www.w3.org/1999/xlink">
    <title>like</title>
    <g id="Page-1" stroke="none" stroke-width="1" fill="none" fill-rule="evenodd">
        <g id="like" transform="translate(2.000000, 2.000000)" fill="#4B4B5F" fill-rule="nonzero">
            <path d="M8.478,2.957 C5.42871525,2.957 2.957,5.42871525 2.957,8.478 L2.957,23.043 L17.522,23.043 C20.5712847,23.043 23.043,20.5712847 23.043,17.522 L23.0388223,17.3051449 C22.9249806,14.3555957 20.498867,12 17.522,12 L14,12 L14,8.478 C14,5.42783764 11.5284072,2.957 8.478,2.957 Z M8.478,4.957 C10.4239745,4.957 12,6.53254397 12,8.478 L12,14 L17.522,14 C19.4668356,14 21.043,15.5764052 21.043,17.522 L21.0377905,17.7151987 C20.937505,19.5700495 19.4018914,21.043 17.522,21.043 L4.957,21.043 L4.957,8.478 C4.957,6.53328475 6.53328475,4.957 8.478,4.957 Z" id="Path" transform="translate(13.000000, 13.000000) rotate(-45.000000) translate(-13.000000, -13.000000) "></path>
        </g>
    </g>
</svg>