<?xml version="1.0" encoding="UTF-8"?>
<svg width="35px" height="34px" viewBox="0 0 35 34" version="1.1" xmlns="http://www.w3.org/2000/svg" xmlns:xlink="http://www.w3.org/1999/xlink">
    <title>megaways-big</title>
    <g id="Page-1" stroke="none" stroke-width="1" fill="none" fill-rule="evenodd">
        <g id="megaways-big" transform="translate(2.000000, 2.000000)" fill="#E6B842" fill-rule="nonzero">
            <path d="M33,0.0614518678 L22.2952125,-1.04999939 L17.666,4.554 L12.8293377,-1.0429861 L1.87020958,-0.0327783479 L1.13745185,0.0347669468 L-1.23572012,11.164 L1.621,11.164 L0.927828012,29.8892315 L13.409,31.1018657 L13.409,17.077 L17.7013648,22.0690297 L21.725,17.171 L21.725,30.0699424 L33,29.1497079 L33,0.0614518678 Z M2.787,1.89 L11.988,1.042 L17.7013284,7.65343416 L23.155,1.049 L31,1.864 L31,27.306 L23.725,27.9 L23.725,11.5878165 L17.666,18.961 L11.409,11.683133 L11.409,28.898 L2.996,28.08 L3.69671859,9.164 L1.236,9.164 L2.787,1.89 Z" id="Path"></path>
        </g>
    </g>
</svg>