<?xml version="1.0" encoding="UTF-8"?>
<svg width="24px" height="24px" viewBox="0 0 24 24" version="1.1" xmlns="http://www.w3.org/2000/svg" xmlns:xlink="http://www.w3.org/1999/xlink">
    <title>my-profile</title>
    <g id="Page-1" stroke="none" stroke-width="1" fill="none" fill-rule="evenodd">
        <g id="my-profile" fill="#FFD900" fill-rule="nonzero">
            <path d="M16,10 L8,10 C3.58171525,10 0,13.5817153 0,18 L0,24 L24,24 L24,18 C24,13.5817153 20.4182847,10 16,10 Z M16,12 L16.2249387,12.0041385 C19.4344316,12.1224279 22,14.7615965 22,18 L22,22 L2,22 L2,18 C2,14.6862847 4.68628475,12 8,12 L16,12 Z" id="Shape"></path>
            <polygon id="Path" points="8 19 8 22 6 22 6 19"></polygon>
            <polygon id="Path" points="18 19 18 22 16 22 16 19"></polygon>
            <path d="M12,0 C8.6862915,0 6,2.6862915 6,6 C6,9.3137085 8.6862915,12 12,12 C15.3137085,12 18,9.3137085 18,6 C18,2.6862915 15.3137085,0 12,0 Z M12,2 C14.209139,2 16,3.790861 16,6 C16,8.209139 14.209139,10 12,10 C9.790861,10 8,8.209139 8,6 C8,3.790861 9.790861,2 12,2 Z" id="Oval"></path>
        </g>
    </g>
</svg>