<svg xmlns="http://www.w3.org/2000/svg" width="30" height="30" viewBox="0 0 30 30">
    <g fill="none" fill-rule="evenodd">
        <g fill="#FF4CA9">
            <g>
                <g>
                    <g>
                        <g>
                            <path d="M1.765 22.363l12.353 5.405V11.2L1.765 6.567v15.796zM15.001 30c-.12 0-.242-.025-.353-.074L.53 23.748c-.323-.14-.53-.458-.53-.808V5.293c0-.29.142-.56.38-.725.238-.166.54-.201.813-.1L15.311 9.76c.344.13.572.46.572.826v18.53c0 .298-.15.575-.4.737-.145.097-.313.145-.482.145z" transform="translate(-650 -241) translate(110) translate(60 241) translate(475) translate(5)"/>
                            <path d="M15.883 11.2v16.568l12.353-5.405V6.567l-12.353 4.632zM15 29.998c-.17 0-.338-.048-.482-.145-.25-.162-.4-.44-.4-.738v-18.53c0-.366.227-.694.57-.823l14.119-5.294c.273-.103.575-.067.813.098.238.166.38.436.38.726V22.94c0 .35-.207.669-.53.808l-14.118 6.176c-.11.052-.232.075-.352.075z" transform="translate(-650 -241) translate(110) translate(60 241) translate(475) translate(5)"/>
                            <path d="M29.118 6.18c-.086 0-.176-.013-.263-.04L15.001 1.804 1.146 6.14c-.468.15-.96-.116-1.107-.58-.144-.464.115-.96.58-1.107L14.739.04c.17-.053.354-.053.525 0l14.118 4.413c.466.147.725.643.58 1.107-.12.377-.467.62-.843.62" transform="translate(-650 -241) translate(110) translate(60 241) translate(475) translate(5)"/>
                            <path d="M15 7.058c-.974 0-1.764-.79-1.764-1.765 0-.974.79-1.764 1.765-1.764.974 0 1.764.79 1.764 1.764s-.79 1.765-1.764 1.765M6.17 15.124c-.974 0-1.765-.79-1.765-1.765 0-.974.79-1.764 1.765-1.764.974 0 1.764.79 1.764 1.764 0 .975-.79 1.765-1.764 1.765M9.839 22.448c-.974 0-1.765-.79-1.765-1.765 0-.974.79-1.765 1.765-1.765.974 0 1.764.79 1.764 1.765 0 .974-.79 1.765-1.764 1.765M19.412 23.823c-.974 0-1.764-.79-1.764-1.765 0-.974.79-1.765 1.764-1.765s1.765.79 1.765 1.765c0 .974-.79 1.765-1.765 1.765M22.06 18.786c-.975 0-1.765-.79-1.765-1.765 0-.974.79-1.765 1.764-1.765s1.765.791 1.765 1.765c0 .974-.79 1.765-1.765 1.765M24.706 13.75c-.974 0-1.764-.791-1.764-1.766 0-.974.79-1.764 1.764-1.764.975 0 1.765.79 1.765 1.764 0 .975-.79 1.765-1.765 1.765" transform="translate(-650 -241) translate(110) translate(60 241) translate(475) translate(5)"/>
                        </g>
                    </g>
                </g>
            </g>
        </g>
    </g>
</svg>
