<svg xmlns="http://www.w3.org/2000/svg" width="19" height="21" viewBox="0 0 19 21">
    <g fill="none" fill-rule="evenodd">
        <g fill="#696579" fill-rule="nonzero">
            <g>
                <g>
                    <g>
                        <g>
                            <path d="M16.625 21H2.375C1.066 21 0 19.991 0 18.75V8.25C0 7.009 1.066 6 2.375 6h14.25C17.934 6 19 7.009 19 8.25v10.5c0 1.241-1.066 2.25-2.375 2.25zM2.375 7.5c-.436 0-.792.336-.792.75v10.5c0 .414.356.75.792.75h14.25c.436 0 .792-.336.792-.75V8.25c0-.414-.356-.75-.792-.75H2.375z" transform="translate(-322 -416) translate(220 90) translate(80 80) translate(0 244) translate(22 2)"/>
                            <path d="M15.042 7.5c-.437 0-.792-.336-.792-.75V6c0-2.481-2.131-4.5-4.75-4.5S4.75 3.519 4.75 6v.75c0 .414-.355.75-.792.75-.437 0-.791-.336-.791-.75V6c0-3.309 2.84-6 6.333-6 3.493 0 6.333 2.691 6.333 6v.75c0 .414-.354.75-.791.75zM9.5 15c-.437 0-.792-.336-.792-.75V11.5c0-.414.355-.75.792-.75.437 0 .792.336.792.75v2.75c0 .414-.355.75-.792.75z" transform="translate(-322 -416) translate(220 90) translate(80 80) translate(0 244) translate(22 2)"/>
                        </g>
                    </g>
                </g>
            </g>
        </g>
    </g>
</svg>
