<svg height="30" viewBox="0 0 30 30" width="30" xmlns="http://www.w3.org/2000/svg"><g fill="#a25fff"><path d="m9.889 8.119-.526 2.629c-.06.292-.315.502-.613.502-.617 0-.781.818-.781 1.25 0 .433.164 1.25.781 1.25.345 0 .625.28.625.625 0 3.249 3.948 5.625 5.625 5.625 1.678 0 5.625-2.376 5.625-5.625 0-.345.28-.625.625-.625.618 0 .781-.817.781-1.25 0-.432-.163-1.25-.78-1.25-.298 0-.555-.21-.613-.502l-.527-2.63c-3.285-.087-4.438-1.024-5.11-2.002-.675.978-1.827 1.915-5.112 2.003m5.111 13.131c-1.955 0-6.47-2.446-6.85-6.347-.856-.294-1.431-1.214-1.431-2.403 0-1.222.607-2.161 1.504-2.426l.54-2.696c.058-.293.315-.503.612-.503 3.73 0 4.358-1.051 4.774-1.746.122-.206.24-.401.409-.571.235-.234.65-.234.883 0 .17.17.287.365.41.57.417.696 1.044 1.747 4.774 1.747.298 0 .554.21.613.503l.54 2.696c.896.265 1.503 1.204 1.503 2.426 0 1.189-.575 2.109-1.432 2.403-.379 3.9-4.895 6.347-6.849 6.347"/><path d="m22.486 12.189c-.027 0-.056-.002-.085-.007-.343-.046-.581-.36-.535-.702l.64-4.689c-.001 0 .155-1.921-1.254-3.466-1.257-1.376-3.36-2.075-6.252-2.075-2.903 0-5.01.704-6.265 2.09-1.411 1.559-1.24 3.455-1.238 3.473l.638 4.667c.046.341-.194.656-.537.702-.342.056-.656-.192-.703-.534l-.639-4.69c-.013-.12-.228-2.492 1.553-4.457 1.5-1.66 3.92-2.501 7.189-2.501 3.27 0 5.69.841 7.193 2.501 1.779 1.965 1.565 4.337 1.555 4.436l-.642 4.71c-.043.314-.311.542-.619.542m6.89 17.811h-28.75c-.345 0-.625-.28-.625-.625v-3.125c0-2.332 1.466-4.449 3.65-5.266l8.005-2.195c.329-.088.676.103.768.438.09.333-.105.677-.438.768l-7.95 2.176c-1.644.619-2.785 2.265-2.785 4.079v2.5h27.5v-2.5c0-1.814-1.141-3.46-2.839-4.096l-7.873-2.178c-.333-.091-.528-.435-.436-.768.093-.332.44-.53.77-.434l7.925 2.192c2.238.835 3.703 2.951 3.703 5.284v3.125c0 .345-.28.625-.625.625"/><path d="m12.418 28.75h5.165l-2.583-3.499zm-1.168 1.25c-.231 0-.442-.128-.551-.33-.109-.204-.096-.45.031-.641l3.75-5.25c.231-.348.808-.348 1.04 0l3.75 5.25c.128.191.14.437.031.641-.108.202-.32.33-.55.33h-7.5z"/><path d="m15 24.75c-1.379 0-2.5-1.121-2.5-2.5v-1.875h1.25v1.875c0 .69.561 1.25 1.25 1.25s1.25-.56 1.25-1.25v-1.875h1.25v1.875c0 1.379-1.121 2.5-2.5 2.5"/></g></svg>