<?xml version="1.0" encoding="UTF-8"?>
<svg width="18px" height="18px" viewBox="0 0 18 18" version="1.1" xmlns="http://www.w3.org/2000/svg" xmlns:xlink="http://www.w3.org/1999/xlink">
    <title>profile</title>
    <g id="Page-1" stroke="none" stroke-width="1" fill="none" fill-rule="evenodd">
        <g id="profile" transform="translate(1.000000, 1.000000)" fill="#FFD900" fill-rule="nonzero">
            <path d="M8.333,7 L7.667,7 C3.24871525,7 -0.333,10.5817153 -0.333,15 L-0.333,17 L16.333,17 L16.333,15 C16.333,10.5817153 12.7512847,7 8.333,7 Z M8.333,9 L8.5579387,9.00413846 C11.7674316,9.12242794 14.333,11.7615965 14.333,15 L1.667,15 C1.667,11.6862847 4.35328475,9 7.667,9 L8.333,9 Z" id="Path"></path>
            <path d="M8,-1 C5.23857625,-1 3,1.23857625 3,4 C3,6.76142375 5.23857625,9 8,9 C10.7614237,9 13,6.76142375 13,4 C13,1.23857625 10.7614237,-1 8,-1 Z M8,1 C9.65685425,1 11,2.34314575 11,4 C11,5.65685425 9.65685425,7 8,7 C6.34314575,7 5,5.65685425 5,4 C5,2.34314575 6.34314575,1 8,1 Z" id="Oval"></path>
        </g>
    </g>
</svg>