<?xml version="1.0" encoding="UTF-8"?>
<svg width="30px" height="32px" viewBox="0 0 30 32" version="1.1" xmlns="http://www.w3.org/2000/svg" xmlns:xlink="http://www.w3.org/1999/xlink">
    <title>promo-big</title>
    <g id="Page-1" stroke="none" stroke-width="1" fill="none" fill-rule="evenodd">
        <g id="promo-big" fill="#3FA0FF" fill-rule="nonzero">
            <polygon id="Path" points="15.954 9.79 15.954 29.97 13.954 29.97 13.954 9.79"></polygon>
            <path d="M29.908,7.794 L0,7.794 L0,16.647 L29.908,16.647 L29.908,7.794 Z M27.908,9.793 L27.908,14.646 L2,14.646 L2,9.793 L27.908,9.793 Z" id="Path"></path>
            <path d="M26.678,14.647 L3.231,14.647 L3.231,31.966 L26.678,31.966 L26.678,14.647 Z M24.678,16.646 L24.678,29.966 L5.231,29.966 L5.231,16.646 L24.678,16.646 Z" id="Path"></path>
            <path d="M10.967,0 C8.2171608,0 5.98,2.18715322 5.98,4.897 C5.98,7.60654886 8.21785324,9.794 10.967,9.794 C13.7161468,9.794 15.954,7.60654886 15.954,4.897 C15.954,2.18715322 13.7168392,0 10.967,0 Z M10.967,2 C12.6222627,2 13.954,3.30196877 13.954,4.897 C13.954,6.49165384 12.6216459,7.794 10.967,7.794 C9.31235413,7.794 7.98,6.49165384 7.98,4.897 C7.98,3.30196877 9.31173728,2 10.967,2 Z" id="Path"></path>
            <path d="M18.941,0 C16.1918532,0 13.954,2.18745114 13.954,4.897 C13.954,7.60654886 16.1918532,9.794 18.941,9.794 C21.6901468,9.794 23.928,7.60654886 23.928,4.897 C23.928,2.18745114 21.6901468,0 18.941,0 Z M18.941,2 C20.5956459,2 21.928,3.30234616 21.928,4.897 C21.928,6.49165384 20.5956459,7.794 18.941,7.794 C17.2863541,7.794 15.954,6.49165384 15.954,4.897 C15.954,3.30234616 17.2863541,2 18.941,2 Z" id="Path"></path>
        </g>
    </g>
</svg>