<?xml version="1.0" encoding="UTF-8"?>
<svg width="22px" height="23px" viewBox="0 0 22 23" version="1.1" xmlns="http://www.w3.org/2000/svg" xmlns:xlink="http://www.w3.org/1999/xlink">
    <title>promo</title>
    <g id="Page-1" stroke="none" stroke-width="1" fill="none" fill-rule="evenodd">
        <g id="promo" fill="#4B4B5F" fill-rule="nonzero">
            <path d="M13.815,0 C15.931276,0 17.663,1.65822129 17.663,3.728 C17.663,4.35268052 17.5049844,4.94008119 17.2261167,5.45574005 L21.935,5.456 L21.935,12.253 L19.627,12.253 L19.627,22.976 L2.308,22.976 L2.308,12.253 L0,12.253 L0,5.456 L4.70881632,5.45564959 C4.42999679,4.93999479 4.272,4.35261863 4.272,3.728 C4.272,1.6589352 6.00403085,0 8.12,0 C9.24433596,0 10.2602133,0.468456895 10.9652536,1.2228146 C11.670715,0.47023787 12.6884424,0 13.815,0 Z M4.308,20.976 L9.967,20.976 L9.967,12.253 L4.308,12.253 L4.308,20.976 Z M17.627,12.253 L11.967,12.253 L11.967,20.976 L17.627,20.976 L17.627,12.253 Z M8.079,7.455 L2,7.456 L2,10.253 L9.967,10.253 L9.967,7.455 L8.14929464,7.45588623 C8.13920495,7.45596203 8.12910669,7.456 8.119,7.456 L8.079,7.455 Z M13.783,7.455 L11.967,7.455 L11.967,10.253 L19.935,10.253 L19.935,7.456 L13.8542216,7.45580974 C13.8411626,7.45593648 13.8280886,7.456 13.815,7.456 L13.783,7.455 Z M8.12,2 C7.08976859,2 6.272,2.78325689 6.272,3.728 C6.272,4.66403495 7.07623699,5.44266652 8.09281866,5.45583059 L8.142,5.455 L8.28233402,5.44935007 C9.1430906,5.37895327 9.82988261,4.75824141 9.94749536,3.99871184 L9.9622918,3.8628454 L9.967,3.728 C9.967,2.78275287 9.14974891,2 8.12,2 Z M13.815,2 C12.7847686,2 11.967,2.78325689 11.967,3.728 C11.967,4.66412558 12.7713383,5.44266806 13.788796,5.45583061 L13.84,5.455 L13.9678095,5.45019905 C14.9245898,5.37721404 15.663,4.62494036 15.663,3.728 C15.663,2.78266156 14.845646,2 13.815,2 Z" id="Combined-Shape"></path>
        </g>
    </g>
</svg>