<?xml version="1.0" encoding="UTF-8"?>
<svg width="24px" height="24px" viewBox="0 0 24 24" version="1.1" xmlns="http://www.w3.org/2000/svg" xmlns:xlink="http://www.w3.org/1999/xlink">
    <title>recently</title>
    <g id="Page-1" stroke="none" stroke-width="1" fill="none" fill-rule="evenodd">
        <g id="recently" transform="translate(1.000000, 1.000000)" fill="#4B4B5F" fill-rule="nonzero">
            <path d="M11,-1 C4.372583,-1 -1,4.372583 -1,11 C-1,17.627417 4.372583,23 11,23 C17.627417,23 23,17.627417 23,11 C23,4.372583 17.627417,-1 11,-1 Z M11,1 C16.5228475,1 21,5.4771525 21,11 C21,16.5228475 16.5228475,21 11,21 C5.4771525,21 1,16.5228475 1,11 C1,5.4771525 5.4771525,1 11,1 Z" id="Oval"></path>
            <polygon id="Shape" points="12 5 12 11 15 11 15 13 11 13 11 12 10 12 10 5"></polygon>
        </g>
    </g>
</svg>