<svg xmlns="http://www.w3.org/2000/svg" width="24" height="24" viewBox="0 0 24 24">
    <g fill="none" fill-rule="evenodd">
        <g fill="#FFD900" fill-rule="nonzero" stroke="#FFD900" stroke-width=".2">
            <g>
                <path d="M9.688 0c5.343 0 9.689 4.346 9.689 9.688 0 2.35-.841 4.508-2.238 6.187l4.599 4.598c.35.35.35.916 0 1.265-.175.175-.404.262-.632.262-.23 0-.458-.087-.633-.262h0l-4.598-4.6c-1.68 1.398-3.836 2.239-6.187 2.239C4.346 19.377 0 15.03 0 9.688 0 4.346 4.346 0 9.688 0zm0 1.789c-4.356 0-7.9 3.544-7.9 7.9 0 4.355 3.544 7.9 7.9 7.9s7.9-3.545 7.9-7.9c0-4.357-3.544-7.9-7.9-7.9z" transform="translate(-169 -46) translate(170 40) translate(0 7)"/>
            </g>
        </g>
    </g>
</svg>
