<svg xmlns="http://www.w3.org/2000/svg" width="26" height="26" viewBox="0 0 26 26">
    <defs>
        <linearGradient id="vwqiumekda" x1="0%" x2="100%" y1="100%" y2="0%">
            <stop offset="0%" stop-color="#FFB400"/>
            <stop offset="100%" stop-color="#FF0"/>
        </linearGradient>
    </defs>
    <g fill="none" fill-rule="evenodd">
        <g fill="url(#vwqiumekda)" fill-rule="nonzero" transform="translate(-230 -499)">
            <g>
                <g>
                    <path d="M18.992 26c-1.414 0-2.758-.412-3.916-1.196-3.752.656-7.69-.47-10.55-3.33-2.859-2.859-3.986-6.797-3.33-10.55C.412 9.766 0 8.422 0 7.008 0 3.144 3.144 0 7.008 0c1.414 0 2.758.412 3.916 1.196 8.177-1.43 15.315 5.673 13.88 13.88.784 1.158 1.196 2.502 1.196 3.916C26 22.856 22.856 26 18.992 26zm-3.053-3.078c.88.685 1.935 1.047 3.053 1.047 2.744 0 4.977-2.233 4.977-4.977 0-1.118-.362-2.173-1.047-3.053-.185-.237-.255-.544-.192-.838C24.253 8.013 17.938 1.757 10.9 3.27c-.294.063-.6-.007-.838-.192-.88-.685-1.935-1.047-3.053-1.047-2.744 0-4.977 2.233-4.977 4.977 0 1.118.362 2.173 1.047 3.053.185.237.255.544.192.838C1.75 17.97 8.046 24.246 15.1 22.73c.293-.063.6.007.838.192zm2.071-6.926c0-2.742-3.467-3.58-4.243-3.819-1.607-.493-3.746-1.043-3.746-2.173 0-1.074 1.364-1.98 2.979-1.98 1.285 0 2.456.581 2.849 1.414.239.507.844.725 1.352.486.507-.24.724-.844.485-1.352-.8-1.695-2.786-2.58-4.686-2.58-2.955 0-5.01 1.922-5.01 4.012 0 2.742 3.467 3.58 4.243 3.819 1.607.493 3.746 1.043 3.746 2.173 0 1.074-1.364 1.98-2.979 1.98-1.285 0-2.456-.581-2.849-1.414-.239-.507-.844-.725-1.352-.486-.507.24-.724.844-.485 1.352.8 1.695 2.786 2.58 4.686 2.58 2.955 0 5.01-1.922 5.01-4.012z" transform="translate(230 156) translate(0 343)"/>
                </g>
            </g>
        </g>
    </g>
</svg>
