<?xml version="1.0" encoding="UTF-8"?>
<svg width="36px" height="30px" viewBox="0 0 36 30" version="1.1" xmlns="http://www.w3.org/2000/svg" xmlns:xlink="http://www.w3.org/1999/xlink">
    <title>Combined Shape</title>
    <g id="Page-1" stroke="none" stroke-width="1" fill="none" fill-rule="evenodd">
        <g id="Group" transform="translate(0.869739, 0.379023)" fill="#D8D8D8">
            <path d="M17.130261,0 L17.6110821,0.618034597 L26.5223046,0.618034597 L32.6230408,8.51340185 L34.2550031,8.51340185 L17.130261,29.1915526 L0,8.51340185 L1.64464309,8.51340185 L7.74314748,0.618034597 L16.6520367,0.618034597 L17.130261,0 Z M21.927925,10.5335018 L12.3391792,10.5335018 L17.1335521,24.52125 L21.927925,10.5335018 Z M30.0077482,10.5131274 L24.0403867,10.5131274 L19.8493009,22.7701159 L30.0077482,10.5131274 Z M10.2168214,10.5335018 L4.27484124,10.5335018 L14.407004,22.7601827 L10.2168214,10.5335018 Z M15.073834,2.61946591 L8.72861914,2.61946591 L4.16599707,8.51242551 L10.4496885,8.51242551 L15.073834,2.61946591 Z M17.1330228,3.24573239 L12.9995389,8.51242551 L21.2665067,8.51242551 L17.1330228,3.24573239 Z M25.5412565,2.62131223 L19.1925626,2.62131223 L23.8149839,8.5112048 L30.0911069,8.5112048 L25.5412565,2.62131223 Z" id="Combined-Shape"></path>
        </g>
    </g>
</svg>