<?xml version="1.0" encoding="UTF-8"?>
<svg width="36px" height="30px" viewBox="0 0 36 30" version="1.1" xmlns="http://www.w3.org/2000/svg" xmlns:xlink="http://www.w3.org/1999/xlink">
    <title>Combined Shape</title>
    <g id="Page-1" stroke="none" stroke-width="1" fill="none" fill-rule="evenodd">
        <path d="M18,0.375282049 L18.4813025,0.997155309 L27.3901505,0.997155309 L33.4890206,8.89878452 L35.1239128,8.89878452 L18,29.5670857 L0.873459578,8.89878452 L2.51408195,8.89878452 L8.6109798,0.997155309 L17.5189219,0.997155309 L18,0.375282049 Z M13.2051601,10.8922675 L18,24.9131179 L22.8018973,10.8925996 L13.2051601,10.8922675 Z M30.8786108,10.8925996 L24.9126613,10.8925996 L20.7214715,23.1455683 L30.8786108,10.8925996 Z M11.0954661,10.8922675 L5.12330019,10.8922675 L15.2740538,23.1373547 L11.0954661,10.8922675 Z M15.9336414,3.00098598 L9.59422112,3.00098598 L5.03639984,8.89423573 L11.3179548,8.89423573 L15.9336414,3.00098598 Z M17.9986862,3.62791944 L13.8663669,8.89423573 L22.1343787,8.89423573 L17.9986862,3.62791944 Z M26.4162066,2.99673235 L20.0550466,2.99673235 L24.6906011,8.89029002 L30.9594779,8.89029002 L26.4162066,2.99673235 Z" id="Combined-Shape" fill="#FFD900"></path>
    </g>
</svg>