<svg xmlns="http://www.w3.org/2000/svg" width="24" height="23" viewBox="0 0 24 23">
    <g fill="none" fill-rule="evenodd">
        <g fill="#FFF" fill-rule="nonzero">
            <g>
                <g>
                    <g>
                        <g>
                            <g>
                                <path d="M2.813 7.734v5.625c0 .389.314.704.703.704h12.75c.388 0 .703-.315.703-.704V7.734c0-.388-.315-.703-.703-.703H3.516c-.389 0-.704.315-.704.703zm9.89.704h2.86v4.218h-2.86V8.437zm-4.219 0h2.813v4.218H8.484V8.437zm-4.265 0h2.86v4.218h-2.86V8.437zM21.89 0c-1.163 0-2.11.946-2.11 2.11 0 .916.588 1.698 1.407 1.988v4.34H19.78V4.921c0-.388-.315-.703-.703-.703h-2.723C15.24 1.676 12.703 0 9.891 0 7.078 0 4.54 1.676 3.426 4.219H.703c-.388 0-.703.315-.703.703v11.25c0 .388.315.703.703.703h.703v4.922c0 .388.315.703.703.703h15.563c.388 0 .703-.315.703-.703v-4.922h.703c.388 0 .703-.315.703-.703v-3.516h2.11c.388 0 .703-.315.703-.703V4.098C23.412 3.808 24 3.026 24 2.109 24 .946 23.054 0 21.89 0zm-4.922 21.094H2.812v-4.219H16.97v4.219zm1.406-5.625H1.406V5.625h2.497c.298 0 .563-.187.663-.468.797-2.243 2.937-3.75 5.325-3.75 2.387 0 4.527 1.507 5.325 3.75.1.28.365.468.662.468h2.497v9.844zm2.813-4.219H19.78V9.844h1.407v1.406zm.703-8.438c-.388 0-.703-.315-.703-.703 0-.387.315-.703.703-.703.387 0 .703.316.703.703 0 .388-.316.704-.703.704zM6.375 19.688h7.031c.389 0 .703-.314.703-.703 0-.388-.314-.703-.703-.703H6.375c-.388 0-.703.315-.703.703 0 .389.315.703.703.703z" transform="translate(-885 -330) translate(220 90) translate(600) translate(64 100) translate(1 128) translate(0 12)"/>
                            </g>
                        </g>
                    </g>
                </g>
            </g>
        </g>
    </g>
</svg>
