<?xml version="1.0" encoding="UTF-8"?>
<svg width="28px" height="24px" viewBox="0 0 28 24" version="1.1" xmlns="http://www.w3.org/2000/svg" xmlns:xlink="http://www.w3.org/1999/xlink">
    <title>store</title>
    <g id="Page-1" stroke="none" stroke-width="1" fill="none" fill-rule="evenodd">
        <g id="store" fill="#4B4B5F" fill-rule="nonzero">
            <path d="M22.6498731,0 L27.538762,11 L26.8999208,11.0007185 C26.5727926,12.6122938 25.4710274,13.9419093 23.9999056,14.5842849 L24,24 L4,24 L3.9991961,14.5838925 C2.52862333,13.9414114 1.42728948,12.6121451 1.10014545,11.0010446 L0.461238022,11 L5.35012691,0 L22.6498731,0 Z M17.9993404,13.0003173 C17.0880151,14.2150519 15.6360121,15 14,15 C12.3636487,15 10.9113827,14.2147263 9.9993404,13.0003173 C9.08801507,14.2150519 7.63601205,15 6,15 L6,22 L22,22 L22,15 L22,15 C20.3636487,15 18.9113827,14.2147263 17.9993404,13.0003173 Z M8.8294169,11.0002508 L3.17058309,11.0002508 C3.5821983,12.1656851 4.69306914,13 6,13 C7.30693086,13 8.4178017,12.1656851 8.8294169,11.0002508 Z M16.8294169,11.0002508 L11.1705831,11.0002508 C11.5821983,12.1656851 12.6930691,13 14,13 C15.3069308,13 16.4178017,12.1656851 16.8294169,11.0002508 Z M24.8294169,11.0002508 L19.1705831,11.0002508 C19.5821983,12.1656851 20.6930691,13 22,13 C23.3069308,13 24.4178017,12.1656851 24.8294169,11.0002508 Z M9,2 L6.649,2 L3.538,9 L9,9 L9,2 Z M17,2 L11,2 L11,9 L17,9 L17,2 Z M21.35,2 L19,2 L19,9 L24.461,9 L21.35,2 Z" id="Combined-Shape"></path>
        </g>
    </g>
</svg>