<?xml version="1.0" encoding="UTF-8"?>
<svg width="30px" height="30px" viewBox="0 0 30 30" version="1.1" xmlns="http://www.w3.org/2000/svg" xmlns:xlink="http://www.w3.org/1999/xlink">
    <title>table-big</title>
    <g id="Page-1" stroke="none" stroke-width="1" fill="none" fill-rule="evenodd">
        <g id="table-big" fill="#FF6912" fill-rule="nonzero">
            <path d="M15,1.25 C7.419,1.25 1.25,7.419 1.25,15 C1.25,22.581 7.419,28.75 15,28.75 C22.581,28.75 28.75,22.581 28.75,15 C28.75,7.419 22.581,1.25 15,1.25 M15,30 C6.729,30 0,23.271 0,15 C0,6.729 6.729,0 15,0 C23.271,0 30,6.729 30,15 C30,23.271 23.271,30 15,30" id="Shape"></path>
            <path d="M15,8.75 C11.554,8.75 8.75,11.554 8.75,15 C8.75,18.446 11.554,21.25 15,21.25 C18.446,21.25 21.25,18.446 21.25,15 C21.25,11.554 18.446,8.75 15,8.75 M15,22.5 C10.864,22.5 7.5,19.136 7.5,15 C7.5,10.864 10.864,7.5 15,7.5 C19.136,7.5 22.5,10.864 22.5,15 C22.5,19.136 19.136,22.5 15,22.5" id="Shape"></path>
            <path d="M18.739,9.385 L17.589,8.896 L20.596,1.827 L21.747,2.316 L18.739,9.385 Z M11.027,9.385 L8.019,2.316 L9.169,1.827 L12.177,8.896 L11.027,9.385 Z M27.634,21.799 L20.563,18.792 L21.05,17.642 L28.123,20.649 L27.634,21.799 Z M21.051,12.229 L20.562,11.079 L27.635,8.072 L28.122,9.222 L21.051,12.229 Z M9.299,28.175 L8.149,27.686 L11.157,20.615 L12.307,21.104 L9.299,28.175 Z M20.727,28.175 L17.72,21.104 L18.87,20.615 L21.878,27.686 L20.727,28.175 Z M8.844,12.36 L1.775,9.352 L2.263,8.202 L9.333,11.21 L8.844,12.36 Z M2.263,21.93 L1.774,20.78 L8.844,17.772 L9.332,18.922 L2.263,21.93 Z" id="Shape"></path>
        </g>
    </g>
</svg>