<?xml version="1.0" encoding="UTF-8"?>
<svg width="24px" height="24px" viewBox="0 0 24 24" version="1.1" xmlns="http://www.w3.org/2000/svg" xmlns:xlink="http://www.w3.org/1999/xlink">
    <title>tournaments</title>
    <g id="Page-1" stroke="none" stroke-width="1" fill="none" fill-rule="evenodd">
        <g id="tournaments" fill="#FFFFFF">
            <path d="M20,0 L4,0 L4,10 C4,14.4182847 7.58171525,18 12,18 C16.4182847,18 20,14.4182847 20,10 L20,0 Z M6,2 L18,2 L18,10 C18,13.3137153 15.3137153,16 12,16 L11.7750613,15.9958615 C8.56556844,15.8775721 6,13.2384035 6,10 L6,2 Z" id="Shape" fill-rule="nonzero"></path>
            <polygon id="Path-2" points="11 16.5 11 21.5056378 6 21.5056378 6 23.5 18 23.5 18 21.5056378 13 21.5056378 13 16.5"></polygon>
            <path d="M4,3 L4,5.02507439 L2.02342977,5.02507439 C1.93898753,6.09223045 2.04011057,6.90133011 2.32679888,7.45237338 C2.6134872,8.00341664 3.1712209,8.46521877 4,8.83777976 L4,10.9253718 C2.5529007,10.4334842 1.5529007,9.79169363 1,9 C0.447099295,8.20830637 0.113765962,7.32932921 0,6.36306854 L0,3 L4,3 Z" id="Path-3"></path>
            <path d="M24,3 L24,5.02507439 L22.0234298,5.02507439 C21.9389875,6.09223045 22.0401106,6.90133011 22.3267989,7.45237338 C22.6134872,8.00341664 23.1712209,8.46521877 24,8.83777976 L24,10.9253718 C22.5529007,10.4334842 21.5529007,9.79169363 21,9 C20.4470993,8.20830637 20.113766,7.32932921 20,6.36306854 L20,3 L24,3 Z" id="Path-3-Copy" transform="translate(22.000000, 6.962686) scale(-1, 1) translate(-22.000000, -6.962686) "></path>
        </g>
    </g>
</svg>