<svg xmlns="http://www.w3.org/2000/svg" width="27" height="32" viewBox="0 0 27 32">
    <g fill="none" fill-rule="evenodd">
        <g fill="#FF6912" fill-rule="nonzero">
            <g>
                <g>
                    <g>
                        <path d="M16.779.292c.42 0 .809.22 1.02.58.21.361.212.805.002 1.164-.362.636-.699 1.648-.677 2.835.033 1.859.988 3.558 3.178 4.958l.269.166c3.016 1.811 5.65 5.54 5.65 9.22 0 3.337-1.324 6.485-3.726 8.863-2.408 2.384-5.603 3.698-8.995 3.698-3.38 0-6.576-1.333-8.999-3.75-1.163-1.161-2.079-2.505-2.72-3.994C1.115 22.49.778 20.87.778 19.216c0-3.824 1.991-7.554 4.429-7.554.336 0 .656.141.88.39.223.248.33.579.29.91-.22 1.895.023 4.153.714 4.918.178.197.364.278.638.278.085 0 .152-.006.193-.007l.033.001.01.004.01-.086c.004-.038.006-.085.007-.144l-.003-.21-.018-.274c-.023-.256-.07-.563-.156-1.068l-.184-1.066c-.204-1.215-.29-1.974-.302-2.854l-.007-.514-.01-.344c-.057-2.019.042-3.507.507-5.126.416-1.45 1.091-2.698 2.075-3.698 1.622-1.648 3.946-2.48 6.894-2.48zm-1.75 2.463l-.249.043c-1.34.257-2.412.793-3.205 1.6-.806.818-1.332 1.895-1.63 3.191-.255 1.113-.32 2.144-.294 3.559l.025 1.083c0 .898.087 1.633.326 3.018l.148.861c.33 2.014.277 2.79-.384 3.566-.461.541-1.153.813-2.036.813-.942 0-1.775-.368-2.398-1.058-.801-.889-1.214-2.246-1.341-3.877l-.009-.115-.093.195c-.436.966-.701 2.118-.746 3.245l-.007.337c0 5.542 4.748 10.229 10.364 10.229 5.715 0 10.364-4.59 10.364-10.23 0-2.709-2.031-5.623-4.29-7.087l-.227-.141c-3.252-1.953-4.602-4.493-4.583-7.228.005-.59.075-1.169.2-1.728l.066-.276z" transform="translate(-531 -604) translate(346 604) translate(169) translate(16)"/>
                    </g>
                </g>
            </g>
        </g>
    </g>
</svg>
