<?xml version="1.0" encoding="UTF-8"?>
<svg width="26px" height="22px" viewBox="0 0 26 22" version="1.1" xmlns="http://www.w3.org/2000/svg" xmlns:xlink="http://www.w3.org/1999/xlink">
    <title>Combined Shape</title>
    <g id="Page-1" stroke="none" stroke-width="1" fill="none" fill-rule="evenodd">
        <path d="M15.2636967,0.307630884 C17.7143645,-0.199435345 20.237567,0.849552137 21.6006908,2.96742576 L21.6006908,2.96742576 L21.704041,3.128 L24.867,3.128 L24.9869981,3.13590797 C25.2241324,3.16732062 25.4413982,3.29099793 25.5902467,3.48326062 C25.7637403,3.70735646 25.822993,3.99759753 25.7513056,4.27276119 C25.237035,6.24101465 24.3637858,7.83638278 22.9809985,8.99690612 L22.9809985,8.99690612 L22.8636415,9.09539962 L22.856392,9.2484391 L22.8378042,9.56090623 C22.3543876,16.3087654 16.6474084,21.5900951 9.736,21.5900951 C6.1777046,21.5977947 2.76717201,20.1677796 0.279156494,17.6252108 C0.0114983458,17.3503171 -0.0565302051,16.9380229 0.10963561,16.5912421 C0.275800835,16.2459084 0.640293266,16.0407525 1.02169626,16.0783149 L1.02169626,16.0783149 L1.61130036,16.1281095 C2.63532776,16.1997407 3.35603286,16.1632998 3.93349243,16.0196484 L3.93349243,16.0196484 L4.69700112,15.8107868 L4.16345329,15.3813459 L3.97137711,15.2214014 C3.84570905,15.1131287 3.72485613,15.0016171 3.60911628,14.8871491 C2.8808388,14.163218 2.40842755,13.364112 2.29155726,12.53703 C2.25547557,12.2750612 2.33456534,12.0095594 2.50863839,11.810206 L2.50863839,11.810206 L2.71695975,11.5716305 L2.50031047,11.3405912 L2.30552377,11.1250317 C1.80407907,10.5483053 1.44814531,9.9565846 1.27657958,9.35500946 C1.15164745,8.91304951 1.3744425,8.44665363 1.79753969,8.26584287 L1.79753969,8.26584287 L2.417981,8.00173648 L2.2768128,7.6780745 L2.16214522,7.39921278 C1.51479893,5.72384997 1.59785246,4.01176231 2.33213058,2.41092097 C2.46250721,2.12626548 2.72867399,1.92837196 3.03868633,1.88573623 C3.34807623,1.84308671 3.65744444,1.96157236 3.8601218,2.20044211 C5.45849414,4.09439164 7.60430221,5.44662139 10.0028655,6.07072158 L10.0028655,6.07072158 L10.4059517,6.17560361 L10.4398396,5.7604767 L10.4653889,5.51079492 C10.7609332,3.11071911 12.4560517,1.11305217 14.7766554,0.429526756 L14.7766554,0.429526756 L15.0189174,0.363542396 Z M16.495,2.007 L16.2552376,2.01365107 C15.0711221,2.07996943 13.9635415,2.63934844 13.2064356,3.56197541 C12.3994319,4.54782816 12.0762969,5.8435878 12.3268545,7.09092879 C12.3845779,7.37810241 12.3002817,7.67588361 12.1006145,7.8907428 C11.900905,8.10564757 11.6102464,8.21175171 11.3201995,8.17567622 C8.66961837,7.84984072 6.17326203,6.76129863 4.13255774,5.04137395 L4.13255774,5.04137395 L3.5150378,4.52092236 L3.55748376,5.32739559 L3.57896186,5.5863243 C3.66701762,6.36356413 3.96807147,7.1445789 4.49305403,7.92103912 L4.49305403,7.92103912 L5.113,8.837 L3.37785373,9.57676865 L3.69709229,9.94004011 L3.86416105,10.1225531 C4.03852604,10.3058014 4.23443133,10.4909565 4.4487414,10.6753262 C4.82764643,10.9989121 5.224743,11.2940164 5.64077651,11.5607673 L5.64077651,11.5607673 L5.662,11.567 L5.65953336,11.5722822 L7.072,12.429 L5.59353642,13.1689199 L5.45541588,13.2346255 L5.31535416,13.2947017 L4.77318504,13.5147902 L5.22353821,13.8883786 L5.50653681,14.1112785 C5.89121836,14.3987897 6.3047716,14.6472181 6.7408533,14.8526311 L6.7408533,14.8526311 L8.008,15.452 L6.94639268,16.3689742 L6.69311113,16.5809319 C5.94071073,17.1902791 5.24844248,17.5636771 4.43091602,17.7762653 L4.43091602,17.7762653 L3.56286613,18.0019914 L4.35437398,18.4238661 L4.71209309,18.6065021 C6.27447983,19.3697478 7.99304534,19.7658758 9.73757402,19.76303 L9.73757402,19.76303 L10.029612,19.7593758 C16.1434918,19.6068523 21.046,14.6788524 21.046,8.633 L21.046,8.633 L21.046,8.157 L21.4344623,7.88420437 L21.6830844,7.69910052 C22.4108874,7.12397747 22.977005,6.37094657 23.4053152,5.45068567 L23.4053152,5.45068567 L23.6369494,4.953 L20.58,4.953 L20.3318063,4.43211475 L20.2357612,4.24203087 C19.4992885,2.87089332 18.0642535,2.007 16.495,2.007 L16.495,2.007 Z" id="Combined-Shape" fill="#FFFFFF" fill-rule="nonzero"></path>
    </g>
</svg>